<?xml version="1.0" encoding="UTF-8" standalone="no"?>
<!-- Created with Inkscape (http://www.inkscape.org/) -->

<svg
   xmlns:dc="http://purl.org/dc/elements/1.1/"
   xmlns:cc="http://creativecommons.org/ns#"
   xmlns:rdf="http://www.w3.org/1999/02/22-rdf-syntax-ns#"
   xmlns:svg="http://www.w3.org/2000/svg"
   xmlns="http://www.w3.org/2000/svg"
   xmlns:sodipodi="http://sodipodi.sourceforge.net/DTD/sodipodi-0.dtd"
   xmlns:inkscape="http://www.inkscape.org/namespaces/inkscape"
   width="118.98"
   height="121.76966"
   viewBox="0 0 31.480125 32.218224"
   version="1.1"
   id="svg8"
   inkscape:version="0.92.3 (2405546, 2018-03-11)"
   sodipodi:docname="teal_tiger_3.svg">
  <defs
     id="defs2" />
  <sodipodi:namedview
     id="base"
     pagecolor="#ffffff"
     bordercolor="#666666"
     borderopacity="1.0"
     inkscape:pageopacity="0.0"
     inkscape:pageshadow="2"
     inkscape:zoom="3.959798"
     inkscape:cx="78.83212"
     inkscape:cy="3.8041791"
     inkscape:document-units="mm"
     inkscape:current-layer="layer1"
     showgrid="false"
     units="px"
     fit-margin-top="1"
     fit-margin-left="1"
     fit-margin-bottom="1"
     fit-margin-right="1"
     inkscape:window-width="2560"
     inkscape:window-height="1377"
     inkscape:window-x="2552"
     inkscape:window-y="-8"
     inkscape:window-maximized="1" />
  <metadata
     id="metadata5">
    <rdf:RDF>
      <cc:Work
         rdf:about="">
        <dc:format>image/svg+xml</dc:format>
        <dc:type
           rdf:resource="http://purl.org/dc/dcmitype/StillImage" />
        <dc:title></dc:title>
      </cc:Work>
    </rdf:RDF>
  </metadata>
  <g
     inkscape:label="Layer 1"
     inkscape:groupmode="layer"
     id="layer1"
     transform="translate(-122.58328,-319.9143)">
    <path
       style="fill:none;fill-opacity:0.90196078;stroke-width:0.26458335"
       d="m 138.17809,313.54124 a 21.544643,21.544643 0 0 0 -21.54443,21.54494 21.544643,21.544643 0 0 0 21.54443,21.5444 21.544643,21.544643 0 0 0 21.54493,-21.5444 21.544643,21.544643 0 0 0 -21.54493,-21.54494 z m -10.04642,6.74532 c 0.16657,3.1e-4 0.65789,0.52209 1.09192,1.15962 0.99886,1.46719 2.18243,1.96869 3.24373,1.37408 0.40143,-0.22491 1.86327,-0.68925 3.2489,-1.03146 l 2.51922,-0.62219 2.68098,0.69712 c 1.47445,0.38323 2.87459,0.85763 3.11144,1.0542 0.73724,0.61185 2.25084,-0.0584 3.26646,-1.44591 0.47756,-0.65243 1.01334,-1.17542 1.19063,-1.16272 0.17729,0.0127 1.09637,0.28059 2.04225,0.59531 1.64452,0.54717 1.75116,0.63576 2.44068,2.02727 l 0.7214,1.45521 -0.42581,1.71979 c -0.32283,1.30409 -0.67109,1.97622 -1.44126,2.78071 l -1.01596,1.06092 0.75913,1.32911 c 0.62681,1.0975 0.86573,2.07058 1.37149,5.58881 l 0.61237,4.25968 -1.49707,3.06493 c -1.14845,2.35188 -1.63809,3.09811 -2.10581,3.20704 -0.33525,0.0781 -1.95877,0.42918 -3.60753,0.77981 -1.64876,0.35062 -3.03322,0.67757 -3.07682,0.72657 -0.0436,0.049 -0.39578,0.71869 -0.78238,1.48828 -0.70284,1.39912 -0.70321,1.39922 -1.68569,1.19063 -0.54042,-0.11473 -1.63721,-0.20879 -2.43757,-0.20879 -0.80036,0 -1.94171,0.0878 -2.53628,0.19482 l -1.08107,0.19431 -0.6258,-1.33636 c -0.34429,-0.73504 -0.7133,-1.39076 -0.82011,-1.45674 -0.10682,-0.066 -1.54145,-0.41381 -3.18792,-0.77309 -1.64646,-0.35928 -3.25767,-0.71559 -3.58066,-0.79169 -0.44243,-0.10427 -0.95418,-0.90434 -2.07532,-3.24424 l -1.48829,-3.10576 0.59945,-4.23332 c 0.50305,-3.55051 0.72897,-4.46434 1.39837,-5.66633 l 0.79788,-1.4335 -0.99425,-0.85938 c -0.73466,-0.63506 -1.0923,-1.22754 -1.36995,-2.27066 -0.51629,-1.93969 -0.48184,-2.42274 0.27854,-3.92328 0.6228,-1.22903 0.75987,-1.33389 2.40916,-1.8433 0.96181,-0.29707 1.88497,-0.53982 2.05155,-0.5395 z m -0.43563,0.79324 c -0.15031,0 -0.91902,0.20333 -1.70842,0.45216 -1.19642,0.37714 -1.51953,0.61779 -1.94149,1.44488 -0.8694,1.70417 -0.49432,3.99364 0.89245,5.44514 0.45186,0.47294 0.8902,0.8599 0.9741,0.8599 0.0839,0 0.38818,-0.44334 0.67593,-0.98495 0.28775,-0.54161 0.98592,-1.43665 1.55185,-1.98903 0.94673,-0.9241 0.99605,-1.04074 0.61546,-1.46244 -0.2275,-0.25208 -0.4974,-1.20252 -0.59996,-2.11202 -0.10255,-0.90951 -0.30961,-1.65364 -0.45992,-1.65364 z m 21.46432,0.13901 c -0.6312,-0.0317 -0.74088,0.37015 -0.74569,1.4521 -0.002,0.51148 -0.24114,1.37227 -0.53072,1.91255 l -0.52658,0.98237 0.74466,0.55035 c 0.40941,0.3027 1.08787,1.13855 1.50792,1.85777 0.42003,0.71922 0.83447,1.30793 0.92087,1.30793 0.0864,0 0.55075,-0.40628 1.03198,-0.90279 0.6087,-0.62801 0.98254,-1.36427 1.22783,-2.41949 0.334,-1.43681 0.31954,-1.58162 -0.27027,-2.74557 -0.56026,-1.10561 -0.77425,-1.27684 -2.13682,-1.70635 -0.54136,-0.17065 -0.93627,-0.27446 -1.22318,-0.28887 z m -10.96987,0.6196 -2.58331,0.65629 c -2.63898,0.67011 -2.9217,0.83374 -6.7231,3.89123 -0.48055,0.38652 -1.64163,1.99355 -2.58021,3.57136 l -1.70687,2.86856 -0.56999,4.11499 -0.56999,4.11499 1.47846,2.93574 1.47795,2.93524 2.66443,0.53173 c 1.46531,0.29226 2.66392,0.44966 2.66392,0.34986 0,-0.0998 -1.48828,-1.30273 -3.30729,-2.67272 l -3.30729,-2.49079 v -2.18333 c 0,-1.20097 0.0956,-2.18385 0.21239,-2.18385 0.11677,0 0.43155,0.60917 0.69918,1.35341 0.47225,1.31327 0.54975,1.38227 2.63188,2.3456 1.17995,0.54591 2.25581,0.92871 2.39056,0.85111 0.13476,-0.0777 -0.73174,-1.04378 -1.92547,-2.14718 l -2.17041,-2.00606 0.007,-3.24115 c 0.004,-1.78263 0.10091,-3.24114 0.21549,-3.24114 0.11457,0 0.59019,1.16494 1.05678,2.58847 l 0.84853,2.58795 1.77405,0.87489 c 1.65934,0.81826 1.7955,0.84492 2.11254,0.41134 0.43117,-0.58967 1.25607,-2.73437 1.10845,-2.88199 -0.0614,-0.0614 -0.80296,-0.0175 -1.64796,0.0971 -1.71059,0.23214 -1.76959,0.1794 -2.16524,-1.9296 -0.14477,-0.77169 -0.29737,-0.95446 -0.79582,-0.95446 -0.33902,0 -0.68668,-0.11451 -0.77308,-0.25425 -0.17254,-0.27918 1.2738,-3.31062 1.70739,-3.57859 0.45092,-0.27868 0.30662,0.33957 -0.40876,1.75131 -0.37359,0.73723 -0.64151,1.3753 -0.59531,1.418 0.0462,0.0427 1.08458,0.23998 2.30787,0.43822 l 2.22415,0.36018 0.47129,1.38648 0.47129,1.38596 -1.83555,3.85558 c -1.61159,3.3853 -1.83554,4.04165 -1.83554,5.37849 0,1.48442 0.0282,1.54334 1.12448,2.35386 0.61846,0.45723 1.24354,0.78912 1.38906,0.73793 1.22632,-0.43128 4.01227,-1.592 4.18476,-1.74356 0.11872,-0.10432 -0.67926,-0.88987 -1.77354,-1.74614 -1.09428,-0.85627 -1.99494,-1.67084 -2.00194,-1.81023 -0.0152,-0.3167 1.86216,-2.26033 2.18333,-2.26033 0.12991,0 0.59727,0.25723 1.03869,0.57155 0.59519,0.42381 0.91339,0.50289 1.23145,0.30591 0.23588,-0.14607 0.69402,-0.43037 1.01803,-0.63148 0.54401,-0.33767 0.67058,-0.28607 1.65364,0.67387 0.5855,0.57171 1.06023,1.16435 1.05524,1.3167 -0.005,0.15237 -0.83752,0.93183 -1.8495,1.7322 -1.01198,0.80036 -1.84027,1.55054 -1.84227,1.66708 -0.003,0.20807 0.59148,0.49046 3.16363,1.50429 l 1.28778,0.508 1.21233,-0.92604 c 1.13547,-0.86704 1.21295,-1.00417 1.21595,-2.1699 0.003,-0.99848 -0.37277,-2.04306 -1.90015,-5.2803 l -1.90376,-4.03541 0.44494,-1.4118 0.44545,-1.41232 2.24896,-0.33486 c 1.23687,-0.18402 2.24844,-0.44504 2.24844,-0.58033 0,-0.13529 -0.29766,-0.83339 -0.66146,-1.55132 -0.72507,-1.43086 -0.76816,-1.5875 -0.43873,-1.5875 0.32513,0 1.93871,3.41785 1.75441,3.71605 -0.086,0.13911 -0.39097,0.2527 -0.67799,0.2527 -0.55836,0 -0.58685,0.05 -1.04077,1.82056 l -0.29714,1.1591 -1.70015,-0.17415 c -1.07903,-0.11054 -1.70067,-0.0774 -1.70067,0.0915 0,0.51444 1.43653,3.1882 1.70894,3.1812 0.15159,-0.004 0.9898,-0.39105 1.86293,-0.8599 l 1.5875,-0.85266 0.81029,-2.497 c 1.15031,-3.54577 1.43867,-3.42942 1.43867,0.57929 v 3.28559 l -2.11667,1.80712 c -2.94558,2.51491 -2.85146,2.83292 0.41031,1.38906 1.84155,-0.81518 1.96851,-0.92805 2.44378,-2.16886 0.77989,-2.0361 1.11466,-1.85227 1.11466,0.61134 v 2.12442 l -3.47265,2.65977 c -3.79204,2.90468 -3.79508,2.9668 -0.0992,2.17818 l 2.11667,-0.45167 1.38234,-2.77399 c 0.76006,-1.52588 1.38506,-3.11089 1.38906,-3.52226 0.004,-0.41136 -0.23604,-2.34264 -0.5333,-4.29121 -0.53853,-3.53015 -0.54682,-3.55272 -2.25412,-6.39547 -1.5328,-2.55221 -1.95691,-3.04367 -4.02353,-4.66173 -2.83141,-2.21685 -2.58752,-2.09267 -5.50199,-2.8019 z m -9.417,0.29972 c -0.32121,0 -0.0216,1.83056 0.37879,2.3151 0.3775,0.45682 0.67767,0.41624 1.45779,-0.1974 l 0.67179,-0.52813 -0.97203,-0.40618 c -0.53464,-0.22339 -1.03938,-0.5811 -1.12138,-0.79478 -0.082,-0.21369 -0.26882,-0.38861 -0.41496,-0.38861 z m 18.7942,0.006 c -0.10185,0.0129 -0.21297,0.1353 -0.30799,0.38293 -0.082,0.21368 -0.59692,0.57545 -1.14411,0.80408 l -0.99478,0.41548 0.78497,0.64286 0.78496,0.64285 0.59531,-0.66818 c 0.33133,-0.37174 0.59532,-1.01339 0.59532,-1.44694 0,-0.51218 -0.14393,-0.7945 -0.31368,-0.77308 z m -11.32179,2.64015 c 0.13231,0 0.66448,0.20238 1.18288,0.44959 0.88685,0.4229 0.98785,0.4229 1.70377,0 0.41849,-0.24721 0.90083,-0.44959 1.07177,-0.44959 0.17094,0 1.04553,0.62319 1.94355,1.38493 0.89802,0.76174 1.67449,1.40917 1.72599,1.43867 0.0515,0.0295 0.0469,0.19525 -0.0108,0.36846 -0.0606,0.18193 -0.85671,-0.32279 -1.88516,-1.19528 l -1.78025,-1.50999 -0.85421,0.49765 c -0.47087,0.27422 -0.89288,0.75884 -0.93948,1.07952 -0.11566,0.79609 -0.57671,0.73776 -0.57671,-0.0729 0,-0.45713 -0.23504,-0.77638 -0.77928,-1.05782 -0.7721,-0.39927 -0.7954,-0.38932 -2.4939,1.05161 -1.74785,1.48281 -2.01849,1.64453 -2.01849,1.20665 0,-0.29673 3.36542,-3.19154 3.71037,-3.19154 z m 0.0476,3.39411 0.99321,0.7984 0.99323,0.79788 0.95963,-0.79064 0.95963,-0.79117 1.65829,0.92862 c 2.14172,1.19941 2.72068,1.63298 2.42467,1.81592 -0.13201,0.0816 -1.01347,-0.31273 -1.95854,-0.87592 -0.94507,-0.56318 -1.85104,-1.02805 -2.01332,-1.03405 -0.16228,-0.006 -0.60875,0.23687 -0.99218,0.53847 -0.54171,0.42611 -0.69712,0.78005 -0.69712,1.5875 0,1.14285 0.0886,1.1967 1.05833,0.64234 0.77928,-0.44547 1.05834,-0.48644 1.05834,-0.15503 0,0.13308 -0.55053,0.54979 -1.2237,0.92604 -1.42883,0.79858 -1.3289,0.7933 -2.34818,0.12506 -0.43657,-0.28621 -0.97148,-0.62567 -1.18855,-0.75448 -0.21673,-0.12881 -0.31152,-0.31738 -0.20981,-0.41909 0.10172,-0.10172 0.59682,0.058 1.10019,0.35501 1.06149,0.6263 1.22421,0.54291 1.22421,-0.62735 0,-0.63374 -0.21291,-1.03787 -0.8139,-1.54357 -0.92592,-0.77911 -1.23564,-0.83078 -1.97145,-0.32918 -1.50071,1.02301 -3.00721,1.75689 -3.14607,1.53221 -0.0859,-0.13893 0.80901,-0.80949 1.98851,-1.48984 z m 9.1152,5.05137 c -0.17302,-10e-4 -0.41178,0.18364 -0.65629,0.57516 -0.33633,0.53859 -0.36133,0.5406 -0.8816,0.0698 -0.51935,-0.46997 -0.54607,-0.46907 -0.90795,0.0258 -0.58334,0.79776 -0.44514,1.15973 0.48679,1.27538 2.0063,0.24898 1.87752,0.31258 2.17299,-1.06505 0.12244,-0.57085 0.009,-0.87963 -0.21394,-0.88109 z m -14.21722,0.0212 c -0.48217,0 -0.52698,0.1063 -0.36535,0.8599 0.10143,0.47294 0.23707,0.94919 0.30127,1.05833 0.1423,0.24181 0.8033,0.25326 1.90428,0.0331 0.84877,-0.16976 1.04861,-0.66165 0.57412,-1.4118 -0.21252,-0.33601 -0.30676,-0.33145 -0.72347,0.032 -0.54045,0.47142 -1.1405,0.36763 -1.1405,-0.19689 0,-0.20615 -0.24775,-0.37465 -0.55035,-0.37465 z m 6.90035,1.32292 c 0.15783,0 0.26459,1.01424 0.26459,2.51354 0,2.51422 -0.0232,2.66706 -0.35295,2.33732 -0.28874,-0.28874 -0.20563,-4.85086 0.0884,-4.85086 z m 10.71563,0.39687 -0.41651,1.32292 c -0.38683,1.22843 -0.5413,1.38937 -2.16318,2.25154 -0.96064,0.51067 -1.82199,1.00344 -1.91409,1.09554 -0.0921,0.0921 0.0121,0.59736 0.23151,1.12241 0.21938,0.52504 0.4999,0.95446 0.62322,0.95446 0.12329,0 1.03135,-0.74414 2.01796,-1.65364 l 1.79369,-1.65364 -0.0863,-1.7198 z m -21.09122,0.30489 c -0.13381,0.0445 -0.20774,0.53756 -0.20774,1.47381 v 1.67742 l 1.87017,1.64538 c 1.02845,0.90501 1.91794,1.64537 1.97714,1.64537 0.24557,0 0.94356,-1.66126 0.82631,-1.9668 -0.07,-0.18237 -0.90414,-0.7345 -1.85363,-1.2268 -1.56222,-0.80996 -1.75664,-1.00309 -2.04484,-2.03243 -0.23981,-0.85652 -0.43359,-1.26044 -0.56741,-1.21595 z m 23.25078,5.44929 c -0.0692,0.006 -0.19218,0.13645 -0.40928,0.36947 -0.27417,0.29432 -1.40527,0.93355 -2.51354,1.4206 l -2.01487,0.88572 v 1.30743 c 0,1.00352 0.0769,1.24897 0.33073,1.05625 4.65895,-3.53695 4.69636,-3.57193 4.69636,-4.39455 0,-0.45389 -4.6e-4,-0.65251 -0.0894,-0.64492 z m -25.2057,0.0439 c -0.0689,-0.006 -0.0862,0.204 -0.0837,0.68419 0.005,0.85066 0.19293,1.06886 2.30735,2.68253 1.26597,0.96613 2.39097,1.70333 2.5001,1.63814 0.10913,-0.0652 0.19844,-0.59534 0.19844,-1.17822 v -1.05989 l -2.22932,-1.02992 c -1.22625,-0.56652 -2.35402,-1.24349 -2.50579,-1.50429 -0.0859,-0.14753 -0.14571,-0.22897 -0.18707,-0.23254 z m 14.26735,0.3824 -0.84801,0.71367 -0.84853,0.71363 -0.97048,-0.6904 -0.97049,-0.69038 -0.7369,0.70641 c -0.40549,0.38849 -0.73743,0.80028 -0.73743,0.91519 0,0.11491 0.60602,0.68784 1.34669,1.27331 1.57151,1.24219 1.82831,1.29887 1.82831,0.40307 0,-0.36381 0.11907,-0.66146 0.26459,-0.66146 0.14552,0 0.26458,0.29765 0.26458,0.66146 0,0.3638 0.0893,0.65878 0.19844,0.65577 0.10914,-0.003 0.79374,-0.5307 1.52135,-1.17306 l 1.32292,-1.16787 -0.81752,-0.82992 z m -7.2285,4.00595 c 0.14552,0 0.26458,0.11907 0.26458,0.26459 0,0.14552 -0.11906,0.26458 -0.26458,0.26458 -0.14552,0 -0.26459,-0.11906 -0.26459,-0.26458 0,-0.14552 0.11907,-0.26459 0.26459,-0.26459 z m 1.85208,0 c 0.14552,0 0.26458,0.11907 0.26458,0.26459 0,0.14552 -0.11906,0.26458 -0.26458,0.26458 -0.14552,0 -0.26458,-0.11906 -0.26458,-0.26458 0,-0.14552 0.11906,-0.26459 0.26458,-0.26459 z m 7.14375,0 c 0.14552,0 0.26458,0.11907 0.26458,0.26459 0,0.14552 -0.11906,0.26458 -0.26458,0.26458 -0.14552,0 -0.26458,-0.11906 -0.26458,-0.26458 0,-0.14552 0.11906,-0.26459 0.26458,-0.26459 z m 1.70429,0 c 0.22687,0 0.41238,0.11907 0.41238,0.26459 0,0.14552 -0.11214,0.26458 -0.24908,0.26458 -0.13693,0 -0.32248,-0.11906 -0.41238,-0.26458 -0.0899,-0.14552 0.0222,-0.26459 0.24908,-0.26459 z m -9.92187,1.32292 c 0.1541,0 0.28008,0.11906 0.28008,0.26458 0,0.14553 -0.0526,0.26459 -0.11679,0.26459 -0.0642,0 -0.19018,-0.11906 -0.28008,-0.26459 -0.0899,-0.14552 -0.0373,-0.26458 0.11679,-0.26458 z m 9.01133,0 c 0.14552,0 0.26458,0.11906 0.26458,0.26458 0,0.14553 -0.11906,0.26459 -0.26458,0.26459 -0.14552,0 -0.26458,-0.11906 -0.26458,-0.26459 0,-0.14552 0.11906,-0.26458 0.26458,-0.26458 z m -4.27364,0.52917 c -0.13004,0 -1.12676,0.3737 -2.21485,0.83045 -2.15644,0.90519 -2.30041,1.15112 -1.47123,2.51094 0.50291,0.82474 0.51043,0.82699 1.9172,0.56896 1.33697,-0.24521 3.64499,-0.13406 4.56664,0.21964 0.31283,0.12004 0.56324,-0.15825 0.971,-1.08003 0.30209,-0.68295 0.50946,-1.26873 0.46096,-1.30122 -0.31031,-0.20783 -4.03745,-1.74874 -4.22972,-1.74874 z"
       id="path908"
       inkscape:connector-curvature="0" />
    <path
       style="fill:none;stroke-width:1.00000012"
       d="m 331.69977,1160.6978 c -38.50076,-4.9794 -73.92895,-32.6566 -88.06669,-68.7994 -6.52347,-16.6771 -8.1854,-26.57 -7.57663,-45.1011 0.59716,-18.1789 3.05858,-28.78 10.09183,-43.465 15.87292,-33.1416 44.85282,-55.22039 81.59633,-62.1655 12.34836,-2.33404 33.29186,-1.4112 45.66898,2.01234 12.44688,3.44281 19.78181,6.54191 29.56621,12.49198 26.72833,16.25412 45.78539,43.6769 51.86026,74.62618 1.99287,10.153 1.76338,32.0748 -0.44492,42.5 -11.99464,56.625 -65.90298,95.2457 -122.69537,87.9005 z"
       id="path828"
       transform="scale(0.26458333)"
       inkscape:connector-curvature="0" />
    <path
       style="opacity:1;fill:#008080;fill-opacity:1;stroke:none;stroke-width:0.23861872;stroke-linecap:square;stroke-linejoin:bevel;stroke-miterlimit:4;stroke-dasharray:none;stroke-dashoffset:0;stroke-opacity:1"
       d="m -152.61569,44.775604 c -3.09378,0.523147 -6.09068,1.529277 -9.09447,2.422109 -2.32702,0.730244 -4.87628,1.57154 -6.28939,3.714272 -1.6583,2.531177 -3.01073,5.296541 -3.86921,8.203051 -0.70623,3.118973 0.0371,6.342955 0.83549,9.37187 0.79294,2.98635 1.87994,6.051957 4.20097,8.210357 1.49872,1.506706 3.17684,2.818808 4.71215,4.286243 -2.12403,3.968686 -4.6245,7.834031 -5.63075,12.283254 -1.53478,6.459663 -2.25184,13.07653 -3.24467,19.63266 -0.48781,3.60815 -1.07174,7.21708 -1.49745,10.82495 1.78261,3.97046 3.74434,7.88831 5.63014,11.82217 1.95662,3.80774 3.57935,7.85785 6.26363,11.234 0.92777,1.32145 2.63159,1.4323 4.05812,1.80765 7.66056,1.78547 15.38615,3.28695 22.99183,5.29721 0.83203,0.44744 1.11488,1.49866 1.60573,2.25212 1.4372,2.63248 2.57401,5.38243 3.97822,8.02598 0.56568,0.80294 1.60179,0.0897 2.36286,0.0777 7.32422,-1.32989 14.90357,-1.53723 22.20555,-0.0656 1.08872,0.17551 2.44283,0.17938 3.11115,-0.87008 1.83587,-2.62477 3.055796,-5.62045 4.598682,-8.41752 0.333593,-0.62271 0.675509,-1.42003 1.500953,-1.42407 8.071518,-2.02342 16.370878,-3.53068 24.502788,-5.49385 1.198303,-0.41678 1.944946,-1.58965 2.711156,-2.53459 2.522457,-3.82027 4.360625,-8.03813 6.434096,-12.10748 1.488932,-3.09471 3.068262,-6.16157 4.495556,-9.27607 -0.475101,-4.13806 -1.160693,-8.27831 -1.727012,-12.41578 -0.947181,-6.11502 -1.654816,-12.284587 -3.098617,-18.309392 -0.779365,-3.389534 -2.4339,-6.469989 -4.185681,-9.4425 -0.3979,-0.699051 -0.793232,-1.398005 -1.177991,-2.109844 2.420228,-2.784847 5.424379,-5.160429 7.03802,-8.558182 1.721339,-3.376529 2.301794,-7.17214 3.310864,-10.790737 0.182558,-0.879981 0.715348,-1.843089 0.03026,-2.646178 -1.472611,-2.823344 -2.763022,-5.755445 -4.430935,-8.470028 -1.196936,-1.663099 -3.029953,-2.712946 -4.954089,-3.322209 -3.363044,-1.186266 -6.743622,-2.398064 -10.237165,-3.13527 -1.244931,0.0062 -2.01748,1.232375 -2.845302,1.993361 -2.453165,2.745077 -4.551464,6.044183 -7.993661,7.670044 -1.782783,0.984498 -4.173485,1.505083 -5.947325,0.21515 -2.640545,-1.503664 -5.648614,-2.180136 -8.526537,-3.082016 -4.49634,-1.268531 -9.02353,-2.466254 -13.55412,-3.581008 -6.19897,1.505751 -12.43726,2.960635 -18.52079,4.913309 -1.72712,0.494904 -3.31129,1.351614 -4.97587,1.999073 -2.66488,0.723147 -5.42953,-0.45834 -7.29672,-2.355214 -2.54981,-2.279316 -4.04379,-5.517751 -6.73073,-7.652842 -0.22307,-0.141229 -0.4871,-0.203797 -0.74973,-0.196063 z m -1.65062,3.919027 c 0.49994,0.66964 0.59607,1.667147 0.82569,2.494724 0.84815,3.849334 0.7691,8.126399 2.99474,11.559798 0.43717,0.489868 0.91855,1.234733 0.38911,1.84379 -2.2556,2.727915 -4.96212,5.076828 -6.9612,8.021632 -1.44009,1.894915 -2.42335,4.095745 -3.87623,5.974998 -0.42985,-0.04693 -0.86456,-0.651979 -1.26861,-0.943812 -3.11132,-2.741228 -5.67235,-6.263807 -6.58531,-10.367238 -0.50333,-2.223287 -0.58641,-4.559051 -0.33409,-6.849007 0.4994,-3.05459 1.69444,-6.278983 4.22977,-8.252127 2.26139,-1.355772 4.959,-2.004717 7.48958,-2.781126 1.02426,-0.254655 2.04163,-0.605803 3.09655,-0.701632 z m 81.092363,0.497925 c 2.558095,0.2121 4.945309,1.147536 7.33569,1.989724 1.765518,0.600859 3.249861,1.86839 4.121256,3.516051 0.930506,1.761227 1.965632,3.451683 2.537959,5.359037 0.490929,2.948877 -0.422231,5.889333 -1.19931,8.685684 -0.897681,2.650541 -2.284263,5.179827 -4.348637,7.103129 -0.965829,0.965221 -1.948282,1.987426 -3.073617,2.797155 -2.359576,-2.837646 -3.853239,-6.263819 -6.298163,-9.048214 -1.426614,-1.832452 -3.323103,-3.196383 -5.130667,-4.619673 1.623356,-3.124074 3.475991,-6.293773 3.708717,-9.893016 0.240195,-1.681925 -0.03581,-3.493873 0.661623,-5.082693 0.281417,-0.671597 1.025394,-0.839894 1.685149,-0.807184 z m -37.898973,3.153027 c 4.66881,1.20101 9.40411,2.15598 13.998904,3.631686 3.637523,1.374987 6.613599,4.005365 9.713908,6.31994 4.741912,3.756184 9.781736,7.382804 13.174776,12.501086 2.902589,4.337713 5.556895,8.827396 8.120186,13.367012 1.761644,3.087955 2.904194,6.467505 3.464908,9.968779 1.265305,7.359784 2.339959,14.757254 3.146708,22.171634 0.365795,2.43146 -0.829697,4.6889 -1.616096,6.91051 -2.518179,6.1696 -5.716831,12.08483 -8.680999,18.06684 -5.363769,1.08283 -10.700938,2.40283 -16.108184,3.1989 -0.446684,0.0192 -1.082633,0.16149 -1.42102,-0.0947 1.506292,-2.01723 3.675971,-3.45747 5.603737,-5.06022 5.985448,-4.66914 12.034825,-9.2555 18.058395,-13.87521 0.430409,-0.87395 0.08539,-1.9613 0.196428,-2.92244 -0.06367,-3.94541 0.171553,-7.92816 -0.420851,-11.8429 -0.117106,-0.72018 -0.564309,-1.92946 -1.502405,-1.64865 -1.329022,0.77558 -1.73439,2.41675 -2.403996,3.70132 -1.079338,2.23295 -1.638385,4.89421 -3.597977,6.57062 -2.613872,1.73305 -5.542346,2.8931 -8.390021,4.16853 -2.122631,0.82836 -4.241871,1.88004 -6.481861,2.24332 -0.416624,0.0429 0.115815,-0.5225 0.208393,-0.69892 2.350594,-2.76308 5.233424,-5.01122 7.932601,-7.41777 2.514509,-2.20155 5.153189,-4.30979 7.624101,-6.5482 0.266368,-1.0865 0.02113,-2.29701 0.09012,-3.43119 -0.08374,-5.88252 -0.0092,-11.772318 -0.295374,-17.649136 -0.187412,-1.181435 -0.11291,-2.554682 -0.872922,-3.544933 -0.686332,-0.68813 -1.512607,0.220743 -1.842739,0.83012 -1.585831,3.071859 -2.488859,6.440203 -3.635967,9.689109 -0.930116,2.8087 -1.83869,5.62443 -2.752705,8.43839 -4.141911,2.15455 -8.193668,4.52343 -12.511982,6.29028 -1.284319,-1.09696 -1.995307,-2.71729 -2.863646,-4.14112 -1.223739,-2.33119 -2.539631,-4.65303 -3.251772,-7.20534 0.07895,-0.36646 0.788812,-0.17052 1.093927,-0.25813 3.806236,-0.14144 7.543907,0.55125 11.335685,0.75728 0.703724,-0.48943 0.56033,-1.55026 0.884865,-2.28746 0.791673,-2.714734 1.257097,-5.550582 2.390978,-8.152177 0.403132,-1.054389 1.644908,-0.646954 2.496527,-0.844917 0.973868,-0.149666 2.355551,-0.644649 2.239796,-1.864689 -0.381927,-2.342721 -1.520493,-4.485735 -2.452207,-6.647032 -1.136395,-2.29802 -2.176341,-4.695728 -3.773203,-6.719733 -0.459028,-0.686714 -1.686953,-0.840117 -1.999343,0.05623 -0.137137,1.187938 0.679898,2.246116 1.078757,3.316701 1.247006,2.738133 2.765713,5.37125 3.733279,8.226561 -3.08229,1.204188 -6.369186,1.534283 -9.603543,2.095145 -2.344664,0.396037 -4.748514,0.636077 -7.066928,1.11942 -0.59069,0.52137 -0.571262,1.492188 -0.897874,2.203821 -0.89636,2.934686 -1.911554,5.85563 -2.728104,8.80069 0.47686,1.494 1.33009,2.89141 1.950307,4.34819 3.558817,7.68767 7.373149,15.28338 10.5616,23.11544 1.084661,2.70511 1.931298,5.56299 1.804194,8.46979 0.01509,1.6598 -0.11283,3.56822 -1.501342,4.72596 -2.295044,2.07786 -4.80498,3.94033 -7.33717,5.7413 -4.681299,-1.8525 -9.419349,-3.626 -13.991949,-5.70258 -0.74998,-0.3867 -1.54612,-0.73212 -2.18307,-1.29795 2.81167,-3.07965 6.23344,-5.47327 9.38143,-8.20199 1.50829,-1.37112 3.215336,-2.61364 4.351812,-4.32849 0.354307,-0.96161 -0.620328,-1.77646 -1.090147,-2.51058 -1.879215,-2.23939 -3.923005,-4.39426 -6.309915,-6.09619 -0.77049,-0.60045 -1.82791,-0.58336 -2.62572,-0.0454 -1.8671,0.92555 -3.49695,2.27686 -5.41875,3.062 -1.43189,0.0386 -2.54438,-1.0454 -3.72251,-1.70359 -1.21753,-0.71458 -2.38454,-1.73217 -3.81788,-1.94169 -1.29371,0.32673 -2.20657,1.45462 -3.20975,2.2684 -1.92934,1.85876 -3.87451,3.77673 -5.29664,6.06018 -0.44745,1.12819 0.83641,1.8703 1.45531,2.60234 3.87171,3.7812 8.53114,6.70528 12.19211,10.67934 0.31325,0.31958 0.58576,0.69957 -0.0834,0.79263 -4.80599,2.17029 -9.66664,4.21512 -14.62342,6.0245 -0.79962,0.28631 -1.56485,-0.41587 -2.26556,-0.70393 -2.12672,-1.28534 -4.22008,-2.68184 -5.93859,-4.48773 -1.25266,-1.58826 -0.98812,-3.75805 -1.04933,-5.6399 -0.0259,-2.97678 0.47435,-5.94387 1.62684,-8.70499 2.8195,-6.88165 6.18347,-13.52355 9.33072,-20.25791 0.94376,-2.05339 2.00697,-4.07498 2.87625,-6.14821 -0.25283,-1.42241 -0.91769,-2.79271 -1.32646,-4.19539 -0.80214,-2.181728 -1.38182,-4.466446 -2.4103,-6.554119 -0.64292,-0.545811 -1.62334,-0.406582 -2.40839,-0.631021 -4.81196,-0.793938 -9.71909,-1.505293 -14.44434,-2.531378 1.25017,-3.52523 3.36283,-6.706367 4.4939,-10.287476 0.17714,-0.648192 0.51315,-1.834717 -0.44318,-2.026224 -1.3211,0.01358 -2.00894,1.431239 -2.66053,2.377903 -1.93598,3.299823 -3.66925,6.755939 -4.84434,10.404128 -0.30267,0.752667 -0.28615,1.775176 0.54256,2.179373 1.25267,0.780611 2.85743,0.370636 4.12792,1.042708 0.9785,1.059354 0.93856,2.653417 1.32154,3.974372 0.54464,2.000474 0.58038,4.343054 2.0601,5.944904 1.36474,1.35009 3.46863,0.84449 5.17291,0.71827 2.29594,-0.26788 4.73908,-0.59818 6.95287,-0.51999 -0.35644,2.31577 -1.39879,4.49216 -2.27526,6.63196 -0.72964,1.43316 -1.23968,3.09434 -2.46822,4.19314 -0.95958,0.5379 -1.9938,-0.17252 -2.90912,-0.51864 -3.47739,-1.63502 -6.93438,-3.28936 -10.3474,-5.04213 -2.20335,-6.02202 -3.81504,-12.268321 -6.44493,-18.1291 -0.33359,-0.52204 -0.52097,-1.544084 -1.31322,-1.46751 -0.7224,0.38979 -0.56636,1.418644 -0.73567,2.110321 -0.46383,5.520506 -0.29308,11.071249 -0.38821,16.605539 0.0169,2.07819 -0.0889,4.1784 0.004,6.24298 0.72159,1.00799 1.84003,1.74622 2.71309,2.65118 4.02789,3.82896 8.33434,7.4022 11.91517,11.6737 0.0959,0.19933 0.75356,0.77259 0.44979,0.74185 -3.93253,-1.094 -7.60494,-2.90972 -11.29867,-4.64461 -2.15866,-1.04293 -4.58757,-2.31521 -5.5124,-4.71029 -1.07506,-2.49171 -1.86793,-5.15343 -3.38927,-7.42237 -0.38963,-0.57741 -1.25007,-0.23622 -1.29475,0.41408 -0.65292,3.0161 -0.45643,6.13777 -0.54142,9.20358 0.0241,2.3708 -0.0615,4.76397 0.0433,7.12058 0.61139,0.84149 1.68233,1.32694 2.47326,2.02888 7.16331,5.44522 14.44983,10.74894 21.3706,16.48686 0.72542,0.48567 0.40176,0.57409 -0.34576,0.43085 -5.56767,-0.64747 -11.04897,-1.96165 -16.55142,-3.00168 -0.62116,-0.20898 -1.54741,-0.0268 -1.69875,-0.85851 -3.57923,-7.09098 -7.14955,-14.18648 -10.72291,-21.28043 1.43483,-10.30768 2.84121,-20.62951 4.31016,-30.925068 4.20669,-6.931066 8.11476,-14.070573 12.96805,-20.578661 2.09083,-3.080776 5.21497,-5.184752 8.05597,-7.502451 4.58249,-3.550247 9.18324,-7.446915 14.82949,-9.129544 4.95534,-1.488078 10.04742,-2.651812 15.07436,-3.961692 1.13839,0.277693 2.27679,0.555387 3.41518,0.83308 z m -38.92811,0.323071 c 1.047,0.547602 1.2136,1.918349 2.24621,2.503186 1.88116,1.397518 4.1124,2.186577 6.2227,3.157466 -1.51918,1.129604 -2.92054,2.461758 -4.68158,3.195446 -1.36585,0.427752 -2.32848,-1.059444 -2.75868,-2.152986 -0.74456,-2.015628 -1.26305,-4.163379 -1.13198,-6.310247 0.0245,-0.123262 0.036,-0.297381 0.10333,-0.392865 z m 71.028571,-4.93e-4 c 0.663551,0.885964 0.752753,2.156355 0.561799,3.227013 -0.418308,1.972102 -1.373008,3.795756 -2.803322,5.238193 -0.394729,0.448201 -0.79314,0.894186 -1.220026,1.312261 -1.686583,-1.313228 -3.338647,-2.670814 -4.971844,-4.049734 2.471484,-1.174727 5.339633,-1.918126 7.193144,-4.05886 0.482512,-0.499143 0.646129,-1.288929 1.240249,-1.668873 z m -8.23659,41.90604 c 0.72091,0.338671 0.450382,1.349137 0.439475,1.991944 -0.249517,1.512626 -0.427649,3.122764 -1.199803,4.471205 -0.876933,0.76339 -2.178411,0.39385 -3.223456,0.37172 -1.73206,-0.23842 -3.507325,-0.29138 -5.187001,-0.8181 -0.854025,-0.26723 -1.199426,-1.291545 -0.699166,-2.038554 0.577115,-1.03567 1.183126,-2.124746 2.108349,-2.886431 1.346397,0.656257 2.195457,2.094766 3.623824,2.58161 1.141131,0.107617 1.598858,-1.245157 2.201777,-1.961754 0.492951,-0.65646 1.035698,-1.553661 1.936001,-1.71164 z m -53.854501,0.07325 c 0.80618,0.01171 1.85317,0.362016 1.78898,1.357392 0.11451,1.449456 1.8039,2.308553 3.09137,1.746312 1.31586,-0.32139 2.16174,-1.55117 3.39965,-1.972954 0.76959,0.782417 1.24154,1.886534 1.42496,2.962391 0.0982,1.405028 -1.44968,2.091338 -2.60555,2.319098 -2.02552,0.40172 -4.10551,0.7981 -6.17434,0.50173 -0.99895,-0.25298 -0.97035,-1.55011 -1.28279,-2.341368 -0.28324,-1.406568 -0.89068,-2.829881 -0.70989,-4.277398 0.21119,-0.310788 0.74028,-0.276943 1.06761,-0.295203 z m -12.88857,7.795629 c 1.5898,2.67099 1.51647,6.19372 3.80731,8.46521 2.37079,2.16123 5.44116,3.31294 8.14977,4.9703 1.49756,0.93248 3.15335,1.73734 4.32522,3.05469 -0.0837,1.93556 -1.01497,3.74945 -1.81314,5.45867 -0.2464,0.42784 -0.47495,0.9354 -0.8612,1.23581 -4.19922,-3.26353 -8.10743,-6.88516 -12.14203,-10.34748 -0.62638,-0.63298 -1.5126,-1.14989 -1.97755,-1.85498 0.10844,-3.48165 -0.061,-6.97432 0.31285,-10.43472 0.0485,-0.13985 0.0817,-0.59818 0.19877,-0.5475 z m 79.238529,0.91989 c 0.210288,3.35917 0.287585,6.73959 0.561553,10.09955 -4.236416,3.80479 -8.274227,7.83573 -12.749669,11.36511 -0.411028,0.24859 -0.84053,0.74739 -1.281735,0.80654 -1.345032,-1.62225 -2.096796,-3.66934 -2.697522,-5.66657 -0.112717,-0.53326 -0.432007,-1.354 0.309507,-1.60278 3.750535,-2.40684 7.885053,-4.17509 11.556086,-6.7073 1.957208,-1.37359 2.809511,-3.70379 3.498883,-5.89025 0.274851,-0.8283 0.530141,-1.66285 0.797471,-2.49357 z m 8.335978,19.74262 c 0.03965,1.55272 0.286531,3.40167 -0.898927,4.62411 -2.718045,2.94298 -6.059033,5.2131 -9.174782,7.70352 -2.543778,1.91467 -5.055656,3.96141 -7.671535,5.71281 -0.346939,-1.26098 -0.114024,-2.63015 -0.193588,-3.93086 -0.0012,-1.47273 -1.79e-4,-2.94546 -5.01e-4,-4.41819 5.022035,-2.28431 10.218554,-4.27342 14.917754,-7.19758 1.118972,-0.69292 2.070898,-1.60201 3.021579,-2.49381 z m -94.878877,0.44884 c 1.6187,1.96236 4.04042,3.0056 6.21539,4.21868 3.82228,1.96404 7.74682,3.7184 11.6401,5.53487 -0.0888,2.41309 0.19109,4.87302 -0.27967,7.25628 -0.0429,0.52591 -0.39995,0.42794 -0.75737,0.15734 -4.25255,-2.52093 -8.15083,-5.56844 -12.0217,-8.61934 -1.73324,-1.55566 -4.02629,-2.89901 -4.69317,-5.28357 -0.27155,-1.04931 -0.27363,-2.25994 -0.10358,-3.26426 z m 53.71911,1.28612 c 1.87152,1.76752 3.7025,3.58019 5.46829,5.45349 -3.08935,2.72495 -6.10489,5.55855 -9.43763,7.98874 -0.22476,0.0889 -0.63348,0.61827 -0.66143,0.10457 -0.4369,-1.4424 -0.0281,-3.2246 -1.1088,-4.42361 -0.82634,-0.52344 -1.73999,0.33801 -1.82055,1.17588 -0.32445,1.08863 -0.0637,2.30102 -0.54626,3.30766 -1.18204,0.003 -2.11911,-0.92159 -3.0619,-1.50723 -2.6714,-2.00861 -5.34482,-4.07356 -7.61351,-6.52467 -0.12671,-0.41487 0.48577,-0.8141 0.70309,-1.18053 1.3768,-1.54811 2.82115,-3.04659 4.37604,-4.41674 2.335,1.62865 4.61901,3.35317 6.98863,4.91896 0.71318,0.12389 1.20064,-0.68118 1.76938,-1.00386 1.6337,-1.3037 3.20224,-2.68652 4.83268,-3.99427 l 0.0935,0.0849 z m -6.53788,21.86403 c 2.05155,0.4726 3.95526,1.45911 5.92601,2.18776 3.22541,1.32968 6.45449,2.65573 9.616184,4.13236 -0.611168,2.19864 -1.536474,4.29312 -2.563114,6.32652 -0.50343,0.73954 -0.87916,1.84089 -1.83337,2.06889 -1.59499,-0.38075 -3.17672,-0.89466 -4.82821,-1.02171 -3.7607,-0.34797 -7.56721,-0.48942 -11.33053,-0.10756 -2.0608,0.16547 -4.09118,0.87326 -6.16795,0.71248 -1.33719,-0.3389 -1.84767,-1.8289 -2.56466,-2.85217 -0.62594,-1.22882 -1.60325,-2.51838 -1.38692,-3.96932 0.52417,-1.51653 2.20756,-2.15596 3.4983,-2.87854 3.66244,-1.69066 7.41947,-3.24229 11.25052,-4.54248 0.12428,-0.0373 0.25326,-0.0646 0.38374,-0.0562 z"
       id="path969"
       inkscape:connector-curvature="0"
       transform="matrix(0.26458333,0,0,0.26458333,168.48664,308.33217)" />
    <path
       style="opacity:1;fill:#008080;fill-opacity:0.90196067;stroke:none;stroke-width:0.23861872;stroke-linecap:square;stroke-linejoin:bevel;stroke-miterlimit:4;stroke-dasharray:none;stroke-dashoffset:0;stroke-opacity:1"
       d="m -107.02072,61.699852 c -2.22692,0.52149 -4.09175,1.9272 -6.1677,2.771507 -1.5981,0.463475 -3.02312,-0.718544 -4.45742,-1.208627 -1.39505,-0.558693 -2.77307,-1.3073 -4.25169,-1.554345 -1.82764,0.717103 -3.28198,2.16498 -4.84398,3.329859 -3.19366,2.66905 -6.45618,5.312624 -9.20444,8.452227 -0.57825,0.604853 -0.414,2.109777 0.64096,1.965309 1.48452,-0.40506 2.58897,-1.6103 3.8083,-2.487895 2.92098,-2.303994 5.62682,-4.92183 8.67089,-7.013606 0.84861,-0.644178 2.01222,-0.813191 2.94005,-0.228984 1.43116,0.690487 3.23854,1.585778 3.45972,3.326769 0.26436,1.100455 -0.0336,2.636199 1.07402,3.327141 0.91043,0.436805 1.68413,-0.505197 1.84282,-1.321614 0.27998,-1.380518 0.89601,-2.738926 2.0693,-3.599674 1.37417,-1.131305 2.94052,-1.99457 4.4796,-2.876321 3.74945,3.084431 7.310809,6.423832 11.316368,9.181143 0.817122,0.41451 1.706045,1.268612 2.679518,0.933207 0.745531,-0.568258 0.672905,-1.928592 -0.107773,-2.457068 -4.067027,-3.276637 -7.898243,-6.872779 -12.249333,-9.783633 -0.53822,-0.285478 -1.07786,-0.734705 -1.69921,-0.755395 z"
       id="path971"
       inkscape:connector-curvature="0"
       transform="matrix(0.26458333,0,0,0.26458333,168.48664,308.33217)" />
    <path
       style="opacity:1;fill:#008080;fill-opacity:0.90196067;stroke:none;stroke-width:0.23861872;stroke-linecap:square;stroke-linejoin:bevel;stroke-miterlimit:4;stroke-dasharray:none;stroke-dashoffset:0;stroke-opacity:1"
       d="m -121.82675,74.676712 c -3.6349,1.912308 -7.1704,4.027629 -10.69426,6.141354 -1.76912,1.188833 -3.66747,2.301298 -5.0763,3.925151 -0.51012,0.659644 0.34653,1.380591 1.01977,1.155905 2.48193,-0.543095 4.67117,-1.94989 6.87693,-3.152647 2.23865,-1.205214 4.23394,-2.855762 6.57196,-3.869344 1.49586,-0.458022 2.85809,0.710503 3.99597,1.521888 1.79626,1.353103 3.65055,3.141358 3.76933,5.539562 0.0381,1.292322 0.13638,2.703691 -0.44367,3.887952 -0.74607,0.390217 -1.56893,-0.329481 -2.24545,-0.579567 -1.73806,-0.788551 -3.38851,-2.076838 -5.35708,-2.167031 -1.03695,0.06795 -1.02292,1.516725 -0.30655,2.010933 1.8088,1.396024 3.83623,2.496031 5.73221,3.772455 1.25932,0.753526 2.66494,1.945745 4.23244,1.334044 2.47772,-0.912819 4.73654,-2.341712 6.95087,-3.761687 0.85586,-0.683123 2.06898,-1.2738 2.34175,-2.422785 0.12633,-0.868024 -0.84472,-1.399741 -1.59514,-1.110033 -2.02831,0.569682 -3.70168,2.032085 -5.73834,2.560895 -0.60571,0.0126 -0.47692,-0.910396 -0.57472,-1.304754 -0.0423,-2.199851 -0.30852,-4.769814 1.28671,-6.536999 1.28012,-1.178788 2.72265,-2.312162 4.3844,-2.872375 1.45075,0.217385 2.67097,1.109098 3.97382,1.730164 3.425685,1.819684 6.733586,4.061913 10.440239,5.343382 0.66789,0.332633 1.67297,-0.13911 1.445288,-0.969472 -0.455585,-1.359903 -1.949646,-1.952324 -3.005498,-2.771465 -4.144761,-2.659322 -8.511409,-4.951724 -12.796389,-7.372973 -0.76461,-0.133136 -1.22051,0.734014 -1.82406,1.066281 -1.92048,1.51224 -3.79273,3.195174 -5.73383,4.601524 -2.48813,-1.847616 -4.79923,-3.947084 -7.35443,-5.6937 -0.0907,0.01014 -0.18594,-0.02413 -0.27597,-0.0067 z"
       id="path973"
       inkscape:connector-curvature="0"
       transform="matrix(0.26458333,0,0,0.26458333,168.48664,308.33217)" />
    <path
       style="opacity:1;fill:#008080;fill-opacity:0.90196067;stroke:none;stroke-width:0.23861872;stroke-linecap:square;stroke-linejoin:bevel;stroke-miterlimit:4;stroke-dasharray:none;stroke-dashoffset:0;stroke-opacity:1"
       d="m -115.00797,98.750452 c -0.85478,0.471131 -0.7138,1.665958 -0.91817,2.489128 -0.4598,4.02683 -0.35657,8.0959 -0.32755,12.14195 0.12685,1.43189 0.001,2.98859 0.67257,4.30016 0.33983,0.62901 1.38426,1.15907 1.74212,0.25426 0.49491,-1.63551 0.24948,-3.39767 0.34256,-5.08504 -0.0513,-4.06705 0.15469,-8.16012 -0.33664,-12.20667 -0.1803,-0.664998 -0.20396,-1.719701 -1.00251,-1.917217 l -0.12512,0.017 z"
       id="path975"
       inkscape:connector-curvature="0"
       transform="matrix(0.26458333,0,0,0.26458333,168.48664,308.33217)" />
    <path
       style="opacity:1;fill:#008080;fill-opacity:0.90196067;stroke:none;stroke-width:0.23861872;stroke-linecap:square;stroke-linejoin:bevel;stroke-miterlimit:4;stroke-dasharray:none;stroke-dashoffset:0;stroke-opacity:1"
       d="m -134.94344,138.73212 c -1.23954,0.0676 -1.81955,1.84517 -0.8025,2.59098 0.92185,0.81306 2.43366,-0.11106 2.26742,-1.28538 -0.0272,-0.75572 -0.73971,-1.30542 -1.46492,-1.3056 z"
       id="path977"
       inkscape:connector-curvature="0"
       transform="matrix(0.26458333,0,0,0.26458333,168.48664,308.33217)" />
    <path
       style="opacity:1;fill:#008080;fill-opacity:0.90196067;stroke:none;stroke-width:0.23861872;stroke-linecap:square;stroke-linejoin:bevel;stroke-miterlimit:4;stroke-dasharray:none;stroke-dashoffset:0;stroke-opacity:1"
       d="m -127.93082,138.73434 c -1.11703,0.0371 -1.84621,1.53022 -1.01312,2.36681 0.71237,0.99732 2.36673,0.43491 2.48667,-0.73715 0.14239,-0.83009 -0.64752,-1.66289 -1.47355,-1.62966 z"
       id="path979"
       inkscape:connector-curvature="0"
       transform="matrix(0.26458333,0,0,0.26458333,168.48664,308.33217)" />
    <path
       style="opacity:1;fill:#008080;fill-opacity:0.90196067;stroke:none;stroke-width:0.23861872;stroke-linecap:square;stroke-linejoin:bevel;stroke-miterlimit:4;stroke-dasharray:none;stroke-dashoffset:0;stroke-opacity:1"
       d="m -131.9305,143.7925 c -0.87184,-0.12465 -1.33243,0.95184 -0.83505,1.5976 0.43302,0.48908 0.88871,1.36872 1.64668,1.23433 1.0816,-0.63823 0.79401,-2.75119 -0.58276,-2.82404 -0.076,-0.008 -0.15252,-0.0105 -0.22887,-0.008 z"
       id="path981"
       inkscape:connector-curvature="0"
       transform="matrix(0.26458333,0,0,0.26458333,168.48664,308.33217)" />
    <path
       style="opacity:1;fill:#008080;fill-opacity:0.90196067;stroke:none;stroke-width:0.23861872;stroke-linecap:square;stroke-linejoin:bevel;stroke-miterlimit:4;stroke-dasharray:none;stroke-dashoffset:0;stroke-opacity:1"
       d="m -100.92626,138.72275 c -1.31747,0.009 -1.86371,1.94487 -0.73739,2.63439 1.10245,0.89012 2.880044,-0.70337 2.037813,-1.87357 -0.280746,-0.42794 -0.762623,-0.80253 -1.300423,-0.76082 z"
       id="path983"
       inkscape:connector-curvature="0"
       transform="matrix(0.26458333,0,0,0.26458333,168.48664,308.33217)" />
    <path
       style="opacity:1;fill:#008080;fill-opacity:0.90196067;stroke:none;stroke-width:0.23861872;stroke-linecap:square;stroke-linejoin:bevel;stroke-miterlimit:4;stroke-dasharray:none;stroke-dashoffset:0;stroke-opacity:1"
       d="m -94.52797,138.73138 c -0.888686,-0.10072 -1.807001,0.89914 -1.189938,1.70932 0.591707,0.90384 2.074317,1.70354 2.933043,0.68758 0.746332,-0.83124 0.06771,-2.12145 -0.950224,-2.29702 -0.256438,-0.0765 -0.525428,-0.11125 -0.792881,-0.0999 z"
       id="path985"
       inkscape:connector-curvature="0"
       transform="matrix(0.26458333,0,0,0.26458333,168.48664,308.33217)" />
    <path
       style="opacity:1;fill:#008080;fill-opacity:0.90196067;stroke:none;stroke-width:0.23861872;stroke-linecap:square;stroke-linejoin:bevel;stroke-miterlimit:4;stroke-dasharray:none;stroke-dashoffset:0;stroke-opacity:1"
       d="m -97.997163,143.77376 c -1.354402,0.039 -1.756982,2.09401 -0.538617,2.67039 1.192966,0.81676 2.736247,-1.03721 1.804267,-2.11402 -0.288734,-0.39083 -0.786382,-0.59116 -1.26565,-0.55637 z"
       id="path987"
       inkscape:connector-curvature="0"
       transform="matrix(0.26458333,0,0,0.26458333,168.48664,308.33217)" />
  </g>
</svg>
