<?xml version="1.0" encoding="UTF-8" standalone="no"?>
<!-- Created with Inkscape (http://www.inkscape.org/) -->

<svg
   xmlns:dc="http://purl.org/dc/elements/1.1/"
   xmlns:cc="http://creativecommons.org/ns#"
   xmlns:rdf="http://www.w3.org/1999/02/22-rdf-syntax-ns#"
   xmlns:svg="http://www.w3.org/2000/svg"
   xmlns="http://www.w3.org/2000/svg"
   xmlns:sodipodi="http://sodipodi.sourceforge.net/DTD/sodipodi-0.dtd"
   xmlns:inkscape="http://www.inkscape.org/namespaces/inkscape"
   width="164.85742"
   height="164.85735"
   viewBox="0 0 43.618525 43.618507"
   version="1.1"
   id="svg8"
   inkscape:version="0.92.3 (2405546, 2018-03-11)"
   sodipodi:docname="teal_tiger_2.svg">
  <defs
     id="defs2" />
  <sodipodi:namedview
     id="base"
     pagecolor="#ffffff"
     bordercolor="#666666"
     borderopacity="1.0"
     inkscape:pageopacity="0.0"
     inkscape:pageshadow="2"
     inkscape:zoom="1.979899"
     inkscape:cx="136.81202"
     inkscape:cy="290.20236"
     inkscape:document-units="mm"
     inkscape:current-layer="layer1"
     showgrid="false"
     units="px"
     fit-margin-top="1"
     fit-margin-left="1"
     fit-margin-bottom="1"
     fit-margin-right="1"
     inkscape:window-width="2560"
     inkscape:window-height="1377"
     inkscape:window-x="2552"
     inkscape:window-y="-8"
     inkscape:window-maximized="1" />
  <metadata
     id="metadata5">
    <rdf:RDF>
      <cc:Work
         rdf:about="">
        <dc:format>image/svg+xml</dc:format>
        <dc:type
           rdf:resource="http://purl.org/dc/dcmitype/StillImage" />
        <dc:title></dc:title>
      </cc:Work>
    </rdf:RDF>
  </metadata>
  <g
     inkscape:label="Layer 1"
     inkscape:groupmode="layer"
     id="layer1"
     transform="translate(-168.48664,-308.33217)">
    <g
       id="g945">
      <circle
         r="21.544643"
         cy="330.14142"
         cx="190.2959"
         id="path881-5"
         style="opacity:1;fill:#ffffff;fill-opacity:1;stroke:none;stroke-width:0.56716418;stroke-linecap:square;stroke-linejoin:bevel;stroke-miterlimit:4;stroke-dasharray:none;stroke-dashoffset:0;stroke-opacity:1" />
      <path
         inkscape:connector-curvature="0"
         id="path908"
         d="m 190.29565,308.59675 a 21.544643,21.544643 0 0 0 -21.54443,21.54494 21.544643,21.544643 0 0 0 21.54443,21.5444 21.544643,21.544643 0 0 0 21.54493,-21.5444 21.544643,21.544643 0 0 0 -21.54493,-21.54494 z m -10.04642,6.74532 c 0.16657,3.1e-4 0.65789,0.52209 1.09192,1.15962 0.99886,1.46719 2.18243,1.96869 3.24373,1.37408 0.40143,-0.22491 1.86327,-0.68925 3.2489,-1.03146 l 2.51922,-0.62219 2.68098,0.69712 c 1.47445,0.38323 2.87459,0.85763 3.11144,1.0542 0.73724,0.61185 2.25084,-0.0584 3.26646,-1.44591 0.47756,-0.65243 1.01334,-1.17542 1.19063,-1.16272 0.17729,0.0127 1.09637,0.28059 2.04225,0.59531 1.64452,0.54717 1.75116,0.63576 2.44068,2.02727 l 0.7214,1.45521 -0.42581,1.71979 c -0.32283,1.30409 -0.67109,1.97622 -1.44126,2.78071 l -1.01596,1.06092 0.75913,1.32911 c 0.62681,1.0975 0.86573,2.07058 1.37149,5.58881 l 0.61237,4.25968 -1.49707,3.06493 c -1.14845,2.35188 -1.63809,3.09811 -2.10581,3.20704 -0.33525,0.0781 -1.95877,0.42918 -3.60753,0.77981 -1.64876,0.35062 -3.03322,0.67757 -3.07682,0.72657 -0.0436,0.049 -0.39578,0.71869 -0.78238,1.48828 -0.70284,1.39912 -0.70321,1.39922 -1.68569,1.19063 -0.54042,-0.11473 -1.63721,-0.20879 -2.43757,-0.20879 -0.80036,0 -1.94171,0.0878 -2.53628,0.19482 l -1.08107,0.19431 -0.6258,-1.33636 c -0.34429,-0.73504 -0.7133,-1.39076 -0.82011,-1.45674 -0.10682,-0.066 -1.54145,-0.41381 -3.18792,-0.77309 -1.64646,-0.35928 -3.25767,-0.71559 -3.58066,-0.79169 -0.44243,-0.10427 -0.95418,-0.90434 -2.07532,-3.24424 l -1.48829,-3.10576 0.59945,-4.23332 c 0.50305,-3.55051 0.72897,-4.46434 1.39837,-5.66633 l 0.79788,-1.4335 -0.99425,-0.85938 c -0.73466,-0.63506 -1.0923,-1.22754 -1.36995,-2.27066 -0.51629,-1.93969 -0.48184,-2.42274 0.27854,-3.92328 0.6228,-1.22903 0.75987,-1.33389 2.40916,-1.8433 0.96181,-0.29707 1.88497,-0.53982 2.05155,-0.5395 z m -0.43563,0.79324 c -0.15031,0 -0.91902,0.20333 -1.70842,0.45216 -1.19642,0.37714 -1.51953,0.61779 -1.94149,1.44488 -0.8694,1.70417 -0.49432,3.99364 0.89245,5.44514 0.45186,0.47294 0.8902,0.8599 0.9741,0.8599 0.0839,0 0.38818,-0.44334 0.67593,-0.98495 0.28775,-0.54161 0.98592,-1.43665 1.55185,-1.98903 0.94673,-0.9241 0.99605,-1.04074 0.61546,-1.46244 -0.2275,-0.25208 -0.4974,-1.20252 -0.59996,-2.11202 -0.10255,-0.90951 -0.30961,-1.65364 -0.45992,-1.65364 z m 21.46432,0.13901 c -0.6312,-0.0317 -0.74088,0.37015 -0.74569,1.4521 -0.002,0.51148 -0.24114,1.37227 -0.53072,1.91255 l -0.52658,0.98237 0.74466,0.55035 c 0.40941,0.3027 1.08787,1.13855 1.50792,1.85777 0.42003,0.71922 0.83447,1.30793 0.92087,1.30793 0.0864,0 0.55075,-0.40628 1.03198,-0.90279 0.6087,-0.62801 0.98254,-1.36427 1.22783,-2.41949 0.334,-1.43681 0.31954,-1.58162 -0.27027,-2.74557 -0.56026,-1.10561 -0.77425,-1.27684 -2.13682,-1.70635 -0.54136,-0.17065 -0.93627,-0.27446 -1.22318,-0.28887 z m -10.96987,0.6196 -2.58331,0.65629 c -2.63898,0.67011 -2.9217,0.83374 -6.7231,3.89123 -0.48055,0.38652 -1.64163,1.99355 -2.58021,3.57136 l -1.70687,2.86856 -0.56999,4.11499 -0.56999,4.11499 1.47846,2.93574 1.47795,2.93524 2.66443,0.53173 c 1.46531,0.29226 2.66392,0.44966 2.66392,0.34986 0,-0.0998 -1.48828,-1.30273 -3.30729,-2.67272 l -3.30729,-2.49079 v -2.18333 c 0,-1.20097 0.0956,-2.18385 0.21239,-2.18385 0.11677,0 0.43155,0.60917 0.69918,1.35341 0.47225,1.31327 0.54975,1.38227 2.63188,2.3456 1.17995,0.54591 2.25581,0.92871 2.39056,0.85111 0.13476,-0.0777 -0.73174,-1.04378 -1.92547,-2.14718 l -2.17041,-2.00606 0.007,-3.24115 c 0.004,-1.78263 0.10091,-3.24114 0.21549,-3.24114 0.11457,0 0.59019,1.16494 1.05678,2.58847 l 0.84853,2.58795 1.77405,0.87489 c 1.65934,0.81826 1.7955,0.84492 2.11254,0.41134 0.43117,-0.58967 1.25607,-2.73437 1.10845,-2.88199 -0.0614,-0.0614 -0.80296,-0.0175 -1.64796,0.0971 -1.71059,0.23214 -1.76959,0.1794 -2.16524,-1.9296 -0.14477,-0.77169 -0.29737,-0.95446 -0.79582,-0.95446 -0.33902,0 -0.68668,-0.11451 -0.77308,-0.25425 -0.17254,-0.27918 1.2738,-3.31062 1.70739,-3.57859 0.45092,-0.27868 0.30662,0.33957 -0.40876,1.75131 -0.37359,0.73723 -0.64151,1.3753 -0.59531,1.418 0.0462,0.0427 1.08458,0.23998 2.30787,0.43822 l 2.22415,0.36018 0.47129,1.38648 0.47129,1.38596 -1.83555,3.85558 c -1.61159,3.3853 -1.83554,4.04165 -1.83554,5.37849 0,1.48442 0.0282,1.54334 1.12448,2.35386 0.61846,0.45723 1.24354,0.78912 1.38906,0.73793 1.22632,-0.43128 4.01227,-1.592 4.18476,-1.74356 0.11872,-0.10432 -0.67926,-0.88987 -1.77354,-1.74614 -1.09428,-0.85627 -1.99494,-1.67084 -2.00194,-1.81023 -0.0152,-0.3167 1.86216,-2.26033 2.18333,-2.26033 0.12991,0 0.59727,0.25723 1.03869,0.57155 0.59519,0.42381 0.91339,0.50289 1.23145,0.30591 0.23588,-0.14607 0.69402,-0.43037 1.01803,-0.63148 0.54401,-0.33767 0.67058,-0.28607 1.65364,0.67387 0.5855,0.57171 1.06023,1.16435 1.05524,1.3167 -0.005,0.15237 -0.83752,0.93183 -1.8495,1.7322 -1.01198,0.80036 -1.84027,1.55054 -1.84227,1.66708 -0.003,0.20807 0.59148,0.49046 3.16363,1.50429 l 1.28778,0.508 1.21233,-0.92604 c 1.13547,-0.86704 1.21295,-1.00417 1.21595,-2.1699 0.003,-0.99848 -0.37277,-2.04306 -1.90015,-5.2803 l -1.90376,-4.03541 0.44494,-1.4118 0.44545,-1.41232 2.24896,-0.33486 c 1.23687,-0.18402 2.24844,-0.44504 2.24844,-0.58033 0,-0.13529 -0.29766,-0.83339 -0.66146,-1.55132 -0.72507,-1.43086 -0.76816,-1.5875 -0.43873,-1.5875 0.32513,0 1.93871,3.41785 1.75441,3.71605 -0.086,0.13911 -0.39097,0.2527 -0.67799,0.2527 -0.55836,0 -0.58685,0.05 -1.04077,1.82056 l -0.29714,1.1591 -1.70015,-0.17415 c -1.07903,-0.11054 -1.70067,-0.0774 -1.70067,0.0915 0,0.51444 1.43653,3.1882 1.70894,3.1812 0.15159,-0.004 0.9898,-0.39105 1.86293,-0.8599 l 1.5875,-0.85266 0.81029,-2.497 c 1.15031,-3.54577 1.43867,-3.42942 1.43867,0.57929 v 3.28559 l -2.11667,1.80712 c -2.94558,2.51491 -2.85146,2.83292 0.41031,1.38906 1.84155,-0.81518 1.96851,-0.92805 2.44378,-2.16886 0.77989,-2.0361 1.11466,-1.85227 1.11466,0.61134 v 2.12442 l -3.47265,2.65977 c -3.79204,2.90468 -3.79508,2.9668 -0.0992,2.17818 l 2.11667,-0.45167 1.38234,-2.77399 c 0.76006,-1.52588 1.38506,-3.11089 1.38906,-3.52226 0.004,-0.41136 -0.23604,-2.34264 -0.5333,-4.29121 -0.53853,-3.53015 -0.54682,-3.55272 -2.25412,-6.39547 -1.5328,-2.55221 -1.95691,-3.04367 -4.02353,-4.66173 -2.83141,-2.21685 -2.58752,-2.09267 -5.50199,-2.8019 z m -9.417,0.29972 c -0.32121,0 -0.0216,1.83056 0.37879,2.3151 0.3775,0.45682 0.67767,0.41624 1.45779,-0.1974 l 0.67179,-0.52813 -0.97203,-0.40618 c -0.53464,-0.22339 -1.03938,-0.5811 -1.12138,-0.79478 -0.082,-0.21369 -0.26882,-0.38861 -0.41496,-0.38861 z m 18.7942,0.006 c -0.10185,0.0129 -0.21297,0.1353 -0.30799,0.38293 -0.082,0.21368 -0.59692,0.57545 -1.14411,0.80408 l -0.99478,0.41548 0.78497,0.64286 0.78496,0.64285 0.59531,-0.66818 c 0.33133,-0.37174 0.59532,-1.01339 0.59532,-1.44694 0,-0.51218 -0.14393,-0.7945 -0.31368,-0.77308 z m -11.32179,2.64015 c 0.13231,0 0.66448,0.20238 1.18288,0.44959 0.88685,0.4229 0.98785,0.4229 1.70377,0 0.41849,-0.24721 0.90083,-0.44959 1.07177,-0.44959 0.17094,0 1.04553,0.62319 1.94355,1.38493 0.89802,0.76174 1.67449,1.40917 1.72599,1.43867 0.0515,0.0295 0.0469,0.19525 -0.0108,0.36846 -0.0606,0.18193 -0.85671,-0.32279 -1.88516,-1.19528 l -1.78025,-1.50999 -0.85421,0.49765 c -0.47087,0.27422 -0.89288,0.75884 -0.93948,1.07952 -0.11566,0.79609 -0.57671,0.73776 -0.57671,-0.0729 0,-0.45713 -0.23504,-0.77638 -0.77928,-1.05782 -0.7721,-0.39927 -0.7954,-0.38932 -2.4939,1.05161 -1.74785,1.48281 -2.01849,1.64453 -2.01849,1.20665 0,-0.29673 3.36542,-3.19154 3.71037,-3.19154 z m 0.0476,3.39411 0.99321,0.7984 0.99323,0.79788 0.95963,-0.79064 0.95963,-0.79117 1.65829,0.92862 c 2.14172,1.19941 2.72068,1.63298 2.42467,1.81592 -0.13201,0.0816 -1.01347,-0.31273 -1.95854,-0.87592 -0.94507,-0.56318 -1.85104,-1.02805 -2.01332,-1.03405 -0.16228,-0.006 -0.60875,0.23687 -0.99218,0.53847 -0.54171,0.42611 -0.69712,0.78005 -0.69712,1.5875 0,1.14285 0.0886,1.1967 1.05833,0.64234 0.77928,-0.44547 1.05834,-0.48644 1.05834,-0.15503 0,0.13308 -0.55053,0.54979 -1.2237,0.92604 -1.42883,0.79858 -1.3289,0.7933 -2.34818,0.12506 -0.43657,-0.28621 -0.97148,-0.62567 -1.18855,-0.75448 -0.21673,-0.12881 -0.31152,-0.31738 -0.20981,-0.41909 0.10172,-0.10172 0.59682,0.058 1.10019,0.35501 1.06149,0.6263 1.22421,0.54291 1.22421,-0.62735 0,-0.63374 -0.21291,-1.03787 -0.8139,-1.54357 -0.92592,-0.77911 -1.23564,-0.83078 -1.97145,-0.32918 -1.50071,1.02301 -3.00721,1.75689 -3.14607,1.53221 -0.0859,-0.13893 0.80901,-0.80949 1.98851,-1.48984 z m 9.1152,5.05137 c -0.17302,-0.001 -0.41178,0.18364 -0.65629,0.57516 -0.33633,0.53859 -0.36133,0.5406 -0.8816,0.0698 -0.51935,-0.46997 -0.54607,-0.46907 -0.90795,0.0258 -0.58334,0.79776 -0.44514,1.15973 0.48679,1.27538 2.0063,0.24898 1.87752,0.31258 2.17299,-1.06505 0.12244,-0.57085 0.009,-0.87963 -0.21394,-0.88109 z m -14.21722,0.0212 c -0.48217,0 -0.52698,0.1063 -0.36535,0.8599 0.10143,0.47294 0.23707,0.94919 0.30127,1.05833 0.1423,0.24181 0.8033,0.25326 1.90428,0.0331 0.84877,-0.16976 1.04861,-0.66165 0.57412,-1.4118 -0.21252,-0.33601 -0.30676,-0.33145 -0.72347,0.032 -0.54045,0.47142 -1.1405,0.36763 -1.1405,-0.19689 0,-0.20615 -0.24775,-0.37465 -0.55035,-0.37465 z m 6.90035,1.32292 c 0.15783,0 0.26459,1.01424 0.26459,2.51354 0,2.51422 -0.0232,2.66706 -0.35295,2.33732 -0.28874,-0.28874 -0.20563,-4.85086 0.0884,-4.85086 z m 10.71563,0.39687 -0.41651,1.32292 c -0.38683,1.22843 -0.5413,1.38937 -2.16318,2.25154 -0.96064,0.51067 -1.82199,1.00344 -1.91409,1.09554 -0.0921,0.0921 0.0121,0.59736 0.23151,1.12241 0.21938,0.52504 0.4999,0.95446 0.62322,0.95446 0.12329,0 1.03135,-0.74414 2.01796,-1.65364 l 1.79369,-1.65364 -0.0863,-1.7198 z m -21.09122,0.30489 c -0.13381,0.0445 -0.20774,0.53756 -0.20774,1.47381 v 1.67742 l 1.87017,1.64538 c 1.02845,0.90501 1.91794,1.64537 1.97714,1.64537 0.24557,0 0.94356,-1.66126 0.82631,-1.9668 -0.07,-0.18237 -0.90414,-0.7345 -1.85363,-1.2268 -1.56222,-0.80996 -1.75664,-1.00309 -2.04484,-2.03243 -0.23981,-0.85652 -0.43359,-1.26044 -0.56741,-1.21595 z m 23.25078,5.44929 c -0.0692,0.006 -0.19218,0.13645 -0.40928,0.36947 -0.27417,0.29432 -1.40527,0.93355 -2.51354,1.4206 l -2.01487,0.88572 v 1.30743 c 0,1.00352 0.0769,1.24897 0.33073,1.05625 4.65895,-3.53695 4.69636,-3.57193 4.69636,-4.39455 0,-0.45389 -4.6e-4,-0.65251 -0.0894,-0.64492 z m -25.2057,0.0439 c -0.0689,-0.006 -0.0862,0.204 -0.0837,0.68419 0.005,0.85066 0.19293,1.06886 2.30735,2.68253 1.26597,0.96613 2.39097,1.70333 2.5001,1.63814 0.10913,-0.0652 0.19844,-0.59534 0.19844,-1.17822 v -1.05989 l -2.22932,-1.02992 c -1.22625,-0.56652 -2.35402,-1.24349 -2.50579,-1.50429 -0.0859,-0.14753 -0.14571,-0.22897 -0.18707,-0.23254 z m 14.26735,0.3824 -0.84801,0.71367 -0.84853,0.71363 -0.97048,-0.6904 -0.97049,-0.69038 -0.7369,0.70641 c -0.40549,0.38849 -0.73743,0.80028 -0.73743,0.91519 0,0.11491 0.60602,0.68784 1.34669,1.27331 1.57151,1.24219 1.82831,1.29887 1.82831,0.40307 0,-0.36381 0.11907,-0.66146 0.26459,-0.66146 0.14552,0 0.26458,0.29765 0.26458,0.66146 0,0.3638 0.0893,0.65878 0.19844,0.65577 0.10914,-0.003 0.79374,-0.5307 1.52135,-1.17306 l 1.32292,-1.16787 -0.81752,-0.82992 z m -7.2285,4.00595 c 0.14552,0 0.26458,0.11907 0.26458,0.26459 0,0.14552 -0.11906,0.26458 -0.26458,0.26458 -0.14552,0 -0.26459,-0.11906 -0.26459,-0.26458 0,-0.14552 0.11907,-0.26459 0.26459,-0.26459 z m 1.85208,0 c 0.14552,0 0.26458,0.11907 0.26458,0.26459 0,0.14552 -0.11906,0.26458 -0.26458,0.26458 -0.14552,0 -0.26458,-0.11906 -0.26458,-0.26458 0,-0.14552 0.11906,-0.26459 0.26458,-0.26459 z m 7.14375,0 c 0.14552,0 0.26458,0.11907 0.26458,0.26459 0,0.14552 -0.11906,0.26458 -0.26458,0.26458 -0.14552,0 -0.26458,-0.11906 -0.26458,-0.26458 0,-0.14552 0.11906,-0.26459 0.26458,-0.26459 z m 1.70429,0 c 0.22687,0 0.41238,0.11907 0.41238,0.26459 0,0.14552 -0.11214,0.26458 -0.24908,0.26458 -0.13693,0 -0.32248,-0.11906 -0.41238,-0.26458 -0.0899,-0.14552 0.0222,-0.26459 0.24908,-0.26459 z m -9.92187,1.32292 c 0.1541,0 0.28008,0.11906 0.28008,0.26458 0,0.14553 -0.0526,0.26459 -0.11679,0.26459 -0.0642,0 -0.19018,-0.11906 -0.28008,-0.26459 -0.0899,-0.14552 -0.0373,-0.26458 0.11679,-0.26458 z m 9.01133,0 c 0.14552,0 0.26458,0.11906 0.26458,0.26458 0,0.14553 -0.11906,0.26459 -0.26458,0.26459 -0.14552,0 -0.26458,-0.11906 -0.26458,-0.26459 0,-0.14552 0.11906,-0.26458 0.26458,-0.26458 z m -4.27364,0.52917 c -0.13004,0 -1.12676,0.3737 -2.21485,0.83045 -2.15644,0.90519 -2.30041,1.15112 -1.47123,2.51094 0.50291,0.82474 0.51043,0.82699 1.9172,0.56896 1.33697,-0.24521 3.64499,-0.13406 4.56664,0.21964 0.31283,0.12004 0.56324,-0.15825 0.971,-1.08003 0.30209,-0.68295 0.50946,-1.26873 0.46096,-1.30122 -0.31031,-0.20783 -4.03745,-1.74874 -4.22972,-1.74874 z"
         style="fill:#72c59f;fill-opacity:0.90196078;stroke-width:0.26458335" />
    </g>
    <path
       style="fill:none;stroke-width:1.00000012"
       d="m 331.69977,1160.6978 c -38.50076,-4.9794 -73.92895,-32.6566 -88.06669,-68.7994 -6.52347,-16.6771 -8.1854,-26.57 -7.57663,-45.1011 0.59716,-18.1789 3.05858,-28.78 10.09183,-43.465 15.87292,-33.1416 44.85282,-55.22039 81.59633,-62.1655 12.34836,-2.33404 33.29186,-1.4112 45.66898,2.01234 12.44688,3.44281 19.78181,6.54191 29.56621,12.49198 26.72833,16.25412 45.78539,43.6769 51.86026,74.62618 1.99287,10.153 1.76338,32.0748 -0.44492,42.5 -11.99464,56.625 -65.90298,95.2457 -122.69537,87.9005 z"
       id="path828"
       transform="scale(0.26458333)"
       inkscape:connector-curvature="0" />
  </g>
</svg>
