<?xml version="1.0" encoding="UTF-8" standalone="no"?>
<!-- Created with Inkscape (http://www.inkscape.org/) -->

<svg
   xmlns:dc="http://purl.org/dc/elements/1.1/"
   xmlns:cc="http://creativecommons.org/ns#"
   xmlns:rdf="http://www.w3.org/1999/02/22-rdf-syntax-ns#"
   xmlns:svg="http://www.w3.org/2000/svg"
   xmlns="http://www.w3.org/2000/svg"
   xmlns:sodipodi="http://sodipodi.sourceforge.net/DTD/sodipodi-0.dtd"
   xmlns:inkscape="http://www.inkscape.org/namespaces/inkscape"
   width="240.66753"
   height="241.6423"
   viewBox="0 0 63.676616 63.934527"
   version="1.1"
   id="svg8"
   inkscape:version="0.92.3 (2405546, 2018-03-11)"
   sodipodi:docname="teal_tiger.svg">
  <defs
     id="defs2" />
  <sodipodi:namedview
     id="base"
     pagecolor="#ffffff"
     bordercolor="#666666"
     borderopacity="1.0"
     inkscape:pageopacity="0.0"
     inkscape:pageshadow="2"
     inkscape:zoom="1.979899"
     inkscape:cx="249.25484"
     inkscape:cy="105.32135"
     inkscape:document-units="mm"
     inkscape:current-layer="layer1"
     showgrid="false"
     fit-margin-top="10"
     fit-margin-left="10"
     fit-margin-right="10"
     fit-margin-bottom="10"
     inkscape:window-width="2560"
     inkscape:window-height="1377"
     inkscape:window-x="2552"
     inkscape:window-y="-8"
     inkscape:window-maximized="1"
     units="px" />
  <metadata
     id="metadata5">
    <rdf:RDF>
      <cc:Work
         rdf:about="">
        <dc:format>image/svg+xml</dc:format>
        <dc:type
           rdf:resource="http://purl.org/dc/dcmitype/StillImage" />
        <dc:title></dc:title>
      </cc:Work>
    </rdf:RDF>
  </metadata>
  <g
     inkscape:label="Layer 1"
     inkscape:groupmode="layer"
     id="layer1"
     transform="translate(-67.209817,-137.91109)">
    <g
       id="g5314"
       transform="translate(2.9399642,-8.5526249)">
      <path
         style="fill:#d8eee4;stroke-width:0.26458335"
         d="m 92.61301,207.53228 c -10.820284,-1.4042 -20.028505,-8.66379 -23.847057,-18.80056 -1.496838,-3.97352 -1.952278,-6.89444 -1.789154,-11.47458 0.253314,-7.11248 2.639403,-13.07771 7.370607,-18.42655 8.074068,-9.12811 21.275911,-12.20165 32.722534,-7.6182 3.61596,1.4479 6.41308,3.34265 9.64654,6.53453 11.4701,11.32257 11.44189,29.86634 -0.063,41.37118 -6.35032,6.35032 -15.4371,9.53069 -24.04052,8.41418 z m 3.657528,-12.81264 c 0.800365,0 1.897365,0.0939 2.437779,0.20862 0.982474,0.20861 0.982636,0.20849 1.685473,-1.19062 0.3866,-0.76959 0.73907,-1.43981 0.78327,-1.48939 0.0442,-0.0496 1.42886,-0.37368 3.07703,-0.72021 1.64816,-0.34653 3.26471,-0.69523 3.59233,-0.77488 0.7375,-0.1793 3.50537,-5.51216 3.50537,-6.7538 0,-0.44398 -0.24954,-2.44025 -0.55452,-4.43618 -0.43459,-2.84412 -0.71913,-3.91929 -1.31566,-4.9714 l -0.76115,-1.34245 1.02981,-1.00558 c 0.84683,-0.82692 1.10407,-1.33444 1.44779,-2.85644 l 0.41797,-1.85086 -0.72743,-1.35118 c -0.60161,-1.11746 -0.93338,-1.42671 -1.91806,-1.78786 -2.58291,-0.94733 -2.77285,-0.92797 -3.74952,0.3821 -1.04758,1.40518 -2.56121,2.08228 -3.28791,1.47079 -0.242,-0.20363 -1.64484,-0.67589 -3.117431,-1.04945 l -2.677432,-0.67921 -2.513542,0.62227 c -1.382448,0.34224 -2.877743,0.81154 -3.322878,1.04287 -0.740834,0.38501 -0.879147,0.38452 -1.634109,-0.006 -0.453623,-0.23458 -1.160984,-0.9017 -1.571914,-1.4825 -0.410927,-0.5808 -0.932381,-1.05853 -1.158788,-1.06164 -0.226404,-0.003 -1.153723,0.24495 -2.06071,0.55125 -1.568077,0.52955 -1.68557,0.63025 -2.392378,2.05052 l -0.743313,1.49362 0.468308,1.81982 c 0.34898,1.35612 0.706794,2.06405 1.404276,2.77834 l 0.935966,0.95851 -0.746199,1.27768 c -0.623004,1.06672 -0.843571,1.98403 -1.335969,5.55603 l -0.589769,4.27837 1.457367,3.08418 c 0.903692,1.91245 1.641475,3.14025 1.941968,3.23177 0.26653,0.0812 1.895946,0.45009 3.620926,0.81979 1.724977,0.36971 3.219013,0.7233 3.320076,0.78576 0.101066,0.0625 0.469292,0.7232 0.818285,1.46832 l 0.634532,1.35475 1.072473,-0.21291 c 0.589862,-0.1171 1.727319,-0.21291 2.527683,-0.21291 z m -3.574894,-0.76886 c -0.196911,-0.30473 -0.431599,-0.8539 -0.52153,-1.22037 -0.152123,-0.61991 -0.02503,-0.72586 1.824918,-1.52135 1.093634,-0.47028 2.096268,-0.85504 2.228075,-0.85504 0.186261,0 3.867123,1.51584 4.222723,1.73899 0.043,0.027 -0.17698,0.57445 -0.488936,1.21655 l -0.567187,1.16744 -1.695398,-0.25337 c -1.108895,-0.16572 -2.205524,-0.16091 -3.17002,0.0139 -1.362168,0.24691 -1.501926,0.22504 -1.832645,-0.28676 z m -2.444377,-3.1392 c -1.089771,-0.79702 -1.124479,-0.86787 -1.124479,-2.29533 0,-1.2699 0.252622,-2.01124 1.832658,-5.37805 l 1.832657,-3.90512 -0.443595,-1.38313 -0.443595,-1.38312 -1.984375,-0.34295 c -2.885702,-0.49872 -2.767076,-0.36144 -1.861891,-2.1546 0.451313,-0.89405 0.687575,-1.64738 0.544404,-1.73587 -0.307615,-0.19011 -2.204154,3.48628 -1.983034,3.84406 0.08621,0.1395 0.436914,0.25363 0.779338,0.25363 0.526847,0 0.651232,0.17292 0.808861,1.12448 0.316365,1.9098 0.419298,1.9938 2.154703,1.7583 0.840153,-0.11401 1.576131,-0.15871 1.635506,-0.0993 0.144992,0.14499 -1.027031,3.01078 -1.300419,3.17975 -0.118663,0.0733 -0.997723,-0.25227 -1.953467,-0.72357 l -1.73772,-0.85691 -0.848362,-2.58823 c -0.466601,-1.42353 -0.942107,-2.58823 -1.056683,-2.58823 -0.114575,0 -0.208319,1.47862 -0.208319,3.28583 v 3.28584 l 2.149337,1.93968 c 1.255779,1.13329 1.992855,1.971 1.772936,2.015 -0.207021,0.0414 -1.277691,-0.33542 -2.379268,-0.83742 -1.927897,-0.87857 -2.021031,-0.96325 -2.488147,-2.26226 -0.266904,-0.74223 -0.60992,-1.3084 -0.762257,-1.25815 -0.333703,0.11007 -0.521121,3.46985 -0.222962,3.99696 0.115814,0.20474 1.639319,1.46352 3.385569,2.79729 1.74625,1.33377 3.208933,2.51739 3.250406,2.63027 0.04147,0.11288 -1.133072,-0.0454 -2.610101,-0.35171 l -2.685513,-0.55696 -1.469168,-2.91041 -1.469165,-2.91042 0.583586,-4.08787 0.583589,-4.08788 1.701835,-2.92358 c 0.940972,-1.6165 2.089816,-3.22403 2.569641,-3.59559 0.477292,-0.36961 1.602772,-1.24317 2.501064,-1.94125 1.376095,-1.06938 2.039972,-1.3725 4.216331,-1.92514 l 2.583074,-0.65591 2.398253,0.58361 c 2.914865,0.70932 2.668525,0.58314 5.515335,2.82516 2.0679,1.62859 2.50911,2.13905 4.013,4.64298 l 1.68966,2.81322 0.55171,3.64696 c 0.30343,2.00583 0.54401,3.94461 0.53461,4.30842 -0.009,0.3638 -0.63477,1.90634 -1.3897,3.42786 l -1.37261,2.7664 -2.37418,0.4771 c -1.3058,0.26241 -2.48634,0.43971 -2.62343,0.39402 -0.13709,-0.0457 1.25872,-1.24311 3.10179,-2.66091 l 3.35103,-2.57782 v -2.126 c 0,-2.413 -0.32986,-2.6484 -1.04641,-0.74679 -0.40127,1.0649 -0.63352,1.2736 -2.4108,2.16632 -3.33174,1.6735 -3.47326,1.33155 -0.51154,-1.23601 l 2.11666,-1.83498 v -3.27998 c 0,-4.0042 -0.29692,-4.12654 -1.44541,-0.59559 l -0.80355,2.47043 -1.5875,0.88107 c -0.87312,0.48459 -1.72007,0.88249 -1.88209,0.88422 -0.24276,0.003 -1.68978,-2.77688 -1.68978,-3.24577 0,-0.077 0.79509,-0.12166 1.76687,-0.0992 l 1.76687,0.0408 0.28462,-1.32291 c 0.23172,-1.07704 0.3981,-1.33903 0.89514,-1.40959 0.33579,-0.0477 0.67075,-0.24362 0.74436,-0.43544 0.14336,-0.37359 -1.29696,-3.42894 -1.74777,-3.70756 -0.44788,-0.2768 -0.30816,0.33649 0.39095,1.71613 0.3638,0.71793 0.66146,1.41601 0.66146,1.5513 0,0.13529 -1.01199,0.39653 -2.24886,0.58055 l -2.24887,0.33457 -0.44157,1.40084 -0.441572,1.40083 0.879762,1.93002 c 0.48386,1.06151 1.33737,2.86592 1.89668,4.00981 0.75328,1.54059 1.01693,2.41203 1.01693,3.36132 0,1.21118 -0.0665,1.33233 -1.21239,2.20725 l -1.21238,0.92572 -1.288053,-0.5077 c -2.579253,-1.01665 -3.166345,-1.29665 -3.166345,-1.51012 0,-0.11969 0.833437,-0.86735 1.852083,-1.66147 1.018646,-0.79413 1.852085,-1.57108 1.852085,-1.72657 0,-0.15549 -0.479048,-0.75048 -1.064547,-1.32221 -0.983065,-0.95994 -1.109639,-1.01151 -1.653646,-0.67384 -0.324006,0.20111 -0.787001,0.48823 -1.02888,0.63806 -0.337947,0.20932 -0.650544,0.11164 -1.35,-0.42186 l -0.910222,-0.69426 -1.097394,1.11817 c -0.603567,0.61499 -1.092724,1.23272 -1.087014,1.37273 0.0057,0.14001 0.842378,0.89971 1.859267,1.68822 1.016886,0.78851 1.806078,1.56242 1.753759,1.7198 -0.0797,0.23972 -3.744008,1.97434 -4.152575,1.96575 -0.07276,-0.002 -0.638307,-0.37286 -1.256771,-0.82518 z m 1.639679,-1.00933 c -0.08519,-0.13784 -0.267666,-0.18091 -0.405506,-0.0957 -0.13784,0.0852 -0.180917,0.26766 -0.09573,0.4055 0.08519,0.13784 0.267666,0.18092 0.405506,0.0957 0.13784,-0.0852 0.180916,-0.26767 0.09573,-0.40551 z m 8.877514,0.28718 c 0,-0.14552 -0.11907,-0.26458 -0.26459,-0.26458 -0.14552,0 -0.26458,0.11906 -0.26458,0.26458 0,0.14552 0.11906,0.26459 0.26458,0.26459 0.14552,0 0.26459,-0.11907 0.26459,-0.26459 z m -9.789588,-1.32291 c 0,-0.14552 -0.119063,-0.26459 -0.264584,-0.26459 -0.145521,0 -0.264583,0.11907 -0.264583,0.26459 0,0.14552 0.119062,0.26458 0.264583,0.26458 0.145521,0 0.264584,-0.11906 0.264584,-0.26458 z m 1.852083,0 c 0,-0.14552 -0.119063,-0.26459 -0.264583,-0.26459 -0.145521,0 -0.264584,0.11907 -0.264584,0.26459 0,0.14552 0.119063,0.26458 0.264584,0.26458 0.14552,0 0.264583,-0.11906 0.264583,-0.26458 z m 7.14375,0 c 0,-0.14552 -0.185621,-0.26459 -0.412491,-0.26459 -0.226869,0 -0.338904,0.11907 -0.248967,0.26459 0.08994,0.14552 0.275558,0.26458 0.41249,0.26458 0.136933,0 0.248968,-0.11906 0.248968,-0.26458 z m 1.852085,0 c 0,-0.14552 -0.18562,-0.26459 -0.41249,-0.26459 -0.22687,0 -0.33891,0.11907 -0.24897,0.26459 0.0899,0.14552 0.27556,0.26458 0.41249,0.26458 0.13693,0 0.24897,-0.11906 0.24897,-0.26458 z m -5.291668,-8.19606 c 0,-2.19108 -0.164698,-3.00941 -0.55689,-2.76702 -0.267467,0.16531 -0.329303,4.69702 -0.06767,4.95866 0.425297,0.4253 0.624555,-0.27392 0.624555,-2.19164 z m 0.892717,-4.65885 c 0.673172,-0.37625 1.223949,-0.79297 1.223949,-0.92605 0,-0.33141 -0.279061,-0.29056 -1.058333,0.15491 -0.969857,0.55443 -1.058333,0.50063 -1.058333,-0.64344 0,-0.85986 0.141319,-1.14094 0.814691,-1.62043 0.903021,-0.643 0.892956,-0.64539 3.338507,0.79004 0.7563,0.44391 1.43959,0.70272 1.51844,0.57514 0.18239,-0.29511 -0.10753,-0.51151 -2.305072,-1.72047 l -1.792806,-0.98629 -1.015857,0.80457 -1.015857,0.80457 -0.495668,-0.5477 c -1.025689,-1.13338 -1.29263,-1.11995 -3.543279,0.17822 -1.165783,0.67243 -2.05046,1.33447 -1.96595,1.47121 0.134012,0.21684 2.71529,-1.03986 3.406913,-1.65865 0.419836,-0.37563 0.860071,-0.25737 1.712719,0.46009 0.616043,0.51836 0.814052,0.9045 0.814052,1.5875 0,0.99395 -0.2809,1.10131 -1.322917,0.50564 -0.780981,-0.44644 -1.058333,-0.48631 -1.058333,-0.15211 0,0.21518 1.978972,1.51112 2.414072,1.58086 0.09081,0.0145 0.715888,-0.28137 1.389062,-0.65761 z m -4.959898,-5.7976 c 1.698501,-1.44094 1.721906,-1.45081 2.49401,-1.05154 0.55462,0.2868 0.779421,0.59823 0.779421,1.07976 0,0.79536 0.619612,0.74034 0.739447,-0.0657 0.04289,-0.28849 0.416277,-0.72437 0.829738,-0.96861 l 0.751748,-0.44406 1.773295,1.45354 c 0.97531,0.79944 1.89223,1.38003 2.03759,1.29019 0.14536,-0.0898 0.16462,-0.24615 0.0428,-0.34737 -0.12182,-0.10121 -0.97715,-0.82391 -1.90073,-1.60598 -1.63971,-1.38849 -1.698871,-1.41374 -2.513541,-1.07283 -1.048216,0.43864 -1.675723,0.44008 -2.710501,0.006 -0.792839,-0.33243 -0.871103,-0.29913 -2.55792,1.08828 -1.497565,1.23175 -2.168866,2.09266 -1.63177,2.09266 0.0835,0 0.923388,-0.65457 1.866413,-1.45459 z m -6.582299,17.29522 c -2.06175,-1.63173 -2.314223,-1.92555 -2.307058,-2.68487 0.0068,-0.72017 0.05092,-0.77896 0.283988,-0.37843 0.151767,0.26081 1.279242,0.93773 2.505496,1.50426 l 2.229553,1.03005 v 1.05982 c 0,0.58289 -0.0893,1.11417 -0.198437,1.18061 -0.109141,0.0664 -1.240234,-0.70371 -2.513542,-1.71144 z m 18.058098,0.66208 2.7e-4,-1.28917 2.01795,-0.9073 c 1.10987,-0.49902 2.24083,-1.14655 2.51325,-1.43895 0.49193,-0.52803 0.4953,-0.52613 0.4953,0.27893 0,0.82262 -0.0374,0.85761 -4.69635,4.39458 -0.25369,0.19259 -0.33066,-0.0492 -0.33044,-1.03809 z m -9.755306,-0.65022 c -0.746614,-0.59446 -1.357479,-1.1675 -1.357479,-1.27341 0,-0.10592 0.340537,-0.51883 0.756751,-0.91759 l 0.756748,-0.72501 0.802798,0.67551 c 0.44154,0.37153 0.882854,0.67551 0.980697,0.67551 0.09784,0 0.565978,-0.29601 1.040299,-0.65779 l 0.862405,-0.65778 0.773588,0.81322 0.773589,0.81322 -1.322917,1.16204 c -0.727604,0.63912 -1.412213,1.16449 -1.521354,1.16748 -0.10914,0.003 -0.198437,-0.29221 -0.198437,-0.65602 0,-0.3638 -0.119063,-0.66145 -0.264584,-0.66145 -0.14552,0 -0.264583,0.29765 -0.264583,0.66145 0,0.36381 -0.10351,0.66146 -0.230021,0.66146 -0.126513,0 -0.840888,-0.48637 -1.5875,-1.08084 z m -6.895888,-4.00423 -1.869925,-1.64549 v -1.67742 c 0,-1.87251 0.295447,-1.97074 0.775066,-0.25771 0.2882,1.02934 0.482666,1.22265 2.044866,2.03261 0.949508,0.4923 1.783636,1.04429 1.853618,1.22666 0.117245,0.30554 -0.580477,1.96684 -0.826045,1.96684 -0.05921,0 -0.949124,-0.74047 -1.97758,-1.64549 z m 15.195774,0.67882 c -0.22214,-0.53166 -0.33398,-1.03658 -0.24852,-1.12203 0.0854,-0.0855 0.94135,-0.57319 1.90199,-1.08386 1.62187,-0.86217 1.77638,-1.02297 2.16321,-2.2514 l 0.41658,-1.32292 0.0858,1.7198 0.0858,1.71979 -1.80554,1.65133 c -0.99306,0.90823 -1.89325,1.65237 -2.00044,1.65365 -0.10719,0.001 -0.37664,-0.43269 -0.59879,-0.96436 z m -13.455001,-5.84635 c -0.07102,-0.25466 -0.206129,-0.73091 -0.300241,-1.05833 -0.138134,-0.48057 -0.06569,-0.59532 0.37588,-0.59532 0.30085,0 0.546997,0.16868 0.546997,0.37483 0,0.56452 0.600183,0.6679 1.140632,0.19648 0.416713,-0.36349 0.511027,-0.36761 0.723553,-0.0316 0.474491,0.75015 0.274431,1.24186 -0.574341,1.41162 -1.327169,0.26543 -1.774876,0.19575 -1.91248,-0.29766 z m 12.450221,0.26953 c -0.89232,-0.0928 -0.98519,-0.16925 -0.83016,-0.68312 0.2789,-0.92449 0.57345,-1.08406 1.07508,-0.58243 0.44341,0.44341 0.48581,0.43897 0.91931,-0.0964 0.69308,-0.85591 1.10655,-0.71696 0.88872,0.29866 -0.233,1.08638 -0.3425,1.26743 -0.73313,1.21229 -0.17331,-0.0245 -0.76723,-0.0915 -1.31982,-0.14901 z M 82.831078,171.7569 c -0.607095,-0.62636 -0.928997,-1.29691 -1.149374,-2.39425 -0.279643,-1.39244 -0.25468,-1.63402 0.288705,-2.79417 0.535181,-1.14263 0.733753,-1.31375 1.980624,-1.70679 0.762193,-0.24026 1.508791,-0.43684 1.659107,-0.43684 0.150312,0 0.357203,0.74414 0.459753,1.65365 0.102552,0.9095 0.375126,1.86268 0.605724,2.11818 0.388159,0.43007 0.341966,0.53804 -0.62266,1.45521 -0.573059,0.54487 -1.274048,1.43715 -1.557756,1.98286 -0.283707,0.5457 -0.584462,0.99218 -0.668345,0.99218 -0.08388,0 -0.531982,-0.39151 -0.995778,-0.87003 z m 24.673692,-0.47892 c -0.43075,-0.74192 -1.10595,-1.58015 -1.50044,-1.86272 l -0.71724,-0.51377 0.51782,-0.84926 c 0.2848,-0.46709 0.52009,-1.32551 0.52286,-1.90759 0.008,-1.71136 0.21282,-1.84558 1.96985,-1.29173 1.35845,0.42821 1.57767,0.60234 2.12955,1.69142 0.58443,1.1533 0.59723,1.29145 0.25577,2.76034 -0.25023,1.07648 -0.62094,1.81609 -1.22012,2.43427 -0.47337,0.4884 -0.93136,0.88799 -1.01777,0.88799 -0.0864,0 -0.50953,-0.60702 -0.94028,-1.34895 z m -3.68482,-3.54365 -0.78497,-0.64271 0.99492,-0.41571 c 0.5472,-0.22863 1.062,-0.59053 1.144,-0.80421 0.25339,-0.66033 0.62164,-0.42902 0.62164,0.39048 0,0.43355 -0.26399,1.07519 -0.59531,1.44693 l -0.59532,0.66794 z m -16.742934,0.064 c -0.348462,-0.43907 -0.678363,-2.31511 -0.407112,-2.31511 0.11711,0 0.361641,0.23813 0.543399,0.52917 0.181758,0.29104 0.478287,0.53099 0.658955,0.53322 0.180668,0.002 0.502349,0.11402 0.714844,0.24843 0.330649,0.20914 0.3152,0.323 -0.107154,0.7897 -0.563203,0.62233 -1.023456,0.69273 -1.402932,0.21459 z"
         id="path5328"
         inkscape:connector-curvature="0" />
      <path
         style="fill:#c8e8d9;stroke-width:0.26458335"
         d="m 90.615194,207.15712 c -12.126678,-2.5183 -21.213453,-11.8556 -23.285352,-23.92733 -1.838953,-10.71449 2.533846,-21.60224 11.372429,-28.31598 2.217483,-1.68439 6.93125,-4.01316 9.630767,-4.75793 10.29026,-2.83902 21.586492,0.35274 28.935392,8.17572 5.23969,5.5777 7.91047,12.43417 7.88261,20.23641 -0.0125,3.50053 -0.43253,6.12914 -1.4762,9.23816 -3.05025,9.08656 -10.63911,16.22673 -20.02422,18.84031 -2.10775,0.58697 -3.14847,0.70701 -6.850915,0.79023 -3.097033,0.0696 -4.89417,-0.0116 -6.184511,-0.27959 z m 5.523053,-12.42401 c 0.582083,-0.002 1.668261,0.0924 2.413727,0.21 l 1.355395,0.2138 0.607601,-1.46594 c 0.60158,-1.45143 0.62221,-1.46894 2.08419,-1.76923 3.20765,-0.65885 5.89247,-1.2652 5.97718,-1.34991 0.049,-0.049 0.74401,-1.4829 1.54445,-3.18642 l 1.45534,-3.0973 -0.64562,-4.25513 c -0.50706,-3.34192 -0.78666,-4.47855 -1.30279,-5.29616 -0.36145,-0.57257 -0.65718,-1.14104 -0.65718,-1.26325 0,-0.12222 0.42776,-0.72196 0.95057,-1.33275 0.66375,-0.77545 1.06731,-1.60812 1.33744,-2.75961 0.38018,-1.62058 0.37469,-1.67461 -0.3172,-3.12739 -0.68567,-1.43971 -0.75045,-1.49326 -2.48068,-2.05052 -0.97715,-0.31471 -1.94678,-0.56966 -2.15474,-0.56655 -0.20795,0.003 -0.7228,0.49265 -1.1441,1.08788 -0.9842,1.39051 -2.29085,1.99099 -3.13898,1.44255 -0.32611,-0.21088 -1.78289,-0.68388 -3.23727,-1.0511 l -2.644333,-0.66768 -2.647334,0.66745 c -1.456033,0.36709 -2.906321,0.83496 -3.222857,1.03969 -0.891445,0.57658 -2.026458,0.0354 -3.157686,-1.50567 -0.530524,-0.72272 -1.098209,-1.26502 -1.261523,-1.20512 -0.163314,0.0599 -1.076656,0.3662 -2.029648,0.68066 -1.664279,0.54916 -1.760977,0.62937 -2.448377,2.03095 l -0.715664,1.45922 0.432954,1.77807 c 0.333528,1.36974 0.665392,2.02112 1.445088,2.83641 l 1.012134,1.05833 -0.762532,1.22367 c -0.630825,1.01232 -0.857401,1.87283 -1.311814,4.98214 -0.302104,2.06716 -0.544563,4.13589 -0.538795,4.59717 0.0061,0.48776 0.642678,2.05649 1.521354,3.7491 l 1.510866,2.91042 3.675433,0.79375 3.675433,0.79375 0.688729,1.40941 0.688726,1.4094 1.192091,-0.21014 c 0.655648,-0.11558 1.668338,-0.21186 2.250422,-0.21395 z M 92.4451,193.28887 c -0.269883,-0.59849 -0.442299,-1.128 -0.383149,-1.17669 0.05915,-0.0487 1.018866,-0.46289 2.132701,-0.92044 2.234766,-0.91802 1.768221,-0.96023 5.060797,0.45784 l 1.265121,0.54487 -0.55884,1.09542 -0.55884,1.09541 -1.367737,-0.20577 c -1.698686,-0.25557 -2.093169,-0.256 -3.762716,-0.004 l -1.336644,0.20165 -0.490693,-1.08817 z m -2.326124,-2.70481 c -0.90088,-0.73595 -0.992188,-0.92966 -0.992188,-2.10499 0,-1.05419 0.347115,-2.02903 1.870059,-5.25188 l 1.870057,-3.95741 -0.456483,-1.44813 -0.45648,-1.44813 -2.207327,-0.32839 c -1.21403,-0.18062 -2.207326,-0.43225 -2.207326,-0.55918 0,-0.12692 0.306996,-0.8366 0.682212,-1.57706 0.456213,-0.90029 0.594294,-1.4342 0.416812,-1.61168 -0.177483,-0.17749 -0.578782,0.35688 -1.211379,1.61305 -0.520287,1.03316 -0.945978,1.99259 -0.945978,2.13208 0,0.13948 0.325268,0.29129 0.722818,0.33733 0.639103,0.074 0.758896,0.24692 1.034343,1.49289 0.171339,0.77504 0.352491,1.45014 0.402561,1.50021 0.05007,0.0501 0.834771,0.003 1.743782,-0.10384 0.90901,-0.10718 1.652746,-0.0937 1.652746,0.0299 0,0.19183 -1.256162,2.83639 -1.455351,3.06391 -0.03783,0.0432 -0.849379,-0.35051 -1.803448,-0.87494 l -1.734669,-0.95349 -0.836809,-2.5118 c -0.498443,-1.49615 -0.959921,-2.47094 -1.141285,-2.41076 -0.200541,0.0665 -0.329936,1.15613 -0.379053,3.19189 -0.08434,3.4958 -0.330538,2.98043 2.703449,5.65925 0.862717,0.76172 1.493041,1.46049 1.40072,1.55281 -0.09232,0.0923 -1.105873,-0.27233 -2.252337,-0.81033 -1.991746,-0.93467 -2.105311,-1.03612 -2.552753,-2.28041 -0.266189,-0.74025 -0.632701,-1.30223 -0.849278,-1.30223 -0.30684,0 -0.366046,0.4215 -0.304157,2.16543 l 0.07685,2.16543 3.255663,2.49436 c 1.790616,1.37189 3.199189,2.55083 3.130164,2.61985 -0.10496,0.10496 -3.230571,-0.47729 -4.693423,-0.87432 -0.233344,-0.0633 -1.043731,-1.41968 -1.800865,-3.01412 l -1.376603,-2.89898 0.587459,-4.04081 0.587457,-4.0408 1.703152,-2.86061 c 1.541386,-2.5889 1.936494,-3.04636 4.159849,-4.81639 2.318834,-1.84605 2.603224,-1.99294 5.068003,-2.61773 l 2.611311,-0.66193 2.609025,0.6625 c 2.461004,0.62492 2.748364,0.77343 5.065004,2.61773 2.21528,1.7636 2.62394,2.23557 4.16985,4.81582 l 1.71388,2.86061 0.59829,4.10104 0.59829,4.10104 -1.38979,2.77813 c -0.76438,1.52797 -1.43006,2.82215 -1.47929,2.87596 -0.14187,0.1551 -4.95019,1.10759 -5.05619,1.0016 -0.0525,-0.0525 1.3934,-1.21428 3.21304,-2.58179 l 3.30844,-2.4864 0.004,-2.18281 c 0.002,-1.29954 -0.10446,-2.18281 -0.26396,-2.18281 -0.14736,0 -0.54451,0.62507 -0.88257,1.38906 -0.58485,1.32171 -0.71343,1.43243 -2.65194,2.28361 -1.12051,0.492 -2.09793,0.83392 -2.17204,0.75981 -0.0741,-0.0741 0.82311,-0.99964 1.99382,-2.05673 l 2.12857,-1.92198 v -3.2696 c 0,-4.17679 -0.39077,-4.36788 -1.48484,-0.72607 l -0.76412,2.54352 -1.78156,0.89719 -1.78156,0.89718 -0.79502,-1.57492 c -0.43726,-0.86622 -0.70712,-1.62828 -0.59969,-1.69347 0.10743,-0.0652 0.83871,-0.0161 1.62506,0.10907 1.57327,0.25048 1.87684,0.17026 1.87904,-0.49656 8e-4,-0.24607 0.12547,-0.89389 0.27702,-1.43959 0.21575,-0.77687 0.40682,-0.99219 0.88047,-0.99219 0.33271,0 0.67708,-0.0721 0.76527,-0.16034 0.19543,-0.19544 -1.6917,-4.07299 -1.98226,-4.07299 -0.38425,0 -0.20958,0.80536 0.46216,2.13098 0.76228,1.50429 0.87338,1.39861 -1.9422,1.84738 -1.71586,0.2735 -1.96603,0.38777 -2.20959,1.0093 -0.720936,1.83977 -0.607909,2.38344 1.34578,6.47325 2.35468,4.92924 2.44658,5.79546 0.74823,7.05303 -1.29426,0.95836 -1.61934,0.94381 -4.143689,-0.18542 l -1.6963,-0.75881 2.023978,-1.67418 2.023971,-1.67417 -1.079914,-1.28985 c -0.593957,-0.70941 -1.164767,-1.28985 -1.268465,-1.28985 -0.103698,0 -0.586632,0.2937 -1.073184,0.65267 -0.915374,0.67534 -0.969929,0.66947 -2.216505,-0.23853 l -0.749382,-0.54585 -1.02866,1.19034 c -0.565762,0.65468 -1.032214,1.32164 -1.036556,1.48212 -0.0043,0.16049 0.820507,0.93439 1.832999,1.71979 1.012489,0.7854 1.812541,1.52816 1.777894,1.65057 -0.08191,0.28937 -3.53885,1.7645 -4.107992,1.75294 -0.24026,-0.005 -0.883322,-0.37362 -1.429025,-0.81942 z m 1.857594,-0.54424 c -0.163531,-0.49059 -0.733115,-0.57196 -0.733115,-0.10473 0,0.23041 0.188515,0.41893 0.418923,0.41893 0.230409,0 0.371795,-0.14139 0.314192,-0.3142 z m 8.83157,-0.0827 c 0,-0.13824 -0.12799,-0.29402 -0.28442,-0.34616 -0.15644,-0.0522 -0.28443,0.10363 -0.28443,0.34616 0,0.24254 0.12799,0.39831 0.28443,0.34616 0.15643,-0.0521 0.28442,-0.20791 0.28442,-0.34616 z m -9.809425,-1.26338 c -0.03273,-0.31637 -0.395629,-0.2551 -0.509323,0.086 -0.05821,0.17462 0.03704,0.26987 0.211667,0.21166 0.174625,-0.0582 0.30857,-0.19215 0.297656,-0.29765 z m 1.83224,0.11685 c 0,-0.3445 -0.314529,-0.57362 -0.570386,-0.41549 -0.273638,0.16911 -0.03769,0.63598 0.321418,0.63598 0.136933,0 0.248968,-0.0992 0.248968,-0.22049 z m 7.093037,-0.0639 c -0.05214,-0.15643 -0.207917,-0.28442 -0.346162,-0.28442 -0.138245,0 -0.294018,0.12799 -0.346162,0.28442 -0.05215,0.15644 0.103626,0.28443 0.346162,0.28443 0.242536,0 0.398309,-0.12799 0.346162,-0.28443 z m 1.852088,0 c -0.0521,-0.15643 -0.20792,-0.28442 -0.34617,-0.28442 -0.13824,0 -0.29401,0.12799 -0.34616,0.28442 -0.0521,0.15644 0.10363,0.28443 0.34616,0.28443 0.24254,0 0.39831,-0.12799 0.34617,-0.28443 z m -5.29619,-8.53871 c -0.09832,-2.92511 -0.580255,-3.01703 -0.683784,-0.13042 -0.08411,2.34513 0.05908,3.12475 0.494019,2.68981 0.151125,-0.15113 0.233411,-1.26092 0.189765,-2.55939 z m 1.024173,-4.28489 c 1.129509,-0.66193 1.481159,-1.17947 0.80142,-1.17947 -0.190468,0 -0.577421,0.17481 -0.859896,0.38846 -0.760306,0.57507 -0.910465,0.49735 -0.910465,-0.47125 0,-0.62339 0.223319,-1.09049 0.773242,-1.61735 l 0.773242,-0.74082 1.971314,1.08819 c 2.1648,1.195 2.30385,1.24077 2.30127,0.75746 -0.002,-0.28624 -3.303389,-2.30578 -4.13014,-2.52615 -0.162497,-0.0433 -0.655934,0.22458 -1.096529,0.59531 -0.996111,0.83818 -1.055129,0.83672 -1.979472,-0.0489 l -0.754571,-0.72292 -1.376574,0.72292 c -2.163352,1.13609 -3.096366,1.75139 -3.096366,2.04195 0,0.45258 0.409189,0.31085 2.375361,-0.82273 l 1.892678,-1.09121 0.776396,0.74383 c 0.552887,0.5297 0.776399,0.99618 0.776399,1.62038 0,0.9686 -0.150159,1.04632 -0.910466,0.47125 -0.581869,-0.4401 -1.206201,-0.51198 -1.206201,-0.13887 0,0.2624 2.07518,1.59569 2.490295,1.59999 0.132737,10e-4 0.757815,-0.30017 1.389063,-0.67011 z m -5.483887,-5.34899 c 2.213682,-1.823 2.056144,-1.74764 2.912126,-1.39308 0.510524,0.21147 0.806897,0.54448 0.860137,0.96647 0.104529,0.82856 0.586097,0.83567 0.690634,0.0102 0.07142,-0.56398 0.956373,-1.23489 1.628862,-1.23489 0.125947,0 0.941451,0.59531 1.812229,1.32291 1.511446,1.26294 2.167206,1.59394 2.167206,1.09393 0,-0.12595 -0.89398,-0.96847 -1.98662,-1.87227 l -1.986629,-1.64328 -0.946793,0.58515 -0.94679,0.58514 -1.036339,-0.58245 -1.036338,-0.58246 -1.979147,1.6371 c -1.08853,0.9004 -1.914488,1.74171 -1.835462,1.86958 0.228896,0.37036 0.404272,0.29095 1.682924,-0.76204 z m -6.266825,16.6969 c -1.69335,-1.33269 -2.182813,-1.86615 -2.182813,-2.37905 0,-0.55322 0.05798,-0.60316 0.355214,-0.30593 0.195365,0.19536 1.262845,0.76941 2.372175,1.27567 l 2.016963,0.92045 0.0091,1.12448 c 0.005,0.61846 -0.08022,1.11499 -0.189363,1.10338 -0.10914,-0.0116 -1.180703,-0.79415 -2.38125,-1.739 z m 18.190109,0.68467 v -1.07543 l 2.22202,-1.02657 c 1.22211,-0.56462 2.28427,-1.18201 2.36036,-1.37197 0.0761,-0.18996 0.14184,0.0118 0.14611,0.44836 0.007,0.68926 -0.28213,1.01143 -2.19453,2.44739 -1.21127,0.90951 -2.27693,1.65365 -2.36814,1.65365 -0.0912,0 -0.16582,-0.48394 -0.16582,-1.07543 z m -9.696947,-0.5615 -1.36257,-1.102 0.552429,-0.7472 c 0.663705,-0.89771 0.950619,-0.92394 1.903936,-0.17406 0.634521,0.49912 0.801458,0.52795 1.292453,0.22327 0.310099,-0.19242 0.771205,-0.47837 1.024678,-0.63543 0.371102,-0.22995 0.602988,-0.1414 1.190625,0.45468 l 0.729766,0.74026 -0.79375,0.65843 c -0.436562,0.36214 -1.121172,0.8986 -1.521354,1.19214 l -0.727604,0.53371 v -0.70153 c 0,-0.83377 -0.577647,-0.76994 -0.786453,0.0869 -0.132588,0.54408 -0.207931,0.51754 -1.502156,-0.52919 z m -6.887234,-3.98784 -1.899801,-1.65127 -0.01842,-1.57427 c -0.01982,-1.69338 0.240353,-1.71746 0.766651,-0.071 0.276889,0.86623 0.565412,1.12426 2.148629,1.92155 1.005837,0.50653 1.828792,0.98282 1.828792,1.05843 0,0.21216 -0.756404,1.97286 -0.846394,1.97017 -0.04381,-0.001 -0.934559,-0.74544 -1.979449,-1.65364 z m 15.166631,0.69722 c -0.25147,-0.52734 -0.42235,-0.98483 -0.37973,-1.01665 0.0426,-0.0318 0.93163,-0.51349 1.97559,-1.07038 1.76349,-0.94073 1.92265,-1.09848 2.2443,-2.2245 l 0.3462,-1.21196 0.0856,1.57443 0.0856,1.57443 -1.80073,1.65447 c -0.9904,0.90996 -1.86797,1.65998 -1.95016,1.66672 -0.0822,0.007 -0.35518,-0.41922 -0.60665,-0.94656 z M 88.979682,177.8004 c -0.231674,-1.23493 0.04677,-1.50887 0.682649,-0.6716 0.447601,0.58936 0.559086,0.6207 1.075698,0.30239 0.482185,-0.2971 0.613117,-0.2971 0.801418,0 0.415798,0.65604 0.241088,1.01654 -0.49443,1.02019 -0.400182,0.002 -0.987869,0.0734 -1.30597,0.15872 -0.498033,0.13356 -0.603504,0.0211 -0.759365,-0.8097 z m 11.788778,4e-4 c 0,-0.67779 0.59737,-0.94316 0.92604,-0.41137 0.28029,0.45353 0.96894,0.28997 1.11396,-0.26458 0.2449,-0.93649 0.82441,-0.63177 0.62897,0.33073 -0.16406,0.80798 -0.2499,0.86476 -1.42179,0.94054 -1.18212,0.0764 -1.24718,0.0454 -1.24718,-0.59532 z m 6.89148,-6.3958 c -0.35653,-0.67207 -1.03681,-1.53199 -1.51174,-1.91094 -0.84525,-0.67444 -0.85323,-0.70033 -0.37783,-1.22546 0.29347,-0.32416 0.55496,-1.15932 0.66078,-2.1104 0.0963,-0.86567 0.22244,-1.62126 0.28027,-1.6791 0.0578,-0.0578 0.73862,0.12858 1.51286,0.41425 1.15221,0.42512 1.52374,0.7258 2.04695,1.65662 0.60647,1.07896 0.6224,1.21972 0.31082,2.7472 -0.23737,1.16372 -0.55728,1.84832 -1.15415,2.46987 -0.45416,0.47294 -0.89189,0.85989 -0.97274,0.85989 -0.0808,0 -0.4387,-0.54987 -0.79522,-1.22193 z m -24.854823,0.22975 c -0.495903,-0.49788 -0.833604,-1.24296 -1.069597,-2.35988 -0.328848,-1.55638 -0.315735,-1.68452 0.282046,-2.75615 0.524526,-0.94032 0.859234,-1.20232 2.049113,-1.60403 0.782201,-0.26407 1.526342,-0.41576 1.653646,-0.33708 0.127305,0.0787 0.231463,0.6161 0.231463,1.19427 0,0.57817 0.178821,1.47919 0.39738,2.00228 0.393057,0.94072 0.387464,0.96204 -0.514199,1.96007 -0.501369,0.55496 -1.099965,1.37331 -1.330216,1.81856 -0.515253,0.99639 -0.776291,1.00898 -1.699636,0.082 z m 4.257921,-3.82323 c -0.174625,-0.17463 -0.3175,-0.71905 -0.3175,-1.20983 v -0.89233 l 0.69714,0.54837 c 0.383426,0.3016 0.859676,0.54837 1.058333,0.54837 0.545389,0 0.433753,0.44834 -0.226845,0.91104 -0.706959,0.49517 -0.80286,0.50265 -1.211128,0.0944 z m 16.767182,-0.19061 c -0.43964,-0.48579 -0.43272,-0.52211 0.15743,-0.82682 0.3395,-0.17528 0.89568,-0.57171 1.23597,-0.88095 l 0.6187,-0.56225 -0.19018,1.05833 c -0.31376,1.74604 -0.95338,2.17142 -1.82192,1.21169 z"
         id="path5326"
         inkscape:connector-curvature="0" />
      <path
         style="fill:#b9e1cf;stroke-width:0.26458335"
         d="m 90.213686,207.00959 c -18.880725,-4.09065 -28.76414,-24.61715 -20.122163,-41.79099 5.385235,-10.70185 17.139891,-17.17754 28.871066,-15.90518 11.444051,1.24121 20.759361,8.63074 24.665671,19.56646 2.19999,6.15886 1.95616,14.35271 -0.61277,20.59177 -3.5812,8.69755 -10.69636,14.82871 -20.12222,17.33942 -3.052396,0.81305 -9.385508,0.9122 -12.679584,0.19852 z m 6.056852,-12.26827 c 0.509323,0.004 1.525194,0.10249 2.257492,0.21802 l 1.331449,0.21006 0.640141,-1.36672 c 0.35208,-0.7517 0.72283,-1.41783 0.82389,-1.48029 0.10106,-0.0625 1.5951,-0.41605 3.32008,-0.78576 1.72498,-0.3697 3.32815,-0.73028 3.56261,-0.80128 0.23446,-0.071 1.09699,-1.54682 1.91674,-3.2796 l 1.49044,-3.15051 -0.65808,-4.26748 c -0.51749,-3.35578 -0.80746,-4.52236 -1.35728,-5.46055 l -0.69918,-1.19308 0.95005,-0.97391 c 0.73615,-0.75464 1.04903,-1.3909 1.38965,-2.826 0.43941,-1.85129 0.43932,-1.85271 -0.22448,-3.34246 -0.65345,-1.4665 -0.69315,-1.49997 -2.47828,-2.08923 -0.99781,-0.32937 -1.95006,-0.64873 -2.1161,-0.70968 -0.16605,-0.061 -0.69926,0.44248 -1.18492,1.11875 -1.08596,1.51216 -2.36927,2.14806 -3.2278,1.59942 -0.31738,-0.20282 -1.78664,-0.68467 -3.265028,-1.07078 l -2.687984,-0.70201 -2.735975,0.72165 c -1.504788,0.39691 -2.925794,0.88307 -3.157791,1.08036 -0.620297,0.5275 -2.15477,-0.18621 -2.862541,-1.3314 -0.94417,-1.5277 -1.051493,-1.55493 -3.234899,-0.82083 -1.937824,0.65154 -1.98955,0.69237 -2.692204,2.12505 -0.716203,1.46031 -0.716296,1.46128 -0.305234,3.23471 0.319918,1.38021 0.628298,1.9964 1.38937,2.77613 l 0.978185,1.00218 -0.742632,1.37907 c -0.59381,1.10271 -0.863852,2.22283 -1.347536,5.58947 l -0.604909,4.2104 1.534075,3.20698 1.534073,3.20698 3.686916,0.76601 3.686918,0.76601 0.702019,1.43139 0.702017,1.43139 1.380349,-0.21522 c 0.759191,-0.11836 1.797066,-0.21163 2.306389,-0.20724 z m -3.793548,-1.36635 c -0.257487,-0.53996 -0.37248,-1.07654 -0.255535,-1.1924 0.116944,-0.11586 1.06044,-0.57091 2.096657,-1.01123 l 1.884032,-0.80056 2.014212,0.85151 c 1.107818,0.46834 2.016174,1.00626 2.018574,1.19539 0.002,0.18912 -0.18356,0.70726 -0.413239,1.15141 -0.404,0.78125 -0.457851,0.80073 -1.653646,0.59824 -1.561417,-0.26439 -2.232258,-0.26677 -3.890928,-0.0138 l -1.331965,0.20316 -0.468162,-0.98175 z M 90.118976,190.596 c -0.895575,-0.74239 -0.992188,-0.94667 -0.992188,-2.09797 0,-1.03288 0.357505,-2.02881 1.879563,-5.23606 l 1.879563,-3.96056 -0.423823,-1.4579 -0.423822,-1.4579 -1.67585,-0.29184 c -0.921719,-0.16051 -1.867432,-0.29184 -2.101586,-0.29184 -0.746913,0 -0.750168,-0.45908 -0.01389,-1.9603 0.685212,-1.39712 0.721905,-2.00452 0.09779,-1.61879 -0.37211,0.22997 -1.863775,3.18027 -1.863775,3.68627 0,0.22497 0.303514,0.42187 0.725342,0.47056 0.48219,0.0557 0.755004,0.26111 0.813832,0.61289 0.04867,0.29104 0.201816,0.97086 0.340325,1.51071 l 0.251833,0.98155 1.732788,-0.16181 1.732791,-0.16181 -0.384289,0.90005 c -0.211357,0.49503 -0.534262,1.22087 -0.717563,1.61297 l -0.333277,0.71291 -1.807398,-0.91019 -1.807398,-0.91019 -0.710634,-2.31626 c -1.250381,-4.07555 -1.688436,-3.92345 -1.688436,0.58625 v 3.26815 l 0.859896,0.7218 c 2.080824,1.74664 3.436036,3.05501 3.302596,3.18845 -0.07941,0.0794 -1.046036,-0.27222 -2.14806,-0.78138 -1.925077,-0.88944 -2.030082,-0.98546 -2.676644,-2.44745 -0.876583,-1.98211 -1.238001,-1.63188 -1.135594,1.10046 l 0.07802,2.08152 3.091145,2.3913 c 3.621781,2.8018 3.735697,2.90988 2.86198,2.71533 -0.363802,-0.081 -1.554427,-0.34363 -2.645834,-0.58362 l -1.984375,-0.43633 -1.388964,-2.95933 -1.388965,-2.95933 0.609441,-3.98175 c 0.604576,-3.94997 0.622001,-4.00358 2.182715,-6.71534 1.424728,-2.47549 1.807469,-2.92292 4.053689,-4.73879 2.362372,-1.90978 2.607903,-2.03842 5.159375,-2.70311 l 2.67896,-0.6979 2.645833,0.69247 c 2.466542,0.64555 2.808812,0.82122 5.050762,2.59225 2.1702,1.71434 2.57147,2.17865 4.11138,4.75721 l 1.70647,2.85746 0.59706,4.02182 0.59706,4.02182 -1.33954,2.83983 c -0.73675,1.5619 -1.37034,2.87062 -1.40798,2.90826 -0.11959,0.1196 -5.03795,1.15705 -5.11588,1.07912 -0.0411,-0.0411 1.41159,-1.20113 3.2281,-2.57795 l 3.30275,-2.50332 -0.0734,-2.24896 c -0.0404,-1.23692 -0.17472,-2.24896 -0.29852,-2.24896 -0.1238,0 -0.48098,0.62539 -0.79375,1.38975 -0.53605,1.31005 -0.68094,1.44331 -2.52673,2.32387 -1.07695,0.51377 -2.0731,0.89578 -2.21368,0.84892 -0.14058,-0.0469 0.71423,-0.95948 1.89957,-2.02806 l 2.15518,-1.94286 -0.0738,-3.33852 c -0.0438,-1.98321 -0.17851,-3.31972 -0.33176,-3.29221 -0.14188,0.0255 -0.64958,1.22113 -1.12821,2.65703 l -0.87024,2.61073 -1.71401,0.84522 -1.71401,0.84521 -0.78354,-1.55218 c -0.43095,-0.8537 -0.72795,-1.60777 -0.66001,-1.67571 0.0679,-0.0679 0.78373,-0.02 1.59065,0.10655 0.80692,0.12653 1.56576,0.16911 1.6863,0.0946 0.12055,-0.0745 0.30277,-0.58107 0.40495,-1.1257 0.25413,-1.35463 0.59896,-1.92602 1.16234,-1.92602 0.84016,0 0.8216,-0.29136 -0.14107,-2.21435 -1.1106,-2.21848 -1.03713,-2.11815 -1.39093,-1.89949 -0.17893,0.11059 0.005,0.73533 0.51269,1.74096 l 0.79176,1.56849 -0.59643,0.13057 c -0.32804,0.0718 -1.3053,0.25325 -2.17169,0.40318 -0.86639,0.14993 -1.65423,0.36146 -1.75077,0.47006 -0.0965,0.1086 -0.36354,0.76544 -0.593349,1.45965 l -0.41783,1.26219 1.970169,4.1287 c 2.48526,5.20815 2.55973,5.93069 0.74553,7.23354 -1.35955,0.97636 -1.33895,0.9781 -4.445175,-0.37483 l -1.304179,-0.56804 2.035522,-1.66328 2.035522,-1.66329 -0.50704,-0.70755 c -0.278871,-0.38915 -0.813255,-0.9933 -1.187519,-1.34255 l -0.680479,-0.63501 -1.004959,0.66505 -1.004956,0.66505 -0.912652,-0.62536 c -0.501956,-0.34395 -0.994222,-0.62536 -1.093917,-0.62536 -0.0997,0 -0.671385,0.5854 -1.270418,1.30087 l -1.089149,1.30088 2.040189,1.6671 2.040191,1.6671 -1.660059,0.74739 c -2.474886,1.11425 -2.904326,1.13256 -4.061608,0.17323 z m 1.857594,-0.55618 c -0.163531,-0.49059 -0.733115,-0.57196 -0.733115,-0.10473 0,0.23041 0.188515,0.41893 0.418923,0.41893 0.230409,0 0.371795,-0.14139 0.314192,-0.3142 z m 8.83157,-0.0827 c 0,-0.13824 -0.12799,-0.29402 -0.28442,-0.34616 -0.15644,-0.0522 -0.28443,0.10363 -0.28443,0.34616 0,0.24254 0.12799,0.39831 0.28443,0.34616 0.15643,-0.0521 0.28442,-0.20791 0.28442,-0.34616 z m -9.62532,-1.24023 c -0.163531,-0.4906 -0.733115,-0.57197 -0.733115,-0.10473 0,0.2304 0.188515,0.41892 0.418923,0.41892 0.230409,0 0.371795,-0.14139 0.314192,-0.31419 z m 1.648135,-0.10473 c 0,-0.23041 -0.141388,-0.3718 -0.314193,-0.3142 -0.490596,0.16354 -0.571965,0.73312 -0.10473,0.73312 0.230407,0 0.418923,-0.18852 0.418923,-0.41892 z m 7.14375,0 c 0,-0.23041 -0.141388,-0.3718 -0.314193,-0.3142 -0.490595,0.16354 -0.571965,0.73312 -0.10473,0.73312 0.230407,0 0.418923,-0.18852 0.418923,-0.41892 z m 1.801375,0.13449 c -0.0521,-0.15643 -0.20792,-0.28442 -0.34617,-0.28442 -0.13824,0 -0.29401,0.12799 -0.34616,0.28442 -0.0521,0.15644 0.10363,0.28443 0.34616,0.28443 0.24254,0 0.39831,-0.12799 0.34617,-0.28443 z m -5.240958,-8.44682 c 0,-2.17546 -0.07056,-2.64583 -0.396875,-2.64583 -0.326319,0 -0.396875,0.47037 -0.396875,2.64583 0,2.17546 0.07056,2.64583 0.396875,2.64583 0.326318,0 0.396875,-0.47037 0.396875,-2.64583 z m 0.918964,-4.28606 c 0.658736,-0.32003 1.197702,-0.73675 1.197702,-0.92604 0,-0.45159 -0.380449,-0.43464 -1.336056,0.0595 l -0.78061,0.40367 v -0.88334 c 0,-0.63171 0.221157,-1.09521 0.776398,-1.62717 l 0.776396,-0.74383 1.892679,1.09121 c 2.024285,1.16708 2.376965,1.28013 2.372555,0.76048 -0.003,-0.35683 -3.715281,-2.57969 -4.308162,-2.57969 -0.19761,0 -0.638924,0.29766 -0.9807,0.66146 -0.769773,0.81938 -0.830847,0.81871 -1.8278,-0.0202 -0.445537,-0.3749 -0.960686,-0.64279 -1.144778,-0.59532 -0.841613,0.21703 -4.167822,2.23834 -4.169402,2.53371 -0.0029,0.5369 0.461621,0.39249 2.423996,-0.7536 l 1.856632,-1.08433 0.769218,0.73696 c 0.544655,0.52181 0.769218,0.9916 0.769218,1.60921 v 0.87226 l -0.922719,-0.44001 c -1.655847,-0.78962 -1.583216,0.0901 0.07997,0.96852 1.225568,0.64733 1.130197,0.64895 2.555465,-0.0435 z m -4.925881,-5.82055 c 1.61715,-1.32438 1.704957,-1.36101 2.369143,-0.98821 0.379365,0.21293 0.754229,0.66028 0.833033,0.9941 0.07881,0.33382 0.262345,0.60695 0.407866,0.60695 0.145521,0 0.329059,-0.27313 0.407865,-0.60695 0.0788,-0.33382 0.450922,-0.77963 0.826927,-0.99067 0.655502,-0.36793 0.754626,-0.32724 2.407777,0.98821 1.669674,1.3286 2.465184,1.70352 2.250974,1.06088 -0.057,-0.17108 -0.95647,-1.01831 -1.99877,-1.88274 l -1.895079,-1.57168 -0.9467,0.55856 -0.946701,0.55857 -1.055997,-0.53873 c -1.018701,-0.5197 -1.07706,-0.522 -1.652466,-0.0649 -1.789975,1.42196 -3.350956,2.83287 -3.350956,3.02879 0,0.51626 0.765371,0.1399 2.343084,-1.15219 z m -6.669447,17.08032 c -1.872845,-1.4385 -2.284429,-1.88277 -2.267331,-2.4474 0.01148,-0.37942 0.08052,-0.5423 0.153395,-0.36196 0.07288,0.18034 1.135038,0.79769 2.360361,1.3719 l 2.227855,1.04401 v 1.07549 c 0,0.59153 -0.04187,1.0755 -0.09303,1.0755 -0.05117,0 -1.12273,-0.7909 -2.38125,-1.75754 z m 18.084702,0.70021 v -1.05733 l 2.38125,-1.13679 c 2.00228,-0.95588 2.38125,-1.06359 2.38125,-0.67682 0,0.39601 -4.13815,3.92827 -4.60209,3.92827 -0.0882,0 -0.16041,-0.4758 -0.16041,-1.05733 z m -9.687832,-0.62299 -1.35345,-1.12734 0.653203,-0.7594 c 0.5548,-0.64499 0.728806,-0.71252 1.155015,-0.44825 0.275995,0.17113 0.735351,0.45598 1.020792,0.63301 0.436062,0.27044 0.654068,0.222 1.364427,-0.30319 0.910138,-0.6729 1.336598,-0.5837 2.002216,0.41877 0.33115,0.49874 0.251015,0.62489 -1.035749,1.63047 -1.389197,1.08563 -1.394997,1.08735 -1.478388,0.43704 -0.108418,-0.84547 -0.782026,-0.84798 -0.890895,-0.003 -0.08258,0.6407 -0.102171,0.63418 -1.437171,-0.47779 z m -6.934981,-4.08842 -1.938433,-1.77189 0.08635,-1.4552 0.08635,-1.45521 0.411843,1.19062 c 0.366437,1.05936 0.60494,1.293 2.163209,2.11911 0.96325,0.51067 1.828327,1.00545 1.922391,1.09952 0.09406,0.0941 -0.04594,0.59265 -0.311126,1.10797 l -0.48215,0.93696 z m 15.223663,0.8145 -0.40274,-0.99889 1.8804,-0.95627 c 1.74516,-0.88748 1.91315,-1.04924 2.33565,-2.24895 l 0.45524,-1.29269 0.0205,1.59478 0.0205,1.59479 -1.52135,1.31626 c -2.53952,2.19717 -2.33166,2.12329 -2.78821,0.99097 z m -13.572967,-6.32092 c -0.223986,-1.19394 0.06283,-1.45425 0.690988,-0.62714 0.43416,0.57167 0.569503,0.61433 1.036648,0.32678 0.700371,-0.43111 0.722488,-0.42578 0.889956,0.21462 0.15418,0.5896 0.03361,0.66132 -1.461352,0.86927 -0.949132,0.13203 -0.989629,0.10458 -1.15624,-0.78353 z m 11.891847,0.2925 c -0.25951,-0.67629 0.27704,-1.02557 0.94412,-0.61458 0.51096,0.31479 0.62815,0.28178 1.09685,-0.30901 l 0.52477,-0.66146 -0.0735,0.92604 c -0.0704,0.88714 -0.12081,0.92947 -1.20036,1.00752 -0.84778,0.0613 -1.16777,-0.025 -1.29191,-0.34851 z m -18.008297,-6.54599 c -0.556033,-0.58347 -0.924396,-1.33971 -1.145911,-2.35251 -0.306665,-1.40213 -0.2882,-1.56121 0.304528,-2.62387 0.530741,-0.95152 0.85961,-1.20844 2.070037,-1.61711 1.664134,-0.56186 1.856856,-0.43423 1.86582,1.23568 0.0031,0.58208 0.189058,1.41 0.413187,1.83982 0.39429,0.75613 0.382008,0.80531 -0.37872,1.51627 -0.432427,0.40414 -1.055179,1.21333 -1.3839,1.79821 -0.328718,0.58487 -0.671452,1.06341 -0.76163,1.06341 -0.09018,0 -0.532715,-0.38695 -0.983411,-0.8599 z m 24.916847,0.0503 c -0.23025,-0.44525 -0.84477,-1.28123 -1.3656,-1.85773 -0.86344,-0.95572 -0.9113,-1.08852 -0.54256,-1.50555 0.22242,-0.25155 0.48887,-1.20567 0.59211,-2.12026 0.1745,-1.54594 0.22766,-1.65028 0.75596,-1.48356 2.2075,0.69664 2.43897,0.84465 3.05958,1.9564 0.60384,1.08173 0.62153,1.23422 0.31948,2.75508 -0.23844,1.20066 -0.51973,1.79495 -1.10642,2.33758 -0.99688,0.92201 -1.19837,0.91236 -1.71255,-0.082 z m -20.708702,-3.74127 c -0.174625,-0.17463 -0.313714,-0.74018 -0.309086,-1.25677 0.007,-0.78154 0.06254,-0.87209 0.330729,-0.53917 0.177273,0.22005 0.676024,0.5569 1.108337,0.74855 l 0.786019,0.34844 -0.653727,0.50234 c -0.776759,0.59688 -0.850511,0.60837 -1.262272,0.19661 z m 16.843582,-0.19112 -0.62462,-0.50861 0.75423,-0.28871 c 0.41483,-0.1588 0.97471,-0.555 1.24419,-0.88045 l 0.48994,-0.59174 -0.15642,1.05833 c -0.15605,1.05591 -0.49569,1.7198 -0.87982,1.7198 -0.11158,0 -0.48395,-0.22888 -0.8275,-0.50862 z"
         id="path5324"
         inkscape:connector-curvature="0" />
      <path
         style="fill:#aadbc5;stroke-width:0.26458335"
         d="m 90.887662,207.12945 c -14.901729,-2.69234 -25.475093,-16.88148 -23.734754,-31.85133 0.771115,-6.6329 3.380769,-12.25974 7.860582,-16.94871 2.667047,-2.79157 4.904364,-4.45569 8.160173,-6.06955 14.753876,-7.31331 32.297987,-1.10091 39.342257,13.93118 1.5854,3.38315 2.3615,6.71744 2.52431,10.84503 0.26535,6.7272 -1.21595,12.16424 -4.81781,17.68357 -1.33437,2.04473 -5.89986,6.61022 -7.94459,7.94459 -6.36366,4.15286 -14.137285,5.77561 -21.390168,4.46522 z m 5.250585,-12.37138 c 0.436562,0.002 1.451792,0.097 2.256065,0.21068 l 1.462315,0.20674 0.646963,-1.38129 c 0.35583,-0.75971 0.88841,-1.46826 1.18352,-1.57454 0.2951,-0.10629 1.94711,-0.4754 3.67113,-0.82025 l 3.13457,-0.62698 1.57784,-3.14759 1.57783,-3.14757 -0.6557,-4.34335 c -0.52219,-3.45902 -0.79887,-4.58765 -1.35889,-5.54324 l -0.70318,-1.1999 1.02348,-1.11035 c 0.84695,-0.91882 1.08411,-1.43165 1.37497,-2.97314 0.34309,-1.8183 0.3351,-1.89511 -0.33433,-3.21616 -0.64961,-1.28196 -0.78044,-1.38461 -2.47953,-1.94542 -0.98654,-0.32562 -1.93553,-0.64419 -2.10885,-0.70794 -0.17332,-0.0637 -0.73479,0.46823 -1.2477,1.18216 -1.03767,1.44437 -2.45456,2.13851 -3.10909,1.52316 -0.19534,-0.18364 -1.59183,-0.65497 -3.103306,-1.04738 l -2.748142,-0.71349 -2.865112,0.71079 c -1.575811,0.39094 -2.992536,0.86434 -3.148277,1.05199 -0.525011,0.6326 -1.990651,-0.0798 -2.93936,-1.42871 -0.470948,-0.66961 -0.887603,-1.25954 -0.925899,-1.31094 -0.0383,-0.0514 -1.009205,0.21944 -2.157571,0.60188 l -2.087941,0.69535 -0.728766,1.52475 -0.728765,1.52476 0.438292,1.70982 c 0.322909,1.25968 0.693267,1.97328 1.406811,2.7106 l 0.968518,1.00079 -0.72495,1.28965 c -0.583602,1.0382 -0.847257,2.13275 -1.352249,5.6138 l -0.6273,4.32414 1.510765,3.18835 1.510763,3.18835 3.681997,0.78083 3.681995,0.78082 0.760315,1.41839 0.760314,1.41838 1.356353,-0.21094 c 0.745992,-0.11601 1.713539,-0.20917 2.150102,-0.207 z m -3.640064,-1.48681 -0.430866,-1.09687 1.241714,-0.53484 c 3.091674,-1.33167 2.680988,-1.29684 4.833167,-0.4099 1.080638,0.44534 2.013192,0.84601 2.072342,0.89038 0.0592,0.0444 -0.10969,0.56243 -0.375212,1.15125 l -0.482761,1.07057 -1.212284,-0.20172 c -1.508183,-0.25096 -2.462159,-0.2462 -4.007511,0.02 l -1.207725,0.20803 -0.430864,-1.09688 z m -2.246916,-2.66419 c -1.720191,-1.26665 -1.621351,-2.20339 0.772944,-7.32539 l 1.897422,-4.05907 -0.447077,-1.41829 c -0.4841,-1.53574 -0.530656,-1.56516 -2.983159,-1.88489 -2.035646,-0.26539 -2.103702,-0.3651 -1.313545,-1.9244 0.768591,-1.51674 0.837639,-1.89726 0.344265,-1.89726 -0.357727,0 -2.041162,3.16822 -2.041162,3.84146 0,0.21553 0.231097,0.39187 0.513551,0.39187 0.642014,0 0.870733,0.34943 1.212284,1.85208 l 0.270626,1.19063 1.778574,-0.0896 1.778572,-0.0896 -0.653368,1.41022 c -0.359352,0.77563 -0.765683,1.44767 -0.902956,1.49343 -0.137277,0.0457 -0.95544,-0.27312 -1.818143,-0.70861 l -1.568553,-0.7918 -0.849456,-2.67963 c -1.137163,-3.5872 -1.459987,-3.41118 -1.554718,0.84772 l -0.0738,3.31767 0.99984,0.86676 c 2.180415,1.89019 3.283458,2.95919 3.170248,3.0724 -0.06532,0.0653 -1.056637,-0.33242 -2.202924,-0.88388 -1.855372,-0.89259 -2.127721,-1.11884 -2.481029,-2.06114 -0.905069,-2.41386 -1.326044,-2.17569 -1.313903,0.74337 l 0.009,2.1672 3.301285,2.48849 c 1.815706,1.36866 3.258212,2.53155 3.20557,2.5842 -0.05264,0.0526 -1.190013,-0.15624 -2.52749,-0.46419 l -2.431775,-0.5599 -1.441305,-2.87388 -1.441304,-2.87388 0.628592,-4.08072 0.628591,-4.08072 1.609347,-2.75336 c 1.451197,-2.48279 1.850642,-2.94689 4.064799,-4.72275 2.31692,-1.85827 2.604728,-2.00839 5.101286,-2.66082 l 2.645834,-0.69144 2.645833,0.69229 c 2.494027,0.65257 2.786307,0.80491 5.094377,2.65529 2.19462,1.75944 2.61816,2.2496 4.0842,4.72664 l 1.63566,2.76364 0.61121,4.05087 0.61122,4.05087 -1.29742,2.65309 c -0.71359,1.4592 -1.33824,2.7638 -1.38813,2.8991 -0.0499,0.13531 -1.19729,0.48465 -2.54978,0.77633 -1.79956,0.38808 -2.38274,0.43832 -2.17441,0.1873 0.15657,-0.18866 1.59058,-1.32975 3.18669,-2.53575 l 2.902,-2.19274 v -2.35613 c 0,-2.70826 -0.3158,-2.93498 -1.1243,-0.80718 -0.48943,1.28807 -0.5992,1.38593 -2.61634,2.33252 -1.15801,0.54342 -2.16422,0.92929 -2.23602,0.85749 -0.0718,-0.0718 0.82025,-0.94916 1.98235,-1.94968 l 2.1129,-1.81915 -0.0515,-3.43958 c -0.0312,-2.08234 -0.15589,-3.43958 -0.31607,-3.43958 -0.14552,0 -0.6284,1.13109 -1.07305,2.51354 l -0.80847,2.51354 -1.77576,0.97274 -1.77577,0.97273 -0.49068,-0.97273 c -0.26986,-0.53501 -0.57742,-1.25299 -0.68345,-1.59551 -0.19034,-0.6149 -0.17157,-0.62159 1.48543,-0.52917 l 1.67821,0.0936 0.30895,-1.24359 c 0.39042,-1.57152 0.53592,-1.79912 1.15022,-1.79912 0.27387,0 0.56848,-0.11413 0.65469,-0.25363 0.18161,-0.29385 -1.61222,-3.9797 -1.93684,-3.9797 -0.54458,0 -0.49034,0.43734 0.23161,1.86751 0.89158,1.76621 1.04454,1.60724 -2.01961,2.09896 l -1.87953,0.30162 -0.40771,1.46481 -0.407709,1.46481 1.183449,2.55271 c 0.65089,1.40398 1.47178,3.12803 1.8242,3.83121 0.45588,0.90961 0.63915,1.71121 0.63513,2.77813 -0.005,1.43878 -0.0474,1.52913 -1.03447,2.22722 -0.56583,0.40018 -1.13227,0.7276 -1.25875,0.7276 -0.45138,0 -3.908276,-1.55581 -3.987945,-1.79482 -0.04466,-0.13398 0.559972,-0.73826 1.343626,-1.34284 2.530749,-1.95246 2.520249,-1.92403 1.228717,-3.32517 -0.613482,-0.66555 -1.227265,-1.21009 -1.363962,-1.21009 -0.136697,0 -0.632044,0.29252 -1.100772,0.65003 l -0.852231,0.65003 -0.783762,-0.64051 c -1.023324,-0.8363 -1.193046,-0.82037 -2.134722,0.20035 -1.621211,1.75729 -1.654371,1.56629 0.590357,3.40052 l 2.039318,1.66639 -1.668261,0.74494 c -2.50276,1.11757 -2.648321,1.12486 -3.909931,0.19589 z m 1.785938,-0.64993 c 0,-0.21828 -0.178594,-0.39687 -0.396875,-0.39687 -0.218281,0 -0.396875,0.17859 -0.396875,0.39687 0,0.21828 0.178594,0.39688 0.396875,0.39688 0.218281,0 0.396875,-0.1786 0.396875,-0.39688 z m 8.995835,0.14791 c 0,-0.35729 -0.48232,-0.60497 -0.79807,-0.40982 -0.14789,0.0914 -0.2004,0.27702 -0.11667,0.41249 0.19861,0.32136 0.91474,0.31927 0.91474,-0.003 z m -1.058335,-1.48644 c 0,-0.43658 -0.418158,-0.51034 -0.661458,-0.11668 -0.215771,0.34913 0.100597,0.84457 0.415157,0.65016 0.135465,-0.0837 0.246301,-0.32379 0.246301,-0.53348 z m 1.852085,0 c 0,-0.43658 -0.41816,-0.51034 -0.66146,-0.11668 -0.21577,0.34913 0.1006,0.84457 0.41516,0.65016 0.13546,-0.0837 0.2463,-0.32379 0.2463,-0.53348 z m -10.583335,0.16352 c 0,-0.35728 -0.48232,-0.60496 -0.798066,-0.40982 -0.147894,0.0914 -0.2004,0.27702 -0.116675,0.41249 0.198614,0.32136 0.914741,0.31928 0.914741,-0.003 z m 1.601475,-0.14791 c -0.02074,-0.39271 -0.612674,-0.32056 -0.750001,0.0914 -0.07418,0.22254 0.04677,0.32173 0.322654,0.26458 0.242729,-0.0503 0.435033,-0.21047 0.427347,-0.356 z m 3.690192,-8.33437 c 0,-2.17546 -0.07056,-2.64583 -0.396875,-2.64583 -0.326319,0 -0.396875,0.47037 -0.396875,2.64583 0,2.17546 0.07056,2.64583 0.396875,2.64583 0.326318,0 0.396875,-0.47037 0.396875,-2.64583 z m 1.1573,-4.38824 c 0.673172,-0.37625 1.22395,-0.77312 1.22395,-0.88195 0,-0.48849 -0.404704,-0.48991 -1.355678,-0.005 l -1.025572,0.52321 v -0.9079 c 0,-0.68888 0.19626,-1.07305 0.81353,-1.59244 l 0.813528,-0.68454 1.236993,0.70948 c 0.680347,0.39021 1.471847,0.86627 1.758887,1.05789 0.66545,0.44426 1.1979,0.44611 1.1979,0.004 0,-0.35336 -3.647162,-2.56618 -4.229568,-2.56618 -0.17834,0 -0.682466,0.30141 -1.12028,0.66981 l -0.79602,0.66981 -0.878166,-0.66981 c -0.482991,-0.3684 -1.009012,-0.66981 -1.168939,-0.66981 -0.54351,0 -4.236816,2.24726 -4.239639,2.57969 -0.0046,0.54149 0.505693,0.38838 2.459098,-0.73784 l 1.853401,-1.06856 0.752764,0.72119 c 0.532966,0.51061 0.752761,0.97911 0.752761,1.60452 v 0.88334 l -0.780611,-0.40367 c -1.606688,-0.83085 -1.920468,-0.077 -0.343154,0.82441 1.315371,0.75172 1.633477,0.7455 3.074815,-0.0601 z m -5.147863,-5.71071 c 1.622904,-1.31316 1.717723,-1.35239 2.377419,-0.98384 0.430813,0.24068 0.718894,0.65799 0.772335,1.1188 0.09866,0.85071 0.627758,0.81232 0.833803,-0.0605 0.07694,-0.3259 0.457438,-0.78522 0.84556,-1.02072 0.695362,-0.42193 0.730166,-0.40814 2.379845,0.94289 1.588369,1.30081 2.337849,1.66393 2.337849,1.13266 0,-0.13112 -0.68461,-0.81862 -1.52135,-1.52778 -2.519918,-2.13569 -2.280274,-2.03399 -3.421282,-1.45189 -1.006919,0.51369 -1.021495,0.51367 -2.027399,-0.002 l -1.013185,-0.5198 -1.879883,1.55908 c -1.033933,0.8575 -1.926537,1.69906 -1.983563,1.87013 -0.222448,0.66735 0.68375,0.251 2.299851,-1.05665 z m -6.658917,17.05461 c -1.879105,-1.43443 -2.31117,-1.89456 -2.294215,-2.44323 0.01148,-0.37178 0.08314,-0.52054 0.159226,-0.33058 0.07609,0.18996 1.138251,0.80735 2.360361,1.37197 l 2.222024,1.02657 v 1.07543 c 0,0.59149 -0.02977,1.07355 -0.06615,1.07126 -0.03638,-0.002 -1.107942,-0.79944 -2.38125,-1.77142 z m 18.057818,0.74393 v -1.03165 l 2.38125,-1.15967 c 1.9699,-0.95935 2.38125,-1.08158 2.38125,-0.70757 0,0.37168 -4.1962,3.93055 -4.63443,3.93055 -0.0704,0 -0.12807,-0.46425 -0.12807,-1.03166 z m -9.657297,-0.68187 -1.322916,-1.16144 0.704696,-0.71641 0.704694,-0.7164 0.720048,0.56639 c 0.89127,0.70107 1.192868,0.70657 2.0438,0.0372 0.881087,-0.69306 1.046165,-0.67124 1.709492,0.22596 l 0.558284,0.75512 -1.26496,0.96467 c -1.461384,1.11447 -1.604179,1.15323 -1.604179,0.4355 0,-0.76073 -0.742493,-0.65422 -0.842323,0.12083 -0.08203,0.63691 -0.110376,0.6266 -1.406636,-0.51144 z m -7.085441,-4.18056 c -1.753423,-1.60949 -1.7936,-1.6758 -1.785938,-2.9474 0.0084,-1.39474 0.230916,-1.41723 0.692635,-0.07 0.214209,0.62503 0.722249,1.09293 1.984375,1.8276 0.933048,0.54312 1.801487,1.02497 1.929863,1.07078 0.261508,0.0933 -0.535268,1.7838 -0.835518,1.77267 -0.105404,-0.004 -0.998841,-0.74805 -1.985417,-1.65365 z m 15.462288,0.98685 c -0.16888,-0.37065 -0.30705,-0.78587 -0.30705,-0.92272 0,-0.13684 0.83343,-0.66852 1.85208,-1.1815 1.01864,-0.51298 1.85745,-1.08002 1.86401,-1.26009 0.007,-0.18008 0.17549,-0.6846 0.37539,-1.12116 0.36118,-0.78878 0.36353,-0.78465 0.37607,0.66146 l 0.0126,1.45521 -1.75346,1.52135 c -0.9644,0.83675 -1.83427,1.52136 -1.93303,1.52136 -0.0988,0 -0.31775,-0.30326 -0.48663,-0.67391 z m -13.669699,-6.47525 c -0.241612,-1.10005 0.05394,-1.32969 0.66902,-0.51981 0.444437,0.5852 0.561671,0.61912 1.066004,0.30845 0.646054,-0.39798 0.695428,-0.37698 0.820695,0.34906 0.079,0.45788 -0.07478,0.5399 -1.141479,0.60883 -1.188844,0.0768 -1.239247,0.0502 -1.41424,-0.74653 z m 12.105869,0.62393 c -0.39088,-0.15773 -0.43871,-0.78514 -0.0769,-1.00875 0.1396,-0.0863 0.50206,-0.004 0.80546,0.18283 0.48535,0.29886 0.61313,0.26019 1.06322,-0.32177 0.49843,-0.64447 0.51171,-0.64673 0.51744,-0.0878 0.0109,1.06121 -0.27829,1.41164 -1.1469,1.38982 -0.45737,-0.0115 -0.98041,-0.0809 -1.16232,-0.15434 z m -18.226848,-6.77009 c -0.515496,-0.5527 -0.911548,-1.36083 -1.108618,-2.26212 -0.280913,-1.28474 -0.254881,-1.504 0.310661,-2.6168 0.551735,-1.08564 0.773962,-1.26305 2.093423,-1.6713 1.465157,-0.45333 1.477285,-0.45256 1.626465,0.10325 0.08266,0.308 0.151926,0.97999 0.153913,1.49331 0.0021,0.51332 0.198732,1.21189 0.437214,1.55237 0.4166,0.59478 0.401815,0.64876 -0.377092,1.37671 -0.445881,0.41671 -1.079643,1.23619 -1.408364,1.82107 -0.328718,0.58487 -0.671452,1.06341 -0.76163,1.06341 -0.09018,0 -0.524867,-0.38695 -0.965972,-0.8599 z m 24.804228,-0.20351 c -0.32872,-0.58488 -0.97037,-1.41173 -1.42589,-1.83745 -0.77403,-0.72339 -0.80001,-0.80529 -0.39708,-1.25169 0.24022,-0.26615 0.51404,-1.2129 0.61836,-2.13804 0.17315,-1.53568 0.2293,-1.64711 0.74759,-1.48356 2.19072,0.69129 2.43272,0.84509 3.03939,1.9316 0.5947,1.06509 0.60956,1.20462 0.28918,2.71435 -0.24964,1.17635 -0.55123,1.79166 -1.1561,2.35865 -0.45009,0.4219 -0.88572,0.76765 -0.96806,0.76832 -0.0824,8e-4 -0.41867,-0.47731 -0.74739,-1.06218 z m -20.657131,-3.6817 c -0.15064,-0.28147 -0.270105,-0.84702 -0.265477,-1.25677 0.0075,-0.66749 0.04419,-0.69791 0.352293,-0.29238 0.189132,0.24894 0.689977,0.58421 1.112991,0.74504 l 0.769114,0.29242 -0.658384,0.50585 c -0.828728,0.63673 -0.972555,0.63737 -1.310537,0.006 z m 16.887191,0.003 -0.62462,-0.50861 0.77218,-0.29554 c 0.42471,-0.16254 0.92694,-0.49922 1.11607,-0.74816 0.30279,-0.39854 0.34488,-0.34039 0.35229,0.48666 0.008,0.86129 -0.35865,1.57427 -0.80894,1.57427 -0.10029,0 -0.46343,-0.22888 -0.80698,-0.50862 z"
         id="path5322"
         inkscape:connector-curvature="0" />
      <path
         style="fill:#8dcfb1;stroke-width:0.26458335"
         d="m 91.305592,207.15573 c -6.174597,-1.11926 -11.309705,-3.77176 -15.591689,-8.05374 -13.739054,-13.73905 -10.805802,-36.23645 6.004642,-46.05428 6.91084,-4.03614 16.369789,-4.90685 23.904905,-2.20047 9.30489,3.34203 16.01333,10.69253 18.62895,20.41192 0.61792,2.29613 0.6885,3.03306 0.6885,7.18861 0,4.16747 -0.0695,4.88874 -0.69573,7.21713 -2.16941,8.06642 -7.53429,14.8149 -14.76011,18.56675 -5.54333,2.87826 -12.372528,3.9767 -18.179468,2.92408 z m 6.671149,-12.16481 1.755394,0.32987 0.753405,-1.4912 0.7534,-1.4912 3.66711,-0.79461 3.66711,-0.79461 1.55132,-3.17414 1.55132,-3.17414 -0.65284,-4.3763 c -0.54171,-3.63138 -0.77589,-4.57123 -1.37573,-5.52144 l -0.72289,-1.14514 0.96208,-0.98525 c 0.64575,-0.66131 1.08728,-1.45571 1.34287,-2.41606 0.52918,-1.98831 0.48001,-2.56356 -0.3467,-4.05666 -0.66977,-1.20965 -0.85299,-1.347 -2.5589,-1.91823 -1.01061,-0.33841 -1.92957,-0.61529 -2.04214,-0.61529 -0.11256,0 -0.59538,0.5338 -1.07294,1.18623 -0.94427,1.29005 -2.53054,2.05238 -3.17499,1.52583 -0.18652,-0.1524 -1.57222,-0.6072 -3.079336,-1.01068 l -2.740216,-0.73359 -2.437408,0.5876 c -1.340575,0.32318 -2.778992,0.76482 -3.196484,0.98142 -1.176155,0.61019 -2.132319,0.25082 -3.254417,-1.22317 -0.537403,-0.70593 -1.102733,-1.29029 -1.256287,-1.29858 -0.153556,-0.008 -1.106056,0.26182 -2.116667,0.60023 -1.699879,0.56921 -1.89262,0.71286 -2.573872,1.91823 -0.57922,1.02484 -0.707514,1.52882 -0.60108,2.36127 0.252209,1.97258 0.701775,3.05331 1.616302,3.88552 0.501492,0.45634 0.9118,0.93201 0.9118,1.05704 0,0.12503 -0.303668,0.70837 -0.674818,1.29631 -0.544171,0.86202 -0.80328,1.93155 -1.338347,5.52428 l -0.66353,4.4553 1.592903,3.17764 1.5929,3.17763 1.266799,0.27014 c 0.69674,0.14858 2.328156,0.48683 3.625368,0.75168 2.509499,0.51236 2.364764,0.40549 3.628113,2.67897 l 0.430432,0.77459 1.727785,-0.32468 c 1.371073,-0.25766 2.0902,-0.25658 3.483181,0.005 z m -5.399114,-1.70442 -0.53889,-1.05631 1.162013,-0.51402 c 2.85301,-1.26202 2.867155,-1.26328 4.921186,-0.43639 1.034228,0.41635 1.935694,0.84645 2.003264,0.95578 0.0676,0.10933 -0.0788,0.62171 -0.325318,1.13862 -0.434282,0.91069 -0.481592,0.93382 -1.525741,0.74577 -1.394225,-0.25109 -2.944437,-0.24547 -4.175924,0.0151 -0.951863,0.20143 -0.998078,0.17564 -1.52059,-0.84857 z m -2.32636,-2.72567 c -1.69714,-1.25352 -1.605759,-2.11172 0.759844,-7.13609 l 1.884323,-4.00216 -0.342744,-1.42872 c -0.382744,-1.59545 -0.608587,-1.78018 -2.49986,-2.0448 -0.727604,-0.10181 -1.586783,-0.24799 -1.909289,-0.32484 l -0.586372,-0.13975 0.652518,-1.28768 c 0.724865,-1.43045 0.824381,-2.09902 0.31243,-2.09902 -0.349049,0 -2.041162,3.16077 -2.041162,3.81278 0,0.19975 0.293388,0.43682 0.651975,0.52682 0.495515,0.12436 0.720884,0.43286 0.939107,1.28545 0.502955,1.96506 0.362728,1.86237 2.264757,1.65868 l 1.732404,-0.18553 -0.709284,1.41184 c -0.390107,0.77651 -0.756931,1.46388 -0.815166,1.52749 -0.05823,0.0636 -0.864618,-0.28972 -1.791964,-0.78519 l -1.686087,-0.90087 -0.795657,-2.52209 c -1.131219,-3.58576 -1.490459,-3.40056 -1.583667,0.81642 l -0.07379,3.33852 2.132758,1.92265 c 1.17302,1.05746 2.081747,1.97367 2.019398,2.03602 -0.06235,0.0623 -1.050054,-0.3576 -2.194901,-0.93322 -1.984232,-0.99765 -2.104255,-1.10975 -2.567493,-2.39797 -0.773314,-2.15051 -1.226558,-1.79104 -1.226558,0.97278 v 2.32417 l 3.293891,2.49583 c 1.811641,1.3727 3.26346,2.52626 3.226268,2.56345 -0.03719,0.0372 -0.477644,-0.0395 -0.978786,-0.17042 -0.50114,-0.13093 -1.605384,-0.37626 -2.453871,-0.54519 l -1.542708,-0.30714 -1.416889,-2.95337 -1.416889,-2.95337 0.647809,-4.03813 0.647808,-4.03813 1.650328,-2.75795 c 1.478423,-2.47067 1.906712,-2.96179 4.111615,-4.71483 2.352098,-1.87007 2.575904,-1.98394 5.045022,-2.56682 l 2.583738,-0.60994 2.555563,0.61609 c 2.426214,0.58491 2.679744,0.71499 5.009144,2.5701 2.18049,1.73652 2.64016,2.26186 4.12991,4.71989 l 1.67633,2.76588 0.62597,4.12301 0.62597,4.12301 -1.42335,2.83808 -1.42336,2.83809 -2.15373,0.46534 c -1.18455,0.25594 -2.20539,0.41369 -2.26851,0.35056 -0.0631,-0.0631 1.28443,-1.18313 2.99458,-2.4889 l 3.10936,-2.37414 V 183.724 c 0,-2.70245 -0.47299,-3.01569 -1.30432,-0.8638 -0.50995,1.32001 -0.60392,1.40334 -2.58898,2.29608 -1.13291,0.50949 -2.05983,0.84511 -2.05983,0.74582 0,-0.0993 0.89297,-0.95343 1.98438,-1.89808 l 1.98437,-1.71755 v -3.5289 c 0,-4.3047 -0.26468,-4.42481 -1.5875,-0.72039 l -0.92604,2.5933 -1.45521,0.74824 c -0.80036,0.41154 -1.5425,0.75386 -1.64919,0.76073 -0.1834,0.0118 -1.52581,-2.4322 -1.52581,-2.77791 0,-0.0892 0.75237,-0.0816 1.67194,0.0169 l 1.67194,0.17905 0.33385,-1.4918 c 0.29786,-1.331 0.4171,-1.50846 1.10618,-1.64627 0.42479,-0.085 0.77234,-0.26163 0.77234,-0.39259 0,-0.6119 -1.90152,-3.92907 -2.25228,-3.92907 -0.5482,0 -0.49605,0.34448 0.28569,1.88718 0.37359,0.73724 0.6311,1.38859 0.57225,1.44744 -0.0588,0.0589 -0.811,0.22877 -1.67144,0.3776 -0.86043,0.14883 -1.80948,0.3235 -2.10899,0.38816 -0.39232,0.0847 -0.67475,0.53052 -1.010169,1.5946 l -0.465593,1.47703 1.870062,3.95741 c 1.52504,3.2273 1.87006,4.19687 1.87006,5.25531 0,1.19221 -0.0839,1.36432 -1.03027,2.11387 -0.56664,0.44879 -1.10514,0.81598 -1.19666,0.81598 -0.35614,0 -4.123076,-1.67037 -4.123076,-1.82829 0,-0.0921 0.833438,-0.81717 1.852083,-1.61129 1.018646,-0.79413 1.852083,-1.57045 1.852083,-1.72518 0,-0.15472 -0.538178,-0.80949 -1.195953,-1.45505 -1.110641,-1.09001 -1.238038,-1.14762 -1.785937,-0.80753 -0.324491,0.20141 -0.782982,0.48573 -1.018866,0.63181 -0.318061,0.19696 -0.636273,0.11792 -1.231469,-0.30589 -0.441423,-0.31432 -0.898763,-0.5715 -1.016312,-0.5715 -0.322043,0 -2.483858,2.1858 -2.475026,2.50249 0.0042,0.1516 0.901594,0.97569 1.994148,1.83132 1.092555,0.85562 1.9523,1.58535 1.910544,1.62162 -0.144505,0.12552 -4.035201,1.71745 -4.171951,1.70701 -0.07552,-0.006 -0.643318,-0.38423 -1.261782,-0.84104 z m 1.785938,-0.6193 c 0,-0.38893 -0.564856,-0.52196 -0.87965,-0.20717 -0.23927,0.23927 0.353701,0.91348 0.645046,0.73342 0.129032,-0.0798 0.234604,-0.31656 0.234604,-0.52625 z m 8.995835,-0.004 c 0,-0.24639 -0.18002,-0.38136 -0.4411,-0.33073 -0.663775,0.12874 -0.754919,0.74701 -0.11012,0.74701 0.325,0 0.55122,-0.17084 0.55122,-0.41628 z m -9.907629,-0.92969 c 0.272658,-0.44117 -0.340574,-0.94708 -0.70557,-0.58209 -0.305308,0.30531 -0.114226,0.86972 0.294447,0.86972 0.128344,0 0.313349,-0.12943 0.411123,-0.28763 z m 1.852083,0 c 0.272659,-0.44117 -0.340574,-0.94708 -0.705569,-0.58209 -0.305308,0.30531 -0.114226,0.86972 0.294447,0.86972 0.128344,0 0.313348,-0.12943 0.411122,-0.28763 z m 7.096736,-0.11926 c 0.0899,-0.2343 -0.0151,-0.47262 -0.247689,-0.56185 -0.517686,-0.19866 -0.753922,0.0402 -0.554283,0.56046 0.200842,0.52339 0.601395,0.52408 0.801972,0.001 z m 1.75256,-0.27018 c 0,-0.20969 -0.1786,-0.38126 -0.39688,-0.38126 -0.39852,0 -0.5439,0.55853 -0.22768,0.87475 0.24692,0.24692 0.62456,-0.0515 0.62456,-0.49349 z m -5.291668,-8.31876 c 0,-2.17546 -0.07056,-2.64583 -0.396875,-2.64583 -0.326319,0 -0.396875,0.47037 -0.396875,2.64583 0,2.17546 0.07056,2.64583 0.396875,2.64583 0.326318,0 0.396875,-0.47037 0.396875,-2.64583 z m 1.984375,-4.85627 c 0.412207,-0.31141 0.45907,-0.47088 0.212024,-0.7215 -0.248725,-0.25232 -0.46077,-0.22762 -0.98288,0.11448 -0.978286,0.641 -1.257916,0.54551 -1.164137,-0.39753 0.05415,-0.54454 0.340563,-1.02527 0.825711,-1.38592 l 0.742802,-0.55219 1.850643,1.01208 c 1.01785,0.55664 2.03059,0.94302 2.25053,0.85862 0.61043,-0.23424 0.29149,-0.52244 -2.04005,-1.8434 l -2.147419,-1.21665 -0.939917,0.77476 -0.939919,0.77476 -0.936591,-0.77202 -0.93659,-0.77202 -1.733564,0.96419 c -2.525993,1.40492 -2.659602,1.49859 -2.659602,1.86455 0,0.52787 0.460706,0.40168 2.394408,-0.65582 l 1.80853,-0.98905 0.742802,0.55231 c 0.542343,0.40326 0.765487,0.82179 0.826865,1.55087 l 0.08407,0.99856 -0.939135,-0.58042 c -0.886484,-0.54788 -1.477952,-0.5494 -1.477952,-0.004 0,0.13398 0.615674,0.59524 1.368168,1.02501 l 1.368168,0.78139 0.946936,-0.49075 c 0.520814,-0.26991 1.185061,-0.67064 1.476103,-0.89052 z m 3.556843,-4.22132 c -0.0136,-0.28465 -2.679609,-2.62794 -3.629691,-3.19029 -0.253013,-0.14975 -0.725297,-0.0394 -1.361075,0.31787 -0.967528,0.54379 -0.978495,0.54399 -1.754222,0.0326 -0.429334,-0.28301 -0.926378,-0.51534 -1.10454,-0.5163 -0.402632,-0.002 -4.041691,3.10435 -4.041691,3.45022 0,0.59457 0.960785,0.15985 2.397456,-1.08476 1.5415,-1.33542 1.544199,-1.33647 2.351032,-0.91924 0.570445,0.29498 0.807763,0.61004 0.807763,1.07237 0,0.40553 0.151029,0.65466 0.396875,0.65466 0.245845,0 0.396875,-0.24913 0.396875,-0.65466 0,-0.45967 0.236206,-0.77681 0.793022,-1.06475 0.788921,-0.40797 0.802135,-0.40257 2.553793,1.04227 1.659163,1.36856 2.229323,1.592 2.194403,0.85997 z m -16.124552,16.05803 c -3.127626,-2.41382 -3.132204,-2.99756 -0.01159,-1.47782 l 2.392839,1.16532 v 1.03165 c 0,0.56741 -0.02977,1.02826 -0.06615,1.0241 -0.03638,-0.004 -1.078177,-0.78862 -2.315104,-1.74325 z m 17.991672,0.60191 c 0,-0.84911 0.0869,-0.92479 2.18281,-1.90076 1.20054,-0.55904 2.27028,-1.14336 2.3772,-1.29849 0.11106,-0.16116 0.19612,-0.0452 0.19843,0.27045 0.003,0.3796 -0.65417,1.06273 -2.09918,2.18282 -1.15678,0.89666 -2.22834,1.6303 -2.38125,1.6303 -0.15291,0 -0.27801,-0.39795 -0.27801,-0.88432 z m -9.789588,-0.69674 -1.190625,-1.0361 0.70113,-0.70945 0.70113,-0.70946 0.906314,0.69128 0.906312,0.69128 0.896379,-0.66133 0.896379,-0.66132 0.671179,0.68449 0.671177,0.6845 -1.17424,1.02292 c -1.137385,0.99083 -1.18306,1.00568 -1.455208,0.47338 -0.351613,-0.68773 -0.783529,-0.66742 -0.894683,0.042 -0.114512,0.73089 -0.258559,0.68577 -1.635244,-0.51224 z m -6.725018,-3.89307 c -1.679411,-1.45158 -1.741162,-1.54849 -1.728015,-2.71198 l 0.01363,-1.2066 0.393044,0.94581 c 0.321254,0.77307 0.729522,1.1086 2.235324,1.83705 1.013254,0.49019 1.842281,0.93368 1.842281,0.98556 0,0.18489 -0.809239,1.65554 -0.910979,1.65554 -0.057,0 -0.887381,-0.67742 -1.845289,-1.50538 z m 15.188166,0.70314 c -0.18276,-0.44123 -0.2865,-0.84015 -0.23053,-0.8865 0.056,-0.0463 0.86263,-0.48475 1.79259,-0.97424 1.28055,-0.67402 1.79325,-1.11697 2.11294,-1.82548 l 0.42212,-0.9355 0.0939,1.05833 c 0.0896,1.01051 0.0126,1.13306 -1.70381,2.71198 -0.98872,0.90951 -1.87804,1.65365 -1.97627,1.65365 -0.0982,0 -0.32812,-0.36101 -0.51089,-0.80224 z m -13.493843,-5.86328 c -0.0021,-0.19027 -0.07057,-0.6436 -0.152395,-1.0074 l -0.148778,-0.66146 0.525531,0.59531 c 0.553599,0.62711 1.224407,0.77511 1.499045,0.33073 0.300672,-0.4865 0.699272,-0.27169 0.613714,0.33073 -0.07028,0.49488 -0.274248,0.60904 -1.209027,0.67667 -0.789744,0.0571 -1.125553,-0.0216 -1.12809,-0.26458 z m 12.108303,0.13313 c -0.51453,-0.13446 -0.56265,-0.3091 -0.22985,-0.83419 0.1883,-0.2971 0.31995,-0.2971 0.80581,0 0.50927,0.31141 0.62727,0.29237 0.95877,-0.15473 0.48127,-0.6491 0.72457,-0.4162 0.49998,0.47863 -0.17493,0.69698 -0.75941,0.84357 -2.03471,0.51029 z m -18.302903,-6.67643 c -0.466413,-0.48683 -0.870509,-1.33068 -1.090581,-2.2774 -0.324255,-1.3949 -0.308933,-1.58773 0.211251,-2.65842 0.494104,-1.01702 0.740408,-1.21506 2.069259,-1.66382 l 1.508398,-0.5094 0.15953,0.96466 c 0.08774,0.53056 0.16084,1.25294 0.162441,1.60528 0.0016,0.35234 0.209661,0.86908 0.462351,1.1483 0.439846,0.48602 0.428768,0.53002 -0.259744,1.03156 -0.395549,0.28814 -1.048782,1.11074 -1.451626,1.828 -0.402844,0.71725 -0.799465,1.30422 -0.88138,1.30437 -0.08192,1.5e-4 -0.482369,-0.34776 -0.889899,-0.77313 z M 107.777,171.37016 c -0.28607,-0.5457 -0.9291,-1.37673 -1.42895,-1.84672 -0.87139,-0.81936 -0.88991,-0.87542 -0.44978,-1.36176 0.26264,-0.29021 0.5245,-1.14152 0.61204,-1.98974 0.16929,-1.64028 0.22509,-1.67106 1.95843,-1.08045 0.93791,0.31957 1.30794,0.63631 1.80376,1.54396 0.58426,1.06954 0.60268,1.23269 0.29072,2.57451 -0.29211,1.25639 -1.56331,3.15239 -2.11358,3.15239 -0.0839,0 -0.38657,-0.44648 -0.67264,-0.99219 z m -20.607824,-3.81239 c -0.233,-0.33266 -0.423638,-0.87599 -0.423638,-1.20742 0,-0.57643 0.02111,-0.58249 0.486238,-0.13956 0.26743,0.25466 0.695291,0.58331 0.950801,0.73033 0.437023,0.25147 0.433311,0.2956 -0.0626,0.74439 -0.510373,0.46189 -0.54066,0.45782 -0.950801,-0.12774 z m 16.812264,0.08 -0.62348,-0.47952 0.82819,-0.34304 c 0.4555,-0.18868 0.9408,-0.53579 1.07845,-0.77137 0.19684,-0.33689 0.25018,-0.25888 0.2499,0.36542 -2.7e-4,0.68469 -0.49302,1.7318 -0.80646,1.71391 -0.0567,-0.003 -0.38369,-0.22166 -0.7266,-0.4854 z"
         id="path5320"
         inkscape:connector-curvature="0" />
      <path
         style="fill:#77c6a2;stroke-width:0.26458335"
         d="M 93.360122,207.37145 C 86.270037,206.638 80.039237,203.57023 75.089886,198.376 c -4.139554,-4.34436 -6.813415,-9.80321 -7.669446,-15.65764 -0.488307,-3.33955 -0.20351,-8.56589 0.643286,-11.805 2.607996,-9.97597 10.742798,-18.0879 20.744025,-20.68571 3.471989,-0.90184 8.691221,-1.12233 12.176129,-0.51439 10.93333,1.90732 19.86105,9.93617 22.92071,20.613 4.97587,17.36352 -6.75196,34.90402 -24.71362,36.96245 -2.202281,0.25238 -3.951058,0.2772 -5.830848,0.0827 z m 2.778125,-12.38085 c 0.873125,0.004 2.056265,0.063 2.629199,0.13229 1.026837,0.12412 1.053391,0.10516 1.861354,-1.32929 l 0.81966,-1.45521 3.58869,-0.76256 3.58869,-0.76257 1.55478,-3.14443 1.55478,-3.14442 -0.61295,-4.2951 c -0.50792,-3.55914 -0.74355,-4.52511 -1.37518,-5.63753 l -0.76223,-1.34245 1.00111,-0.97755 c 0.80247,-0.7836 1.0891,-1.34422 1.44464,-2.82563 l 0.44354,-1.84809 -0.71423,-1.45629 c -0.64911,-1.32351 -0.84782,-1.50657 -2.1795,-2.00785 -2.64054,-0.99395 -2.98007,-0.97091 -3.79295,0.25744 -0.39202,0.59239 -1.08599,1.27006 -1.54214,1.50595 -0.75296,0.38937 -0.9176,0.39126 -1.78707,0.0205 -1.31022,-0.55864 -4.91097,-1.49301 -5.753563,-1.49301 -0.878387,0 -5.680387,1.29402 -6.117955,1.64864 -0.549412,0.44526 -1.860058,-0.29018 -2.766481,-1.55235 -0.456054,-0.63504 -1.008919,-1.15462 -1.228587,-1.15462 -0.21967,0 -1.194877,0.2562 -2.167128,0.56933 -1.742252,0.56113 -1.779085,0.59259 -2.555719,2.18281 l -0.78799,1.61348 0.465815,1.81982 c 0.347808,1.35879 0.702929,2.06265 1.401783,2.77834 l 0.935967,0.95851 -0.7462,1.27768 c -0.621411,1.064 -0.845894,1.99315 -1.342342,5.55603 l -0.596141,4.27837 1.489967,3.1576 c 0.819481,1.73668 1.523381,3.19101 1.564222,3.23185 0.04084,0.0409 1.713455,0.42361 3.716917,0.8506 2.003462,0.42699 3.680037,0.81812 3.725725,0.86919 0.04569,0.0511 0.399373,0.72251 0.785971,1.49209 0.70284,1.39912 0.703001,1.39923 1.685476,1.19063 0.540414,-0.11475 1.696945,-0.20575 2.57007,-0.20225 z m -3.45567,-1.49269 c -0.230492,-0.44572 -0.36394,-0.95409 -0.296553,-1.12969 0.06739,-0.17561 0.963845,-0.65798 1.99213,-1.07194 l 1.869606,-0.75264 1.318178,0.56706 c 0.724996,0.31189 1.616568,0.68051 1.981267,0.81917 l 0.663085,0.25211 -0.448522,1.05051 c -0.415009,0.97202 -0.507828,1.03717 -1.242271,0.87196 -1.043305,-0.23469 -3.482952,-0.22792 -4.561004,0.0126 -0.772647,0.17243 -0.898017,0.11158 -1.275916,-0.61919 z m -2.299018,-2.91289 c -0.913633,-0.74725 -0.992092,-0.91944 -0.99097,-2.17489 0.0011,-1.13381 0.310192,-2.0206 1.836007,-5.26606 l 1.83479,-3.90265 -0.418296,-1.25672 c -0.230063,-0.6912 -0.523353,-1.39144 -0.651758,-1.5561 -0.128405,-0.16466 -1.17787,-0.44629 -2.332146,-0.62585 l -2.098683,-0.32648 0.773303,-1.5319 c 0.63187,-1.25173 0.708752,-1.58547 0.42037,-1.82481 -0.260702,-0.21636 -0.423159,-0.20562 -0.621684,0.0411 -0.403384,0.5013 -1.918121,3.58502 -1.918121,3.90494 0,0.15331 0.351605,0.34906 0.781344,0.43501 0.70127,0.14025 0.812377,0.30576 1.084181,1.61503 l 0.302836,1.45877 1.706166,-0.13696 c 0.93839,-0.0753 1.670899,-0.0604 1.627796,0.0332 -0.0431,0.0936 -0.3029,0.73518 -0.577331,1.42572 -0.274431,0.69054 -0.572088,1.25219 -0.661459,1.24809 -0.08937,-0.004 -0.869465,-0.39104 -1.733547,-0.85989 l -1.571056,-0.85246 -0.83234,-2.51354 c -0.561533,-1.69574 -0.975783,-2.54138 -1.273214,-2.59909 -0.393698,-0.0764 -0.440876,0.29237 -0.440876,3.44607 v 3.53162 l 1.985418,1.69021 c 1.09198,0.92962 1.939454,1.73618 1.883275,1.79236 -0.05618,0.0562 -0.950526,-0.2772 -1.987439,-0.74084 -1.798561,-0.8042 -1.906508,-0.90361 -2.346296,-2.16072 -0.854215,-2.44172 -1.641232,-1.93889 -1.647574,1.05264 l -0.004,1.91121 3.179186,2.45302 c 1.748552,1.34916 3.088005,2.4795 2.976563,2.51186 -0.111443,0.0324 -1.120199,-0.14561 -2.241677,-0.39549 l -2.039057,-0.45433 -1.373407,-2.77811 -1.373407,-2.77812 0.584266,-4.10104 0.584266,-4.10104 1.616049,-2.73945 c 1.447988,-2.45456 1.872673,-2.94585 4.083709,-4.72422 2.329794,-1.87389 2.610384,-2.02102 5.022307,-2.63347 l 2.55465,-0.6487 2.539839,0.61042 c 2.421008,0.58186 2.658348,0.70471 5.072748,2.62568 2.24345,1.78497 2.70722,2.30739 4.05828,4.57154 1.74716,2.92793 1.80249,3.10086 2.43073,7.59698 0.41009,2.93493 0.42063,3.44374 0.0877,4.23334 -0.37639,0.89274 -0.37908,0.88564 -0.51068,-1.34888 -0.1067,-1.81177 -0.21683,-2.26243 -0.56927,-2.32949 -0.31802,-0.0605 -0.5587,0.28331 -0.8841,1.26302 -0.42111,1.26783 -0.55311,1.39954 -2.2684,2.26334 -1.0017,0.50445 -1.94738,0.91718 -2.10152,0.91718 -0.15413,0 0.67633,-0.8443 1.84548,-1.87622 l 2.12573,-1.87623 v -2.99693 c 0,-1.64831 -0.0723,-3.18526 -0.1606,-3.41544 -0.37606,-0.97999 -0.89704,-0.31551 -1.71917,2.19268 l -0.85589,2.61119 -1.67048,0.82375 -1.67049,0.82376 -0.40714,-0.78732 c -0.22392,-0.43302 -0.51873,-1.08085 -0.65514,-1.43961 l -0.248,-0.6523 1.67997,0.15688 c 1.85517,0.17323 1.78477,0.23244 2.1451,-1.80419 0.14088,-0.79628 0.30441,-0.99072 0.94015,-1.11787 0.44094,-0.0882 0.7696,-0.32409 0.7696,-0.5524 0,-0.6177 -1.64984,-3.81539 -2.04721,-3.96788 -0.66309,-0.25445 -0.6362,0.5924 0.0626,1.9714 0.3835,0.75681 0.65551,1.41778 0.60446,1.46883 -0.0511,0.051 -1.04132,0.24996 -2.2006,0.44203 l -2.10779,0.34922 -0.513174,1.48479 -0.513173,1.4848 0.755377,1.68488 c 0.41545,0.92669 1.26992,2.75645 1.89882,4.06614 1.4841,3.09062 1.55624,4.4424 0.29037,5.44047 -0.47294,0.37289 -0.99383,0.75767 -1.15755,0.85508 -0.16371,0.0974 -1.2173,-0.2228 -2.341301,-0.71155 l -2.043636,-0.88866 1.87828,-1.51758 c 1.033052,-0.83466 1.877007,-1.65299 1.875457,-1.8185 -0.002,-0.16551 -0.537375,-0.88058 -1.190713,-1.58904 l -1.187887,-1.28811 -0.908304,0.6928 c -0.499567,0.38104 -0.983723,0.6928 -1.075901,0.6928 -0.09218,0 -0.57058,-0.30737 -1.063109,-0.68304 l -0.895512,-0.68304 -1.19902,1.27835 c -0.659461,0.70309 -1.201037,1.40966 -1.203502,1.57014 -0.0024,0.16049 0.824283,0.93439 1.837219,1.71979 1.012938,0.7854 1.846376,1.49617 1.852083,1.57948 0.0082,0.11997 -2.468467,1.23471 -3.826076,1.72208 -0.145521,0.0522 -0.711068,-0.27019 -1.256771,-0.71651 z m 1.564791,-0.38108 c 0.234992,-0.61238 -0.285004,-1.01732 -0.685969,-0.53419 -0.338964,0.40843 -0.185423,0.94885 0.269576,0.94885 0.141499,0 0.328877,-0.1866 0.416393,-0.41466 z m 8.99583,0 c 0.20853,-0.54341 -0.21,-0.94953 -0.67951,-0.65936 -0.39986,0.24713 -0.2157,1.07402 0.2392,1.07402 0.15466,0 0.3528,-0.1866 0.44031,-0.41466 z m -9.747472,-1.5255 c 0.0495,-0.2552 -0.0833,-0.44109 -0.315113,-0.44109 -0.491525,0 -0.788183,0.43131 -0.555551,0.80772 0.239326,0.38723 0.767604,0.16478 0.870664,-0.36663 z m 1.766539,0.0696 c 0,-0.20416 -0.20836,-0.41133 -0.463021,-0.46037 -0.456073,-0.0878 -0.644615,0.47359 -0.28112,0.83709 0.277339,0.27733 0.744141,0.041 0.744141,-0.37672 z m 7.143753,0.0184 c 0,-0.2143 -0.208363,-0.42976 -0.463024,-0.4788 -0.324869,-0.0626 -0.463021,0.0803 -0.463021,0.4788 0,0.3985 0.138152,0.54136 0.463021,0.47879 0.254661,-0.049 0.463024,-0.2645 0.463024,-0.47879 z m 1.9183,0.0663 c 0.14467,-0.43448 -0.68434,-0.74463 -1.03991,-0.38905 -0.15216,0.15216 -0.19259,0.41269 -0.0898,0.57895 0.23378,0.37825 0.98249,0.2524 1.12975,-0.1899 z m -5.225595,-8.51242 c 0,-2.39215 -0.295275,-3.18984 -0.972664,-2.62766 -0.456324,0.37872 -0.48914,4.74367 -0.03905,5.19376 0.673883,0.67389 1.011711,-0.18298 1.011711,-2.5661 z m 0.625636,-4.14279 c 1.382247,-0.77255 1.666666,-1.09959 1.286712,-1.47955 -0.175673,-0.17567 -0.539883,-0.1214 -1.088197,0.16214 l -0.824151,0.42619 v -0.75443 c 0,-0.46314 0.256053,-0.99497 0.663189,-1.37746 l 0.663191,-0.62303 1.122746,0.61404 c 0.617514,0.33773 1.483449,0.82895 1.924309,1.09161 0.55737,0.33207 0.92008,0.39973 1.19062,0.22207 0.50028,-0.3285 -0.12604,-0.87975 -2.521868,-2.21957 -1.829019,-1.02285 -2.147268,-1.01229 -3.158162,0.10473 l -0.506928,0.56015 -0.885211,-0.85798 -0.885209,-0.85798 -1.647611,0.8941 c -2.669238,1.44851 -3.174251,1.85924 -2.816304,2.29054 0.300537,0.36212 0.981988,0.0739 3.707527,-1.56814 0.661429,-0.39848 2.091378,0.78011 2.091378,1.72376 0,0.85424 -0.174403,0.91001 -1.011733,0.32352 -0.646805,-0.45303 -1.482198,-0.31444 -1.305205,0.21654 0.09714,0.29141 2.205109,1.71909 2.614343,1.77064 0.09081,0.0114 0.714766,-0.28641 1.386564,-0.66189 z m -4.913558,-5.79631 c 1.588344,-1.31839 1.798563,-1.41915 2.285852,-1.0956 0.29515,0.19597 0.603837,0.64097 0.685972,0.98889 0.194606,0.82437 1.150326,0.86769 1.265721,0.0574 0.04505,-0.31637 0.357709,-0.75593 0.694794,-0.97679 0.58538,-0.38356 0.691816,-0.33646 2.37227,1.04965 1.649298,1.36042 2.274978,1.58157 2.274978,0.80409 0,-0.18067 -0.84931,-1.02719 -1.88736,-1.88116 -1.841287,-1.51477 -1.90748,-1.54424 -2.711975,-1.2072 -0.453541,0.19001 -1.062747,0.34548 -1.353788,0.34548 -0.291042,0 -0.900248,-0.15547 -1.353789,-0.34548 -0.804494,-0.33704 -0.870688,-0.30757 -2.711979,1.2072 -1.787845,1.4708 -2.118767,1.92127 -1.710968,2.32907 0.27522,0.27523 0.298956,0.26114 2.150272,-1.27552 z m 13.916327,18.12066 c 1.6933,-1.30968 3.12961,-2.38125 3.1918,-2.38125 0.0622,0 -0.27651,0.85668 -0.75266,1.90373 l -0.86574,1.90374 -2.09517,0.46235 c -1.15235,0.25429 -2.19908,0.46918 -2.32607,0.47752 -0.12699,0.008 1.15454,-1.0564 2.84784,-2.36609 z m -20.542468,-1.3499 c -1.774785,-1.37275 -2.42937,-2.08968 -1.907963,-2.08968 0.07841,0 1.090438,0.43329 2.248958,0.96286 2.023317,0.92488 2.106401,0.99794 2.106401,1.85208 0,0.48908 -0.0893,0.88282 -0.198437,0.875 -0.109141,-0.008 -1.121172,-0.72795 -2.248959,-1.60026 z m 18.371208,0.69325 c 0.0803,-0.93069 0.1653,-1.00532 2.26629,-1.99108 1.32697,-0.62259 2.18282,-0.89811 2.18282,-0.70271 0,0.17679 -0.85935,0.9732 -1.90966,1.76979 -2.75527,2.08971 -2.63635,2.04644 -2.53945,0.924 z m -9.838395,-0.56145 c -0.654844,-0.51897 -1.240703,-0.99345 -1.301911,-1.05441 -0.06121,-0.0609 0.166975,-0.40702 0.507076,-0.76904 l 0.618361,-0.65822 0.864332,0.65926 c 0.475385,0.3626 0.939755,0.65926 1.031934,0.65926 0.09218,0 0.556548,-0.29666 1.031933,-0.65926 l 0.864333,-0.65926 0.633764,0.67461 0.633762,0.67462 -1.052729,0.90075 c -1.246818,1.06683 -1.343653,1.08979 -1.533557,0.36358 -0.178967,-0.68437 -0.777219,-0.53531 -0.967084,0.24096 -0.134427,0.54962 -0.18361,0.53583 -1.330214,-0.37285 z m -6.92912,-4.02239 c -1.62886,-1.38849 -1.767711,-1.5892 -1.774286,-2.56472 l -0.0071,-1.05833 0.354851,0.79375 c 0.24751,0.55365 0.884536,1.07387 2.105956,1.71979 1.840135,0.97312 1.929435,1.102 1.410415,2.03555 -0.316654,0.56955 -0.355502,0.55234 -2.089804,-0.92604 z m 15.274225,0.76332 c -0.22418,-0.43352 -0.4076,-0.83066 -0.4076,-0.88253 0,-0.0519 0.83074,-0.49621 1.8461,-0.98741 1.30316,-0.63042 1.91955,-1.0929 2.09578,-1.57247 0.23848,-0.64891 0.25061,-0.63699 0.27056,0.26583 0.0186,0.84085 -0.1678,1.11189 -1.68817,2.455 l -1.70907,1.5098 z m -13.689048,-6.3424 c -0.138946,-0.94669 0.04652,-1.05116 0.520041,-0.29293 0.398402,0.63795 0.682633,0.66389 1.233887,0.11264 0.378992,-0.37899 0.431337,-0.37797 0.580753,0.0114 0.215225,0.56087 0.141065,0.61439 -1.133669,0.81823 -1.052565,0.16831 -1.083458,0.15161 -1.201012,-0.64934 z m 12.582438,0.57614 c -0.67168,-0.0845 -0.80547,-0.20338 -0.69675,-0.61911 0.13393,-0.51216 0.60201,-0.72851 0.60201,-0.27826 0,0.52733 0.83829,0.51293 1.37485,-0.0236 0.45342,-0.45343 0.53287,-0.4747 0.39087,-0.10465 -0.098,0.25544 -0.17822,0.6333 -0.17822,0.83968 0,0.20638 -0.14883,0.35618 -0.33073,0.33289 -0.18191,-0.0233 -0.70482,-0.0894 -1.16203,-0.14692 z M 82.979035,171.6347 c -0.449222,-0.47336 -0.803804,-1.28233 -1.014748,-2.31511 -0.298085,-1.45943 -0.279106,-1.67596 0.235278,-2.68409 0.455245,-0.89222 0.791856,-1.17576 1.806131,-1.52136 0.685633,-0.23361 1.328068,-0.42476 1.42763,-0.42476 0.09956,0 0.260895,0.6796 0.358519,1.51022 0.09762,0.83062 0.366567,1.71914 0.597651,1.97449 0.388353,0.42912 0.359349,0.51542 -0.383246,1.14028 -0.441868,0.3718 -1.116156,1.20969 -1.498418,1.86197 -0.382259,0.65228 -0.727255,1.18596 -0.766654,1.18596 -0.0394,0 -0.382365,-0.32742 -0.762143,-0.7276 z m 25.013765,-0.0818 c -0.26261,-0.49643 -0.90419,-1.3451 -1.42574,-1.88591 -0.81287,-0.84289 -0.89538,-1.0362 -0.57781,-1.35376 0.20375,-0.20376 0.46171,-1.04285 0.57323,-1.86465 0.11152,-0.82181 0.27452,-1.56595 0.36223,-1.65365 0.0877,-0.0877 0.73974,0.0333 1.44897,0.26884 1.09061,0.36224 1.37513,0.60454 1.84462,1.57088 0.51767,1.06552 0.53085,1.24694 0.19544,2.68982 -0.24408,1.04998 -0.61417,1.80174 -1.15157,2.33914 l -0.79191,0.7919 z m -3.83939,-3.87873 c -0.38568,-0.43677 -0.34825,-0.51542 0.51146,-1.0748 l 0.92759,-0.60355 -0.18046,0.73584 c -0.28406,1.15835 -0.75595,1.51173 -1.25859,0.94251 z m -16.9588,-0.008 c -0.06123,-0.10914 -0.196247,-0.5524 -0.300037,-0.98501 -0.178158,-0.74256 -0.161701,-0.76331 0.294147,-0.37094 0.265573,0.22859 0.704628,0.49465 0.975678,0.59126 0.402841,0.14357 0.433157,0.24752 0.166042,0.56938 -0.348253,0.41962 -0.95177,0.52339 -1.13583,0.19531 z"
         id="path5318"
         inkscape:connector-curvature="0" />
      <path
         style="fill:#71c49e;stroke-width:0.26458335"
         d="m 93.360122,207.25891 c -3.604808,-0.30213 -6.300076,-1.07953 -9.921876,-2.8618 -6.705052,-3.29952 -11.595256,-8.61397 -14.382815,-15.63059 -1.082301,-2.72429 -1.656056,-5.6534 -1.820198,-9.29242 -0.378134,-8.38322 2.833275,-16.23088 9.094347,-22.22369 5.252815,-5.02776 12.469971,-7.90681 19.820634,-7.90681 8.900966,0 17.512756,4.31222 22.920506,11.47708 1.96644,2.6054 4.24504,7.21804 4.97266,10.06634 1.8392,7.19962 0.92309,14.87732 -2.54186,21.30254 -4.42528,8.20602 -13.26706,14.24085 -21.92369,14.9637 -1.018646,0.0851 -2.268802,0.19103 -2.778125,0.23549 -0.509323,0.0445 -2.057135,-0.014 -3.439583,-0.12984 z m 2.910416,-12.24504 c 0.509323,0 1.541958,0.0968 2.294742,0.215 l 1.368703,0.215 0.713647,-1.42045 c 0.39251,-0.78124 0.73789,-1.44909 0.76753,-1.4841 0.0296,-0.035 1.41429,-0.36391 3.07702,-0.73089 1.66273,-0.36699 3.29907,-0.72958 3.6363,-0.80576 0.48217,-0.10893 0.94752,-0.84703 2.17842,-3.45527 l 1.56527,-3.31675 -0.66598,-4.14821 c -0.4848,-3.01967 -0.85149,-4.49692 -1.34783,-5.42997 l -0.68185,-1.28175 0.92649,-0.9672 c 0.69473,-0.72528 1.04548,-1.43865 1.40219,-2.85195 l 0.47571,-1.88473 -0.77757,-1.52083 c -0.82405,-1.6117 -1.14981,-1.83766 -3.75866,-2.60718 l -1.39358,-0.41106 -0.97175,1.30163 c -1.0261,1.37442 -2.28003,2.0607 -2.87022,1.57088 -0.18319,-0.15203 -1.64945,-0.62912 -3.258347,-1.06018 l -2.925273,-0.78376 -2.82343,0.79281 c -1.552887,0.43604 -2.968408,0.91312 -3.145605,1.06018 -0.509601,0.42293 -1.777579,-0.15821 -2.455733,-1.12551 -1.421201,-2.02717 -1.094152,-1.92199 -3.492674,-1.12321 l -2.142234,0.71343 -0.783979,1.55305 -0.783979,1.55306 0.445688,1.85704 c 0.35587,1.48278 0.644441,2.05111 1.431878,2.82003 l 0.986189,0.96298 -0.741286,1.22472 c -0.614743,1.01566 -0.840398,1.92365 -1.32189,5.31909 -0.319333,2.2519 -0.629081,4.1728 -0.688332,4.26867 -0.05925,0.0959 0.609158,1.67295 1.48535,3.50463 1.812793,3.78965 1.149683,3.33024 6.385126,4.42364 2.383909,0.49787 2.848409,0.67692 2.971078,1.14524 0.07997,0.30532 0.393007,0.95648 0.695637,1.44703 0.545846,0.88481 0.561189,0.8902 1.923714,0.67628 0.755412,-0.1186 1.790197,-0.21563 2.29952,-0.21563 z m -3.551153,-1.70936 c -0.229676,-0.44415 -0.417597,-0.86188 -0.417597,-0.92829 0,-0.0664 0.879756,-0.48698 1.955009,-0.93461 l 1.955009,-0.81387 1.989746,0.83052 1.989748,0.83053 -0.429981,0.90167 c -0.428062,0.89766 -0.435912,0.90079 -1.761943,0.70222 -1.646499,-0.24655 -2.070812,-0.24494 -3.626345,0.0138 -1.1944,0.19866 -1.250116,0.17837 -1.653646,-0.60196 z m 6.329278,-2.78085 c -1.018645,-0.43947 -1.894353,-0.82868 -1.946013,-0.8649 -0.116242,-0.0815 1.625352,-1.63095 2.638576,-2.34745 0.411564,-0.29104 0.810824,-0.6871 0.887224,-0.88013 0.0764,-0.19303 -0.44341,-0.96142 -1.155149,-1.70754 l -1.294077,-1.35657 -1.045541,0.69191 -1.04554,0.69191 -0.7687,-0.62851 c -0.422783,-0.34567 -0.902361,-0.63278 -1.065728,-0.63802 -0.418301,-0.0134 -2.481093,2.27707 -2.481093,2.75494 0,0.21727 0.773906,1.0152 1.719791,1.77318 0.945886,0.75799 1.719792,1.458 1.719792,1.55557 0,0.18891 -3.135313,1.58176 -3.557654,1.58048 -0.1377,-5.3e-4 -0.703246,-0.31461 -1.256771,-0.69821 -1.581401,-1.09591 -1.454711,-2.16931 0.842354,-7.13696 l 1.848766,-3.99815 -0.417576,-1.42591 c -0.229669,-0.78425 -0.496065,-1.50919 -0.591995,-1.61098 -0.09593,-0.10179 -1.067385,-0.3283 -2.158791,-0.50334 -1.091406,-0.17504 -2.022144,-0.34781 -2.068309,-0.38393 -0.04616,-0.0361 0.229839,-0.68487 0.613342,-1.44168 0.701563,-1.38446 0.719883,-2.11619 0.05299,-2.11619 -0.470281,0 -2.412471,3.82889 -2.209924,4.35671 0.08564,0.22319 0.457107,0.40579 0.825478,0.40579 0.460918,0 0.670222,0.14438 0.671238,0.46302 7.94e-4,0.25467 0.129138,0.92279 0.285168,1.48472 l 0.283691,1.0217 1.699207,-0.10819 c 0.934564,-0.0595 1.699208,-0.076 1.699208,-0.0366 0,0.37159 -1.22912,2.46408 -1.441787,2.45453 -0.152902,-0.007 -0.924427,-0.34711 -1.7145,-0.7561 l -1.436491,-0.74361 -0.820807,-2.61734 c -0.549597,-1.75253 -0.949184,-2.61735 -1.209341,-2.61735 -0.319104,0 -0.401659,0.64571 -0.461984,3.61341 l -0.07345,3.6134 2.000137,1.74441 c 1.100074,0.95943 1.933826,1.74441 1.852784,1.74441 -0.08104,0 -0.955294,-0.40687 -1.94278,-0.90416 -1.538898,-0.77498 -1.866466,-1.06796 -2.292596,-2.05052 -0.713682,-1.6456 -0.92093,-1.8767 -1.357828,-1.5141 -0.246155,0.20429 -0.365157,0.9452 -0.372364,2.31836 -0.01011,1.92723 -0.02812,1.98584 -0.399735,1.30119 -0.347377,-0.63999 -0.330386,-1.12272 0.158305,-4.49791 0.633233,-4.37349 0.622001,-4.34015 2.529623,-7.50907 1.227521,-2.03915 1.79238,-2.67596 3.711692,-4.18449 2.595874,-2.04029 2.678599,-2.08204 5.520682,-2.78576 l 2.117267,-0.52425 2.398848,0.61037 c 2.802458,0.71307 2.584228,0.59899 5.369468,2.80701 1.88865,1.49723 2.38406,2.0793 3.82831,4.49791 l 1.65893,2.77813 0.6004,3.98099 c 0.51496,3.41441 0.55066,4.09101 0.2508,4.75402 -0.33075,0.73129 -0.35676,0.65322 -0.48191,-1.44651 -0.16602,-2.78539 -0.55865,-3.0221 -1.48855,-0.8974 -0.64895,1.48276 -0.75475,1.58188 -2.57069,2.40847 l -1.89389,0.86206 0.92605,-0.83348 c 0.50932,-0.45841 1.43205,-1.29938 2.05052,-1.86882 l 1.12448,-1.03534 v -3.26033 c 0,-2.43468 -0.0916,-3.33636 -0.36177,-3.56057 -0.53614,-0.44495 -0.80997,0.0188 -1.63002,2.76051 l -0.71567,2.39277 -1.65582,0.80361 -1.65581,0.80362 -0.66897,-1.36399 -0.66896,-1.36399 1.74227,0.0197 1.74226,0.0197 0.28357,-1.32292 c 0.22458,-1.04774 0.4032,-1.33998 0.85869,-1.40494 1.14111,-0.16276 1.17307,-0.63755 0.17355,-2.57761 -1.17274,-2.27626 -1.28732,-2.40349 -1.78932,-1.98686 -0.35235,0.29242 -0.32235,0.48427 0.25337,1.6204 0.35917,0.70879 0.65304,1.39039 0.65304,1.51466 0,0.12426 -0.91704,0.36851 -2.03787,0.54276 -1.12083,0.17425 -2.12992,0.46349 -2.24242,0.64275 -0.1125,0.17926 -0.34375,0.94318 -0.513885,1.69761 l -0.309335,1.37168 1.80229,3.78769 c 1.30741,2.74767 1.82777,4.15095 1.8951,5.11061 0.0906,1.29195 0.0664,1.342 -1.03647,2.13799 l -1.12928,0.81507 -1.852088,-0.79904 z m -6.893922,-0.14577 c 0.224316,-0.36295 -0.126005,-1.08221 -0.527103,-1.08221 -0.464825,0 -0.732536,0.4584 -0.548225,0.93872 0.163822,0.42691 0.844063,0.51768 1.075328,0.14349 z m 8.878299,-0.44015 c 0,-0.86845 -0.88513,-0.79116 -1.01059,0.0883 -0.06422,0.45009 0.0471,0.59261 0.46302,0.59261 0.41185,0 0.54757,-0.16876 0.54757,-0.68086 z m -9.701328,-1.01959 c 0.172852,-0.45044 -0.477356,-1.06318 -0.870418,-0.82025 -0.151895,0.0939 -0.276173,0.40178 -0.276173,0.68423 0,0.60635 0.924045,0.71597 1.146591,0.13602 z m 1.763826,-0.13602 c 0,-0.71244 -0.500523,-0.9514 -0.982739,-0.46919 -0.482216,0.48222 -0.243253,0.98274 0.469188,0.98274 0.331957,0 0.513551,-0.18159 0.513551,-0.51355 z m 7.143752,0.0127 c 0,-0.50257 -0.604027,-0.92359 -0.900175,-0.62744 -0.379651,0.37964 -0.13348,1.12829 0.371007,1.12829 0.342808,0 0.529168,-0.17639 0.529168,-0.50086 z m 1.73548,0.21089 c 0.0986,-0.15949 0.0163,-0.45284 -0.18282,-0.65189 -0.45899,-0.45884 -1.16362,-0.0695 -0.93806,0.51828 0.18595,0.48458 0.8547,0.56429 1.12088,0.13361 z m -5.307357,-8.70949 c 0,-2.59812 -0.03364,-2.77451 -0.529166,-2.77451 -0.486312,0 -0.535377,0.20196 -0.605854,2.4937 -0.08655,2.81452 0.01103,3.27177 0.6712,3.14463 0.406871,-0.0784 0.46382,-0.42998 0.46382,-2.86382 z m 0.934837,-4.10188 c 0.94711,-0.47994 1.314122,-0.82107 1.314122,-1.22147 0,-0.56853 -0.4752,-0.59805 -1.653646,-0.10271 -0.775116,0.32581 -0.592254,-1.04484 0.225176,-1.68783 0.762424,-0.59972 1.009219,-0.52956 3.371318,0.95844 1.04877,0.66068 1.76132,0.64669 1.76132,-0.0346 0,-0.36181 -3.96636,-2.80218 -4.554404,-2.80218 -0.145201,0 -0.62221,0.30141 -1.060024,0.66981 l -0.79602,0.6698 -0.947645,-0.7228 -0.947645,-0.7228 -2.263278,1.21599 c -1.244804,0.66879 -2.301843,1.40737 -2.348979,1.64129 -0.170849,0.84788 0.747594,0.71166 2.59279,-0.38455 l 1.879359,-1.11651 0.651047,0.61163 c 0.779225,0.73205 0.920454,2.01216 0.188026,1.70429 -1.177991,-0.49515 -1.653645,-0.46578 -1.653645,0.1021 0,0.39382 0.364873,0.74487 1.25677,1.20915 0.691224,0.35981 1.350026,0.65975 1.464004,0.66653 0.113979,0.007 0.798589,-0.28735 1.521354,-0.6536 z m -5.043858,-5.71965 c 1.462579,-1.2221 1.690674,-1.32892 2.272096,-1.064 0.428104,0.19505 0.6463,0.51226 0.6463,0.93955 0,0.66142 0.405757,0.96985 0.992188,0.75419 0.181901,-0.0669 0.330729,-0.38642 0.330729,-0.71006 0,-0.35288 0.258204,-0.72663 0.644983,-0.93363 0.598717,-0.32042 0.767474,-0.24771 2.352619,1.01362 1.869173,1.48735 2.375023,1.66242 2.246323,0.77744 -0.0495,-0.34053 -0.87288,-1.22796 -1.98751,-2.14218 l -1.902955,-1.5608 -1.02357,0.57527 -1.023567,0.57528 -0.984525,-0.58088 -0.984522,-0.58088 -1.909784,1.56641 c -1.11945,0.91818 -1.944772,1.807 -1.994331,2.14778 -0.135732,0.93332 0.554619,0.70263 2.325526,-0.77711 z m -6.559857,19.75804 c -0.774655,-0.18747 -1.51243,-0.44524 -1.639502,-0.57281 -0.320855,-0.32213 -1.609193,-3.27466 -1.428898,-3.27466 0.174787,0 5.402903,4.00675 5.402903,4.1407 0,0.16687 -0.900922,0.0537 -2.334503,-0.29323 z m 17.966965,0.29223 c 1.33631,-1.13488 5.37205,-4.12547 5.45513,-4.04239 0.0626,0.0625 -0.25191,0.83804 -0.6988,1.72332 -0.62562,1.23935 -0.97955,1.64701 -1.53868,1.77224 -0.39938,0.0895 -1.14287,0.26949 -1.65219,0.40008 -0.93778,0.24044 -1.76734,0.3182 -1.56546,0.14675 z m 0.24254,-2.6158 c 0,-0.89532 0.06,-0.94852 2.14371,-1.90101 1.17904,-0.53896 2.19656,-0.92707 2.26116,-0.86247 0.0646,0.0646 -0.39406,0.51411 -1.01923,0.99891 -0.62518,0.4848 -1.6427,1.2874 -2.26116,1.78356 l -1.12448,0.9021 z m -17.732644,-0.41645 c -0.657903,-0.53634 -1.550654,-1.23335 -1.983891,-1.54891 -1.365726,-0.99476 -0.533157,-0.94707 1.561626,0.0894 1.788465,0.88496 2.015324,1.08003 2.015324,1.73294 0,0.40465 -0.0893,0.72807 -0.198438,0.71871 -0.10914,-0.009 -0.736721,-0.45585 -1.394621,-0.99219 z m 7.755493,-0.43669 -1.113607,-0.86353 0.633568,-0.59521 0.633572,-0.59521 0.844904,0.60163 c 0.62924,0.44806 0.954379,0.53383 1.273789,0.33602 0.235884,-0.14608 0.690113,-0.42773 1.009393,-0.62589 0.506963,-0.31464 0.649433,-0.29792 1.12448,0.13199 0.299183,0.27076 0.543967,0.56998 0.543967,0.66493 0,0.095 -0.535781,0.5503 -1.190625,1.01187 -1.080225,0.76142 -1.190625,0.79067 -1.190625,0.31552 0,-0.68282 -0.894458,-0.69837 -1.21634,-0.0211 -0.224234,0.47178 -0.307089,0.44966 -1.352476,-0.36097 z m -6.890038,-4.0105 c -1.390322,-1.23852 -1.65032,-1.60602 -1.632757,-2.30783 0.0208,-0.83125 0.02193,-0.8319 0.270555,-0.15535 0.176238,0.47957 0.792628,0.94205 2.09578,1.57247 1.01536,0.4912 1.842323,1.01892 1.837695,1.17271 -0.0088,0.29087 -0.634203,1.2111 -0.814504,1.19838 -0.05672,-0.004 -0.847264,-0.67017 -1.756769,-1.48038 z m 15.367219,0.8165 c -0.29984,-0.64616 -0.25272,-0.69517 1.53334,-1.59461 1.10059,-0.55425 1.93766,-1.16394 2.07851,-1.51391 0.21574,-0.53604 0.23572,-0.51834 0.23453,0.2078 -0.001,0.63694 -0.3007,1.05155 -1.51685,2.09871 -0.83356,0.71772 -1.6291,1.34179 -1.76787,1.3868 -0.13878,0.045 -0.39152,-0.21814 -0.56166,-0.58479 z m -13.42835,-5.85276 c -0.346948,-0.90413 -0.157001,-1.21259 0.359002,-0.583 0.439688,0.53647 0.587315,0.57871 1.046068,0.29931 0.36318,-0.22119 0.588878,-0.23673 0.705186,-0.0485 0.225316,0.36457 0.156961,0.40486 -0.985777,0.581 -0.721545,0.11122 -1.010904,0.0472 -1.124479,-0.24877 z m 11.67942,-0.36583 c 0.13489,-0.51581 0.16378,-0.51926 0.65149,-0.0779 0.41918,0.37935 0.60223,0.40447 1.02471,0.14063 0.42407,-0.26484 0.51437,-0.25117 0.51437,0.0779 0,0.29538 -0.30302,0.39911 -1.16586,0.39911 -1.04321,0 -1.15101,-0.0568 -1.02471,-0.53974 z m -17.972297,-6.27328 c -0.402637,-0.42912 -0.800068,-1.28988 -0.968806,-2.09827 -0.248968,-1.19275 -0.216977,-1.52693 0.246473,-2.57464 0.469101,-1.06048 0.681154,-1.24766 1.779198,-1.57051 1.45637,-0.4282 1.633443,-0.2889 1.639446,1.28976 0.0021,0.58608 0.191706,1.33352 0.42106,1.66097 0.39364,0.562 0.375,0.63574 -0.332525,1.31565 -0.412245,0.39615 -0.984163,1.16676 -1.270926,1.71246 -0.286766,0.5457 -0.591106,0.99219 -0.676307,0.99219 -0.0852,0 -0.462129,-0.32743 -0.837613,-0.72761 z m 24.787087,-0.26458 c -0.28775,-0.5457 -0.87272,-1.31557 -1.29992,-1.71081 -0.71541,-0.66189 -0.74402,-0.75589 -0.36235,-1.19063 0.22791,-0.2596 0.49735,-1.16171 0.59875,-2.00469 0.17047,-1.41712 0.22772,-1.51947 0.75923,-1.35737 1.70978,0.52146 2.20062,0.87539 2.67598,1.92954 0.44272,0.98179 0.45996,1.25664 0.16229,2.5868 -0.22379,0.99997 -0.56294,1.69078 -1.03366,2.10546 -0.38532,0.33944 -0.76281,0.62093 -0.83886,0.62553 -0.076,0.005 -0.3737,-0.43813 -0.66146,-0.98383 z m -20.664778,-3.62929 c -0.251081,-0.65431 -0.01011,-0.88671 0.658773,-0.63537 0.517644,0.19452 0.569092,0.30304 0.298334,0.62928 -0.415028,0.50008 -0.766686,0.50232 -0.957107,0.006 z m 16.951338,0.0128 c -0.49361,-0.36094 -0.48528,-0.38234 0.21739,-0.5587 0.40187,-0.10086 0.84984,-0.37845 0.99551,-0.61687 0.19701,-0.32247 0.22065,-0.2302 0.0923,0.36026 -0.29144,1.34098 -0.45048,1.44032 -1.30523,0.81531 z"
         id="path5316"
         inkscape:connector-curvature="0" />
    </g>
  </g>
</svg>
